M48
; DRILL file {KiCad 7.0.1-0} date 2024 January 09, Tuesday 13:00:23
; FORMAT={-:-/ absolute / inch / decimal}
; #@! TF.CreationDate,2024-01-09T13:00:23-05:00
; #@! TF.GenerationSoftware,Kicad,Pcbnew,7.0.1-0
; #@! TF.FileFunction,Plated,1,2,PTH
FMAT,2
INCH
; #@! TA.AperFunction,Plated,PTH,ViaDrill
T1C0.0118
; #@! TA.AperFunction,Plated,PTH,ComponentDrill
T2C0.0197
; #@! TA.AperFunction,Plated,PTH,ComponentDrill
T3C0.0394
%
G90
G05
T1
X3.7323Y-3.248
X4.0669Y-3.2756
X4.3293Y-3.29
X4.3898Y-3.6417
X4.6102Y-3.5984
X4.6142Y-3.5433
X4.6339Y-3.5118
X4.6417Y-3.7835
X4.6575Y-3.4803
X4.6811Y-3.811
X4.878Y-3.4144
X4.9016Y-3.1496
X4.9055Y-3.7835
X4.9094Y-3.2638
X4.9291Y-3.1772
X4.9331Y-3.2323
X4.9528Y-3.2047
X4.9823Y-3.2835
X4.9843Y-3.6339
X5.0197Y-3.437
X5.0236Y-3.2835
X5.0512Y-3.3307
X5.0512Y-3.3622
X5.0512Y-3.3937
X5.0709Y-3.7598
X5.0866Y-3.437
X5.0945Y-3.5984
X5.126Y-3.4409
X5.1339Y-3.5748
X5.1654Y-3.4409
X5.1811Y-3.5945
X5.2205Y-3.5945
X5.2283Y-3.7008
X5.2362Y-3.748
X5.3189Y-3.5433
X5.3228Y-3.7441
X5.3327Y-3.7087
T3
X3.798Y-3.878
X3.898Y-3.878
X3.998Y-3.878
X4.098Y-3.878
X4.198Y-3.878
X4.2972Y-3.0906
X4.298Y-3.878
X4.3972Y-3.0906
X4.398Y-3.878
X4.4972Y-3.0906
X4.498Y-3.878
X4.5972Y-3.0906
X4.598Y-3.878
X4.6972Y-3.0906
X4.698Y-3.878
X4.7972Y-3.0906
X4.798Y-3.878
X4.8972Y-3.0906
X4.898Y-3.878
X4.9972Y-3.0906
X4.998Y-3.878
X5.0972Y-3.0906
X5.098Y-3.878
X5.1972Y-3.0906
X5.198Y-3.878
X5.2972Y-3.0906
X5.298Y-3.878
T2
G00X3.6161Y-3.3543
M15
G01X3.5886Y-3.3543
M16
G05
G00X3.6161Y-3.6142
M15
G01X3.5886Y-3.6142
M16
G05
T0
M30
