%TF.GenerationSoftware,KiCad,Pcbnew,7.0.1-0*%
%TF.CreationDate,2024-01-09T13:00:13-05:00*%
%TF.ProjectId,nRF52_sandbox,6e524635-325f-4736-916e-64626f782e6b,rev?*%
%TF.SameCoordinates,Original*%
%TF.FileFunction,Copper,L2,Bot*%
%TF.FilePolarity,Positive*%
%FSLAX46Y46*%
G04 Gerber Fmt 4.6, Leading zero omitted, Abs format (unit mm)*
G04 Created by KiCad (PCBNEW 7.0.1-0) date 2024-01-09 13:00:13*
%MOMM*%
%LPD*%
G01*
G04 APERTURE LIST*
%TA.AperFunction,ComponentPad*%
%ADD10R,1.700000X1.700000*%
%TD*%
%TA.AperFunction,ComponentPad*%
%ADD11O,1.700000X1.700000*%
%TD*%
%TA.AperFunction,ComponentPad*%
%ADD12O,1.800000X0.900000*%
%TD*%
%TA.AperFunction,ViaPad*%
%ADD13C,0.600000*%
%TD*%
%TA.AperFunction,Conductor*%
%ADD14C,0.300000*%
%TD*%
%TA.AperFunction,Conductor*%
%ADD15C,0.250000*%
%TD*%
G04 APERTURE END LIST*
D10*
%TO.P,J4,1,Pin_1*%
%TO.N,/D22|SDA*%
X134550000Y-78500000D03*
D11*
%TO.P,J4,2,Pin_2*%
%TO.N,/D23|SCL*%
X132010000Y-78500000D03*
%TO.P,J4,3,Pin_3*%
%TO.N,/D5*%
X129470000Y-78500000D03*
%TO.P,J4,4,Pin_4*%
%TO.N,/D6*%
X126930000Y-78500000D03*
%TO.P,J4,5,Pin_5*%
%TO.N,/D9*%
X124390000Y-78500000D03*
%TO.P,J4,6,Pin_6*%
%TO.N,/D10*%
X121850000Y-78500000D03*
%TO.P,J4,7,Pin_7*%
%TO.N,/D11*%
X119310000Y-78500000D03*
%TO.P,J4,8,Pin_8*%
%TO.N,/D12*%
X116770000Y-78500000D03*
%TO.P,J4,9,Pin_9*%
%TO.N,/D13*%
X114230000Y-78500000D03*
%TO.P,J4,10,Pin_10*%
%TO.N,+3.3V*%
X111690000Y-78500000D03*
%TO.P,J4,11,Pin_11*%
%TO.N,VBUS*%
X109150000Y-78500000D03*
%TD*%
D12*
%TO.P,J1,5,GND*%
%TO.N,GND*%
X91500000Y-85200000D03*
X91500000Y-91800000D03*
%TD*%
D10*
%TO.P,J3,1,Pin_1*%
%TO.N,/RESET*%
X96470000Y-98500000D03*
D11*
%TO.P,J3,2,Pin_2*%
%TO.N,GND*%
X99010000Y-98500000D03*
%TO.P,J3,3,Pin_3*%
%TO.N,/A6|VDIV*%
X101550000Y-98500000D03*
%TO.P,J3,4,Pin_4*%
%TO.N,/A7|AREF*%
X104090000Y-98500000D03*
%TO.P,J3,5,Pin_5*%
%TO.N,/A0*%
X106630000Y-98500000D03*
%TO.P,J3,6,Pin_6*%
%TO.N,/A1*%
X109170000Y-98500000D03*
%TO.P,J3,7,Pin_7*%
%TO.N,/A2*%
X111710000Y-98500000D03*
%TO.P,J3,8,Pin_8*%
%TO.N,/A3*%
X114250000Y-98500000D03*
%TO.P,J3,9,Pin_9*%
%TO.N,/A4*%
X116790000Y-98500000D03*
%TO.P,J3,10,Pin_10*%
%TO.N,/A5*%
X119330000Y-98500000D03*
%TO.P,J3,11,Pin_11*%
%TO.N,/D26|SCK*%
X121870000Y-98500000D03*
%TO.P,J3,12,Pin_12*%
%TO.N,/D25|MOSI*%
X124410000Y-98500000D03*
%TO.P,J3,13,Pin_13*%
%TO.N,/D24|MISO*%
X126950000Y-98500000D03*
%TO.P,J3,14,Pin_14*%
%TO.N,/RXD*%
X129490000Y-98500000D03*
%TO.P,J3,15,Pin_15*%
%TO.N,/TXD*%
X132030000Y-98500000D03*
%TO.P,J3,16,Pin_16*%
%TO.N,/D2*%
X134570000Y-98500000D03*
%TD*%
D13*
%TO.N,+3.3V*%
X109965000Y-83565000D03*
X130400000Y-90800000D03*
X128800000Y-95500000D03*
%TO.N,GND*%
X132800000Y-94000000D03*
X124700000Y-82900000D03*
%TO.N,VBUS*%
X103300000Y-83200000D03*
%TO.N,/D3|LED1*%
X124500000Y-80000000D03*
X94800000Y-82500000D03*
%TO.N,/RESET*%
X117100000Y-91400000D03*
X129400000Y-91400000D03*
X111500000Y-92500000D03*
%TO.N,/A7|AREF*%
X125800000Y-81400000D03*
%TO.N,/A6|VDIV*%
X125200000Y-80700000D03*
%TO.N,/A0*%
X117900000Y-96100000D03*
X123900000Y-86724500D03*
%TO.N,/A1*%
X118900000Y-96800000D03*
X127500000Y-87300000D03*
%TO.N,/A2*%
X125300000Y-82100000D03*
%TO.N,/A3*%
X128300000Y-84600000D03*
%TO.N,/A4*%
X128300000Y-85400000D03*
%TO.N,/A5*%
X128300000Y-86200000D03*
%TO.N,/D26|SCK*%
X126600000Y-92300000D03*
%TO.N,/D22|SDA*%
X131200000Y-87400000D03*
%TO.N,/D23|SCL*%
X130200000Y-87400000D03*
%TO.N,/D5*%
X129200000Y-87300000D03*
%TO.N,/D6*%
X127600000Y-83400000D03*
%TO.N,/D9*%
X126550000Y-83400000D03*
%TO.N,/D7|SWITCH*%
X135100000Y-90000000D03*
X124600000Y-96100000D03*
%TO.N,/QSPI_DATA2*%
X133000000Y-95200000D03*
X131600000Y-91300000D03*
%TO.N,/SWO*%
X132600000Y-91300000D03*
X117200000Y-90000000D03*
%TO.N,/SWDIO*%
X118300000Y-88400000D03*
X135200000Y-95100000D03*
%TO.N,/SWCLK*%
X135450000Y-94200000D03*
X117700000Y-89200000D03*
%TD*%
D14*
%TO.N,+3.3V*%
X111690000Y-78500000D02*
X111690000Y-81840000D01*
X111690000Y-81840000D02*
X109965000Y-83565000D01*
X128800000Y-95500000D02*
X130400000Y-93900000D01*
X130400000Y-93900000D02*
X130400000Y-90800000D01*
%TO.N,VBUS*%
X109150000Y-78500000D02*
X104450000Y-83200000D01*
X104450000Y-83200000D02*
X103300000Y-83200000D01*
D15*
%TO.N,/D3|LED1*%
X124500000Y-80000000D02*
X117300000Y-80000000D01*
X112400000Y-84900000D02*
X97200000Y-84900000D01*
X117300000Y-80000000D02*
X112400000Y-84900000D01*
X97200000Y-84900000D02*
X94800000Y-82500000D01*
%TO.N,/RESET*%
X96470000Y-97430000D02*
X96470000Y-98500000D01*
X111500000Y-92500000D02*
X101400000Y-92500000D01*
X117100000Y-91400000D02*
X129400000Y-91400000D01*
X101400000Y-92500000D02*
X96470000Y-97430000D01*
%TO.N,/A7|AREF*%
X113200000Y-87100000D02*
X113200000Y-94400000D01*
X105700000Y-96700000D02*
X104090000Y-98310000D01*
X104090000Y-98310000D02*
X104090000Y-98500000D01*
X118900000Y-81400000D02*
X113200000Y-87100000D01*
X110900000Y-96700000D02*
X105700000Y-96700000D01*
X125800000Y-81400000D02*
X118900000Y-81400000D01*
X113200000Y-94400000D02*
X110900000Y-96700000D01*
%TO.N,/A6|VDIV*%
X118600000Y-80700000D02*
X112600000Y-86700000D01*
X112600000Y-93800000D02*
X110300000Y-96100000D01*
X103200000Y-96100000D02*
X101550000Y-97750000D01*
X101550000Y-97750000D02*
X101550000Y-98500000D01*
X125200000Y-80700000D02*
X118600000Y-80700000D01*
X110300000Y-96100000D02*
X103200000Y-96100000D01*
X112600000Y-86700000D02*
X112600000Y-93800000D01*
%TO.N,/A0*%
X118175500Y-86724500D02*
X123900000Y-86724500D01*
X117900000Y-96100000D02*
X115700000Y-93900000D01*
X115700000Y-93900000D02*
X115700000Y-89200000D01*
X115700000Y-89200000D02*
X118175500Y-86724500D01*
%TO.N,/A1*%
X118900000Y-96800000D02*
X118900000Y-96057537D01*
X118500000Y-87300000D02*
X127500000Y-87300000D01*
X116300000Y-89500000D02*
X118500000Y-87300000D01*
X118900000Y-96057537D02*
X116300000Y-93457537D01*
X116300000Y-93457537D02*
X116300000Y-89500000D01*
%TO.N,/A2*%
X119000000Y-82100000D02*
X113700000Y-87400000D01*
X113700000Y-87400000D02*
X113700000Y-96510000D01*
X125300000Y-82100000D02*
X119000000Y-82100000D01*
X113700000Y-96510000D02*
X111710000Y-98500000D01*
%TO.N,/A3*%
X117305026Y-84600000D02*
X114250000Y-87655026D01*
X128300000Y-84600000D02*
X117305026Y-84600000D01*
X114250000Y-87655026D02*
X114250000Y-98500000D01*
%TO.N,/A4*%
X117400000Y-85400000D02*
X114700000Y-88100000D01*
X114700000Y-88100000D02*
X114700000Y-96410000D01*
X128300000Y-85400000D02*
X117400000Y-85400000D01*
X114700000Y-96410000D02*
X116790000Y-98500000D01*
%TO.N,/A5*%
X117500000Y-86200000D02*
X115200000Y-88500000D01*
X115200000Y-88500000D02*
X115200000Y-94370000D01*
X128300000Y-86200000D02*
X117500000Y-86200000D01*
X115200000Y-94370000D02*
X119330000Y-98500000D01*
%TO.N,/D26|SCK*%
X121870000Y-97030000D02*
X121870000Y-98500000D01*
X126600000Y-92300000D02*
X121870000Y-97030000D01*
%TO.N,/D22|SDA*%
X131200000Y-87400000D02*
X134550000Y-84050000D01*
X134550000Y-84050000D02*
X134550000Y-78500000D01*
%TO.N,/D23|SCL*%
X130200000Y-87400000D02*
X132010000Y-85590000D01*
X132010000Y-85590000D02*
X132010000Y-78500000D01*
%TO.N,/D5*%
X129200000Y-87300000D02*
X129470000Y-87030000D01*
X129470000Y-87030000D02*
X129470000Y-78500000D01*
%TO.N,/D6*%
X126900000Y-78530000D02*
X126930000Y-78500000D01*
X126900000Y-79700000D02*
X126900000Y-78530000D01*
X127600000Y-80400000D02*
X126900000Y-79700000D01*
X127600000Y-83400000D02*
X127600000Y-80400000D01*
%TO.N,/D9*%
X126550000Y-83400000D02*
X126550000Y-80660000D01*
X126550000Y-80660000D02*
X124390000Y-78500000D01*
%TO.N,/D7|SWITCH*%
X134725000Y-97000000D02*
X125500000Y-97000000D01*
X135100000Y-90000000D02*
X136500000Y-91400000D01*
X136500000Y-95225000D02*
X134725000Y-97000000D01*
X125500000Y-97000000D02*
X124600000Y-96100000D01*
X136500000Y-91400000D02*
X136500000Y-95225000D01*
%TO.N,/QSPI_DATA2*%
X131600000Y-93800000D02*
X131600000Y-91300000D01*
X133000000Y-95200000D02*
X131600000Y-93800000D01*
%TO.N,/SWO*%
X117200000Y-90000000D02*
X131300000Y-90000000D01*
X131300000Y-90000000D02*
X132600000Y-91300000D01*
%TO.N,/SWDIO*%
X135975000Y-94825000D02*
X135700000Y-95100000D01*
X132000000Y-88400000D02*
X135975000Y-92375000D01*
X135975000Y-92375000D02*
X135975000Y-94825000D01*
X135700000Y-95100000D02*
X135200000Y-95100000D01*
X118300000Y-88400000D02*
X132000000Y-88400000D01*
%TO.N,/SWCLK*%
X131742463Y-89300000D02*
X135450000Y-93007537D01*
X117700000Y-89200000D02*
X117800000Y-89300000D01*
X135450000Y-93007537D02*
X135450000Y-94200000D01*
X117800000Y-89300000D02*
X131742463Y-89300000D01*
%TD*%
%TA.AperFunction,Conductor*%
%TO.N,GND*%
G36*
X140962500Y-77010414D02*
G01*
X140989586Y-77037500D01*
X140999500Y-77074500D01*
X140999500Y-82226000D01*
X140989586Y-82263000D01*
X140962500Y-82290086D01*
X140925500Y-82300000D01*
X136800000Y-82300000D01*
X136800000Y-86126000D01*
X136790086Y-86163000D01*
X136763000Y-86190086D01*
X136726000Y-86200000D01*
X135550000Y-86200000D01*
X135550000Y-87800000D01*
X136726000Y-87800000D01*
X136763000Y-87809914D01*
X136790086Y-87837000D01*
X136800000Y-87874000D01*
X136800000Y-91130669D01*
X136789472Y-91168713D01*
X136760882Y-91195932D01*
X136722367Y-91204580D01*
X136684886Y-91192196D01*
X136681682Y-91190055D01*
X136670470Y-91180854D01*
X135573089Y-90083473D01*
X135555202Y-90054515D01*
X135552168Y-90020618D01*
X135555133Y-90000000D01*
X135536697Y-89871774D01*
X135482882Y-89753937D01*
X135398049Y-89656033D01*
X135289069Y-89585996D01*
X135164772Y-89549500D01*
X135035228Y-89549500D01*
X134916312Y-89584416D01*
X134910931Y-89585996D01*
X134801951Y-89656033D01*
X134717117Y-89753937D01*
X134663302Y-89871774D01*
X134644867Y-90000000D01*
X134663302Y-90128225D01*
X134717117Y-90246062D01*
X134717118Y-90246063D01*
X134801951Y-90343967D01*
X134910931Y-90414004D01*
X135035228Y-90450500D01*
X135130232Y-90450500D01*
X135158551Y-90456133D01*
X135182558Y-90472174D01*
X136202826Y-91492442D01*
X136218867Y-91516449D01*
X136224500Y-91544768D01*
X136224500Y-92056232D01*
X136212029Y-92097344D01*
X136178819Y-92124599D01*
X136136063Y-92128810D01*
X136098174Y-92108558D01*
X132219145Y-88229529D01*
X132209942Y-88218315D01*
X132198624Y-88201376D01*
X132181679Y-88190053D01*
X132181674Y-88190049D01*
X132127628Y-88153938D01*
X132127627Y-88153937D01*
X132107495Y-88140485D01*
X132019985Y-88123078D01*
X132019983Y-88123078D01*
X132000000Y-88119103D01*
X131999999Y-88119103D01*
X131991190Y-88120855D01*
X131980015Y-88123078D01*
X131965580Y-88124500D01*
X118691170Y-88124500D01*
X118660429Y-88117813D01*
X118635246Y-88098961D01*
X118598049Y-88056033D01*
X118489069Y-87985996D01*
X118489067Y-87985995D01*
X118489065Y-87985994D01*
X118388079Y-87956342D01*
X118347644Y-87926818D01*
X118335262Y-87878306D01*
X118356600Y-87833015D01*
X118592442Y-87597173D01*
X118616449Y-87581133D01*
X118644768Y-87575500D01*
X127108830Y-87575500D01*
X127139571Y-87582187D01*
X127164753Y-87601038D01*
X127201951Y-87643967D01*
X127310931Y-87714004D01*
X127435228Y-87750500D01*
X127564770Y-87750500D01*
X127564772Y-87750500D01*
X127689069Y-87714004D01*
X127798049Y-87643967D01*
X127882882Y-87546063D01*
X127936697Y-87428226D01*
X127955133Y-87300000D01*
X127936697Y-87171774D01*
X127882882Y-87053937D01*
X127798049Y-86956033D01*
X127689069Y-86885996D01*
X127564772Y-86849500D01*
X127435228Y-86849500D01*
X127310931Y-86885996D01*
X127201951Y-86956033D01*
X127164753Y-86998961D01*
X127139571Y-87017813D01*
X127108830Y-87024500D01*
X124373397Y-87024500D01*
X124327653Y-87008668D01*
X124301483Y-86967946D01*
X124306084Y-86919759D01*
X124323852Y-86880853D01*
X124336697Y-86852726D01*
X124355133Y-86724500D01*
X124336697Y-86596274D01*
X124329375Y-86580241D01*
X124324774Y-86532054D01*
X124350944Y-86491332D01*
X124396688Y-86475500D01*
X127908830Y-86475500D01*
X127939571Y-86482187D01*
X127964753Y-86501038D01*
X128001951Y-86543967D01*
X128110931Y-86614004D01*
X128235228Y-86650500D01*
X128364770Y-86650500D01*
X128364772Y-86650500D01*
X128489069Y-86614004D01*
X128598049Y-86543967D01*
X128682882Y-86446063D01*
X128736697Y-86328226D01*
X128755133Y-86200000D01*
X128736697Y-86071774D01*
X128682882Y-85953937D01*
X128682881Y-85953936D01*
X128682881Y-85953935D01*
X128591486Y-85848458D01*
X128575498Y-85817445D01*
X128575498Y-85782553D01*
X128591487Y-85751539D01*
X128598047Y-85743968D01*
X128598049Y-85743967D01*
X128682882Y-85646063D01*
X128736697Y-85528226D01*
X128755133Y-85400000D01*
X128736697Y-85271774D01*
X128682882Y-85153937D01*
X128682881Y-85153936D01*
X128682881Y-85153935D01*
X128591486Y-85048458D01*
X128575498Y-85017445D01*
X128575498Y-84982553D01*
X128591487Y-84951539D01*
X128598047Y-84943968D01*
X128598049Y-84943967D01*
X128682882Y-84846063D01*
X128736697Y-84728226D01*
X128755133Y-84600000D01*
X128736697Y-84471774D01*
X128682882Y-84353937D01*
X128598049Y-84256033D01*
X128489069Y-84185996D01*
X128364772Y-84149500D01*
X128235228Y-84149500D01*
X128110931Y-84185996D01*
X128001951Y-84256033D01*
X127964753Y-84298961D01*
X127939571Y-84317813D01*
X127908830Y-84324500D01*
X117343768Y-84324500D01*
X117302656Y-84312029D01*
X117275401Y-84278819D01*
X117271190Y-84236063D01*
X117291442Y-84198174D01*
X119092442Y-82397174D01*
X119116449Y-82381133D01*
X119144768Y-82375500D01*
X124908830Y-82375500D01*
X124939571Y-82382187D01*
X124964753Y-82401038D01*
X125001951Y-82443967D01*
X125110931Y-82514004D01*
X125235228Y-82550500D01*
X125364770Y-82550500D01*
X125364772Y-82550500D01*
X125489069Y-82514004D01*
X125598049Y-82443967D01*
X125682882Y-82346063D01*
X125736697Y-82228226D01*
X125755133Y-82100000D01*
X125736697Y-81971774D01*
X125736697Y-81971772D01*
X125729147Y-81955240D01*
X125724546Y-81907054D01*
X125750716Y-81866332D01*
X125796460Y-81850500D01*
X125864770Y-81850500D01*
X125864772Y-81850500D01*
X125989069Y-81814004D01*
X126098049Y-81743967D01*
X126144574Y-81690272D01*
X126182199Y-81667031D01*
X126226360Y-81669398D01*
X126261285Y-81696528D01*
X126274500Y-81738732D01*
X126274500Y-83002409D01*
X126269834Y-83028269D01*
X126256426Y-83050868D01*
X126167118Y-83153935D01*
X126113302Y-83271774D01*
X126094867Y-83400000D01*
X126113302Y-83528225D01*
X126167117Y-83646062D01*
X126167118Y-83646063D01*
X126251951Y-83743967D01*
X126360931Y-83814004D01*
X126485228Y-83850500D01*
X126614770Y-83850500D01*
X126614772Y-83850500D01*
X126739069Y-83814004D01*
X126848049Y-83743967D01*
X126932882Y-83646063D01*
X126986697Y-83528226D01*
X127001753Y-83423507D01*
X127012488Y-83399999D01*
X127001753Y-83376491D01*
X126986697Y-83271774D01*
X126963524Y-83221033D01*
X126932882Y-83153937D01*
X126932881Y-83153936D01*
X126932881Y-83153935D01*
X126843574Y-83050868D01*
X126830166Y-83028269D01*
X126825500Y-83002409D01*
X126825500Y-80694420D01*
X126826922Y-80679982D01*
X126830897Y-80659999D01*
X126827349Y-80642164D01*
X126809515Y-80552505D01*
X126766690Y-80488413D01*
X126759947Y-80478321D01*
X126759942Y-80478315D01*
X126751130Y-80465127D01*
X126748624Y-80461376D01*
X126731677Y-80450052D01*
X126720470Y-80440854D01*
X125303814Y-79024198D01*
X125282941Y-78982729D01*
X125290878Y-78936989D01*
X125318814Y-78884727D01*
X125376024Y-78696132D01*
X125395341Y-78500000D01*
X125924659Y-78500000D01*
X125943976Y-78696132D01*
X126001186Y-78884728D01*
X126041255Y-78959690D01*
X126094090Y-79058538D01*
X126219117Y-79210883D01*
X126371462Y-79335910D01*
X126507682Y-79408721D01*
X126545275Y-79428815D01*
X126571982Y-79436917D01*
X126609938Y-79463649D01*
X126624500Y-79507730D01*
X126624500Y-79665580D01*
X126623078Y-79680015D01*
X126619103Y-79700000D01*
X126622646Y-79717813D01*
X126623078Y-79719982D01*
X126623078Y-79719985D01*
X126640484Y-79807494D01*
X126668528Y-79849465D01*
X126685387Y-79874696D01*
X126685386Y-79874696D01*
X126701374Y-79898623D01*
X126718315Y-79909942D01*
X126729529Y-79919145D01*
X127302826Y-80492441D01*
X127318867Y-80516448D01*
X127324500Y-80544767D01*
X127324500Y-83002409D01*
X127319834Y-83028269D01*
X127306426Y-83050868D01*
X127217118Y-83153935D01*
X127163302Y-83271774D01*
X127148247Y-83376491D01*
X127137511Y-83399999D01*
X127148247Y-83423508D01*
X127163302Y-83528225D01*
X127217117Y-83646062D01*
X127217118Y-83646063D01*
X127301951Y-83743967D01*
X127410931Y-83814004D01*
X127535228Y-83850500D01*
X127664770Y-83850500D01*
X127664772Y-83850500D01*
X127789069Y-83814004D01*
X127898049Y-83743967D01*
X127982882Y-83646063D01*
X128036697Y-83528226D01*
X128055133Y-83400000D01*
X128036697Y-83271774D01*
X127982882Y-83153937D01*
X127982881Y-83153936D01*
X127982881Y-83153935D01*
X127893574Y-83050868D01*
X127880166Y-83028269D01*
X127875500Y-83002409D01*
X127875500Y-80434416D01*
X127876922Y-80419979D01*
X127878094Y-80414085D01*
X127880896Y-80400000D01*
X127876922Y-80380020D01*
X127876922Y-80380016D01*
X127875500Y-80372867D01*
X127859515Y-80292505D01*
X127798624Y-80201376D01*
X127781674Y-80190050D01*
X127770467Y-80180852D01*
X127197174Y-79607558D01*
X127181133Y-79583551D01*
X127175500Y-79555232D01*
X127175500Y-79525930D01*
X127190063Y-79481848D01*
X127228017Y-79455116D01*
X127314727Y-79428814D01*
X127488538Y-79335910D01*
X127640883Y-79210883D01*
X127765910Y-79058538D01*
X127858814Y-78884727D01*
X127916024Y-78696132D01*
X127935341Y-78500000D01*
X127935341Y-78499999D01*
X128464659Y-78499999D01*
X128483976Y-78696132D01*
X128541186Y-78884728D01*
X128581255Y-78959690D01*
X128634090Y-79058538D01*
X128759117Y-79210883D01*
X128911462Y-79335910D01*
X129085273Y-79428814D01*
X129141981Y-79446016D01*
X129179937Y-79472748D01*
X129194500Y-79516830D01*
X129194500Y-86776701D01*
X129179740Y-86821048D01*
X129141348Y-86847704D01*
X129135231Y-86849500D01*
X129135228Y-86849500D01*
X129028447Y-86880853D01*
X129010931Y-86885996D01*
X128901951Y-86956033D01*
X128817117Y-87053937D01*
X128763302Y-87171774D01*
X128744867Y-87299999D01*
X128763302Y-87428225D01*
X128817117Y-87546062D01*
X128817118Y-87546063D01*
X128901951Y-87643967D01*
X129010931Y-87714004D01*
X129135228Y-87750500D01*
X129264770Y-87750500D01*
X129264772Y-87750500D01*
X129389069Y-87714004D01*
X129498049Y-87643967D01*
X129582882Y-87546063D01*
X129617359Y-87470568D01*
X129649206Y-87436362D01*
X129695202Y-87428063D01*
X129736996Y-87448983D01*
X129757918Y-87490778D01*
X129763302Y-87528225D01*
X129817117Y-87646062D01*
X129817118Y-87646063D01*
X129901951Y-87743967D01*
X130010931Y-87814004D01*
X130135228Y-87850500D01*
X130264770Y-87850500D01*
X130264772Y-87850500D01*
X130389069Y-87814004D01*
X130498049Y-87743967D01*
X130582882Y-87646063D01*
X130632687Y-87537005D01*
X130659993Y-87505494D01*
X130700000Y-87493747D01*
X130740007Y-87505494D01*
X130767312Y-87537005D01*
X130772120Y-87547532D01*
X130817117Y-87646062D01*
X130817118Y-87646063D01*
X130901951Y-87743967D01*
X131010931Y-87814004D01*
X131135228Y-87850500D01*
X131264770Y-87850500D01*
X131264772Y-87850500D01*
X131389069Y-87814004D01*
X131498049Y-87743967D01*
X131582882Y-87646063D01*
X131636697Y-87528226D01*
X131655133Y-87400000D01*
X131652168Y-87379380D01*
X131655202Y-87345482D01*
X131673087Y-87316527D01*
X134720473Y-84269141D01*
X134731681Y-84259944D01*
X134748624Y-84248624D01*
X134784784Y-84194508D01*
X134809515Y-84157495D01*
X134811105Y-84149500D01*
X134825500Y-84077133D01*
X134825500Y-84077129D01*
X134830896Y-84050000D01*
X134826921Y-84030019D01*
X134825500Y-84015584D01*
X134825500Y-79574500D01*
X134835414Y-79537500D01*
X134862500Y-79510414D01*
X134899500Y-79500500D01*
X135414819Y-79500500D01*
X135414820Y-79500500D01*
X135458722Y-79491767D01*
X135508504Y-79458504D01*
X135541767Y-79408722D01*
X135550500Y-79364820D01*
X135550500Y-77635180D01*
X135541767Y-77591278D01*
X135508504Y-77541496D01*
X135458722Y-77508233D01*
X135414820Y-77499500D01*
X133685180Y-77499500D01*
X133641278Y-77508233D01*
X133591496Y-77541496D01*
X133558233Y-77591278D01*
X133549500Y-77635180D01*
X133549500Y-79364820D01*
X133558233Y-79408722D01*
X133591496Y-79458504D01*
X133641278Y-79491767D01*
X133685180Y-79500500D01*
X134200500Y-79500500D01*
X134237500Y-79510414D01*
X134264586Y-79537500D01*
X134274500Y-79574500D01*
X134274500Y-83905232D01*
X134268867Y-83933551D01*
X134252826Y-83957558D01*
X131282558Y-86927826D01*
X131258551Y-86943867D01*
X131230232Y-86949500D01*
X131218767Y-86949500D01*
X131177655Y-86937029D01*
X131150400Y-86903819D01*
X131146189Y-86861063D01*
X131166441Y-86823174D01*
X131661390Y-86328225D01*
X132180473Y-85809141D01*
X132191681Y-85799944D01*
X132208624Y-85788624D01*
X132238464Y-85743967D01*
X132269516Y-85697494D01*
X132290897Y-85590000D01*
X132286921Y-85570014D01*
X132285500Y-85555579D01*
X132285500Y-79516830D01*
X132300063Y-79472748D01*
X132338018Y-79446016D01*
X132394727Y-79428814D01*
X132568538Y-79335910D01*
X132720883Y-79210883D01*
X132845910Y-79058538D01*
X132938814Y-78884727D01*
X132996024Y-78696132D01*
X133015341Y-78500000D01*
X132996024Y-78303868D01*
X132938814Y-78115273D01*
X132845910Y-77941462D01*
X132720883Y-77789117D01*
X132568538Y-77664090D01*
X132481632Y-77617637D01*
X132394728Y-77571186D01*
X132206132Y-77513976D01*
X132010000Y-77494659D01*
X131813867Y-77513976D01*
X131625271Y-77571186D01*
X131451462Y-77664090D01*
X131299117Y-77789117D01*
X131174090Y-77941462D01*
X131081186Y-78115271D01*
X131023976Y-78303867D01*
X131004659Y-78499999D01*
X131023976Y-78696132D01*
X131081186Y-78884728D01*
X131121255Y-78959690D01*
X131174090Y-79058538D01*
X131299117Y-79210883D01*
X131451462Y-79335910D01*
X131625273Y-79428814D01*
X131681981Y-79446016D01*
X131719937Y-79472748D01*
X131734500Y-79516830D01*
X131734500Y-85445232D01*
X131728867Y-85473551D01*
X131712826Y-85497558D01*
X130282558Y-86927826D01*
X130258551Y-86943867D01*
X130230232Y-86949500D01*
X130135228Y-86949500D01*
X130010931Y-86985996D01*
X129901951Y-87056033D01*
X129901949Y-87056034D01*
X129901949Y-87056035D01*
X129882198Y-87078829D01*
X129841005Y-87102888D01*
X129793689Y-87096809D01*
X129759915Y-87063119D01*
X129757373Y-87043720D01*
X129753769Y-87044438D01*
X129746922Y-87010018D01*
X129745500Y-86995580D01*
X129745500Y-79516830D01*
X129760063Y-79472748D01*
X129798018Y-79446016D01*
X129854727Y-79428814D01*
X130028538Y-79335910D01*
X130180883Y-79210883D01*
X130305910Y-79058538D01*
X130398814Y-78884727D01*
X130456024Y-78696132D01*
X130475341Y-78500000D01*
X130456024Y-78303868D01*
X130398814Y-78115273D01*
X130305910Y-77941462D01*
X130180883Y-77789117D01*
X130028538Y-77664090D01*
X129941632Y-77617637D01*
X129854728Y-77571186D01*
X129666132Y-77513976D01*
X129470000Y-77494659D01*
X129273867Y-77513976D01*
X129085271Y-77571186D01*
X128911462Y-77664090D01*
X128759117Y-77789117D01*
X128634090Y-77941462D01*
X128541186Y-78115271D01*
X128483976Y-78303867D01*
X128464659Y-78499999D01*
X127935341Y-78499999D01*
X127916024Y-78303868D01*
X127858814Y-78115273D01*
X127765910Y-77941462D01*
X127640883Y-77789117D01*
X127488538Y-77664090D01*
X127401632Y-77617637D01*
X127314728Y-77571186D01*
X127126132Y-77513976D01*
X126930000Y-77494659D01*
X126733867Y-77513976D01*
X126545271Y-77571186D01*
X126371462Y-77664090D01*
X126219117Y-77789117D01*
X126094090Y-77941462D01*
X126001186Y-78115271D01*
X125943976Y-78303867D01*
X125924659Y-78500000D01*
X125395341Y-78500000D01*
X125376024Y-78303868D01*
X125318814Y-78115273D01*
X125225910Y-77941462D01*
X125100883Y-77789117D01*
X124948538Y-77664090D01*
X124861632Y-77617637D01*
X124774728Y-77571186D01*
X124586132Y-77513976D01*
X124390000Y-77494659D01*
X124193867Y-77513976D01*
X124005271Y-77571186D01*
X123831462Y-77664090D01*
X123679117Y-77789117D01*
X123554090Y-77941462D01*
X123461186Y-78115271D01*
X123403976Y-78303867D01*
X123384659Y-78500000D01*
X123403976Y-78696132D01*
X123461186Y-78884728D01*
X123501255Y-78959690D01*
X123554090Y-79058538D01*
X123679117Y-79210883D01*
X123831462Y-79335910D01*
X124005273Y-79428814D01*
X124193868Y-79486024D01*
X124218504Y-79488450D01*
X124259832Y-79506275D01*
X124283189Y-79544753D01*
X124279928Y-79589646D01*
X124251257Y-79624345D01*
X124201953Y-79656031D01*
X124201951Y-79656032D01*
X124201951Y-79656033D01*
X124164753Y-79698961D01*
X124139571Y-79717813D01*
X124108830Y-79724500D01*
X117334416Y-79724500D01*
X117319980Y-79723078D01*
X117317433Y-79722571D01*
X117300000Y-79719103D01*
X117282566Y-79722571D01*
X117280019Y-79723078D01*
X117280009Y-79723079D01*
X117173645Y-79744235D01*
X117155624Y-79765127D01*
X117128240Y-79783423D01*
X117128239Y-79783426D01*
X117101375Y-79801376D01*
X117090054Y-79818318D01*
X117080853Y-79829529D01*
X112307558Y-84602826D01*
X112283551Y-84618867D01*
X112255232Y-84624500D01*
X97344768Y-84624500D01*
X97316449Y-84618867D01*
X97292442Y-84602826D01*
X95889616Y-83200000D01*
X102844867Y-83200000D01*
X102863302Y-83328225D01*
X102917117Y-83446062D01*
X102917118Y-83446063D01*
X103001951Y-83543967D01*
X103110931Y-83614004D01*
X103235228Y-83650500D01*
X103364770Y-83650500D01*
X103364772Y-83650500D01*
X103489069Y-83614004D01*
X103565322Y-83564999D01*
X109509867Y-83564999D01*
X109528302Y-83693225D01*
X109582117Y-83811062D01*
X109582118Y-83811063D01*
X109666951Y-83908967D01*
X109775931Y-83979004D01*
X109900228Y-84015500D01*
X110029770Y-84015500D01*
X110029772Y-84015500D01*
X110154069Y-83979004D01*
X110263049Y-83908967D01*
X110347882Y-83811063D01*
X110401697Y-83693226D01*
X110420133Y-83565000D01*
X110420132Y-83564999D01*
X110421647Y-83554468D01*
X110423457Y-83554728D01*
X110424601Y-83541527D01*
X110442531Y-83512438D01*
X111859289Y-82095680D01*
X111871641Y-82086795D01*
X111874226Y-82083958D01*
X111874228Y-82083958D01*
X111906260Y-82048819D01*
X111908578Y-82046391D01*
X111922174Y-82032797D01*
X111923218Y-82031272D01*
X111929585Y-82023234D01*
X111949915Y-82000934D01*
X111949914Y-82000934D01*
X111949916Y-82000933D01*
X111954515Y-81989058D01*
X111962463Y-81973980D01*
X111969656Y-81963481D01*
X111976565Y-81934106D01*
X111979597Y-81924314D01*
X111990500Y-81896173D01*
X111990500Y-81883447D01*
X111992466Y-81866502D01*
X111992506Y-81866332D01*
X111995379Y-81854119D01*
X111991209Y-81824233D01*
X111990500Y-81814009D01*
X111990500Y-79509246D01*
X112005063Y-79465164D01*
X112043019Y-79438432D01*
X112074727Y-79428814D01*
X112248538Y-79335910D01*
X112400883Y-79210883D01*
X112525910Y-79058538D01*
X112618814Y-78884727D01*
X112676024Y-78696132D01*
X112695341Y-78500000D01*
X113224659Y-78500000D01*
X113243976Y-78696132D01*
X113301186Y-78884728D01*
X113341255Y-78959690D01*
X113394090Y-79058538D01*
X113519117Y-79210883D01*
X113671462Y-79335910D01*
X113845273Y-79428814D01*
X114033868Y-79486024D01*
X114230000Y-79505341D01*
X114426132Y-79486024D01*
X114614727Y-79428814D01*
X114788538Y-79335910D01*
X114940883Y-79210883D01*
X115065910Y-79058538D01*
X115158814Y-78884727D01*
X115216024Y-78696132D01*
X115235341Y-78500000D01*
X115764659Y-78500000D01*
X115783976Y-78696132D01*
X115841186Y-78884728D01*
X115881255Y-78959690D01*
X115934090Y-79058538D01*
X116059117Y-79210883D01*
X116211462Y-79335910D01*
X116385273Y-79428814D01*
X116573868Y-79486024D01*
X116770000Y-79505341D01*
X116966132Y-79486024D01*
X117154727Y-79428814D01*
X117328538Y-79335910D01*
X117480883Y-79210883D01*
X117605910Y-79058538D01*
X117698814Y-78884727D01*
X117756024Y-78696132D01*
X117775341Y-78500000D01*
X118304659Y-78500000D01*
X118323976Y-78696132D01*
X118381186Y-78884728D01*
X118421255Y-78959690D01*
X118474090Y-79058538D01*
X118599117Y-79210883D01*
X118751462Y-79335910D01*
X118925273Y-79428814D01*
X119113868Y-79486024D01*
X119310000Y-79505341D01*
X119506132Y-79486024D01*
X119694727Y-79428814D01*
X119868538Y-79335910D01*
X120020883Y-79210883D01*
X120145910Y-79058538D01*
X120238814Y-78884727D01*
X120296024Y-78696132D01*
X120315341Y-78500000D01*
X120844659Y-78500000D01*
X120863976Y-78696132D01*
X120921186Y-78884728D01*
X120961255Y-78959690D01*
X121014090Y-79058538D01*
X121139117Y-79210883D01*
X121291462Y-79335910D01*
X121465273Y-79428814D01*
X121653868Y-79486024D01*
X121850000Y-79505341D01*
X122046132Y-79486024D01*
X122234727Y-79428814D01*
X122408538Y-79335910D01*
X122560883Y-79210883D01*
X122685910Y-79058538D01*
X122778814Y-78884727D01*
X122836024Y-78696132D01*
X122855341Y-78500000D01*
X122836024Y-78303868D01*
X122778814Y-78115273D01*
X122685910Y-77941462D01*
X122560883Y-77789117D01*
X122408538Y-77664090D01*
X122321632Y-77617637D01*
X122234728Y-77571186D01*
X122046132Y-77513976D01*
X121850000Y-77494659D01*
X121653867Y-77513976D01*
X121465271Y-77571186D01*
X121291462Y-77664090D01*
X121139117Y-77789117D01*
X121014090Y-77941462D01*
X120921186Y-78115271D01*
X120863976Y-78303867D01*
X120844659Y-78500000D01*
X120315341Y-78500000D01*
X120296024Y-78303868D01*
X120238814Y-78115273D01*
X120145910Y-77941462D01*
X120020883Y-77789117D01*
X119868538Y-77664090D01*
X119781632Y-77617637D01*
X119694728Y-77571186D01*
X119506132Y-77513976D01*
X119310000Y-77494659D01*
X119113867Y-77513976D01*
X118925271Y-77571186D01*
X118751462Y-77664090D01*
X118599117Y-77789117D01*
X118474090Y-77941462D01*
X118381186Y-78115271D01*
X118323976Y-78303867D01*
X118304659Y-78500000D01*
X117775341Y-78500000D01*
X117756024Y-78303868D01*
X117698814Y-78115273D01*
X117605910Y-77941462D01*
X117480883Y-77789117D01*
X117328538Y-77664090D01*
X117241632Y-77617637D01*
X117154728Y-77571186D01*
X116966132Y-77513976D01*
X116770000Y-77494659D01*
X116573867Y-77513976D01*
X116385271Y-77571186D01*
X116211462Y-77664090D01*
X116059117Y-77789117D01*
X115934090Y-77941462D01*
X115841186Y-78115271D01*
X115783976Y-78303867D01*
X115764659Y-78500000D01*
X115235341Y-78500000D01*
X115216024Y-78303868D01*
X115158814Y-78115273D01*
X115065910Y-77941462D01*
X114940883Y-77789117D01*
X114788538Y-77664090D01*
X114701632Y-77617637D01*
X114614728Y-77571186D01*
X114426132Y-77513976D01*
X114230000Y-77494659D01*
X114033867Y-77513976D01*
X113845271Y-77571186D01*
X113671462Y-77664090D01*
X113519117Y-77789117D01*
X113394090Y-77941462D01*
X113301186Y-78115271D01*
X113243976Y-78303867D01*
X113224659Y-78500000D01*
X112695341Y-78500000D01*
X112676024Y-78303868D01*
X112618814Y-78115273D01*
X112525910Y-77941462D01*
X112400883Y-77789117D01*
X112248538Y-77664090D01*
X112161632Y-77617637D01*
X112074728Y-77571186D01*
X111886132Y-77513976D01*
X111690000Y-77494659D01*
X111493867Y-77513976D01*
X111305271Y-77571186D01*
X111131462Y-77664090D01*
X110979117Y-77789117D01*
X110854090Y-77941462D01*
X110761186Y-78115271D01*
X110703976Y-78303867D01*
X110684659Y-78500000D01*
X110703976Y-78696132D01*
X110761186Y-78884728D01*
X110801255Y-78959690D01*
X110854090Y-79058538D01*
X110979117Y-79210883D01*
X111131462Y-79335910D01*
X111244729Y-79396452D01*
X111305272Y-79428814D01*
X111323636Y-79434384D01*
X111336980Y-79438432D01*
X111374937Y-79465164D01*
X111389500Y-79509246D01*
X111389500Y-81684876D01*
X111383867Y-81713195D01*
X111367826Y-81737202D01*
X110012203Y-83092826D01*
X109988196Y-83108867D01*
X109959877Y-83114500D01*
X109900228Y-83114500D01*
X109775930Y-83150996D01*
X109775931Y-83150996D01*
X109666951Y-83221033D01*
X109582117Y-83318937D01*
X109528302Y-83436774D01*
X109509867Y-83564999D01*
X103565322Y-83564999D01*
X103598049Y-83543967D01*
X103613582Y-83526040D01*
X103638768Y-83507187D01*
X103669508Y-83500500D01*
X104388912Y-83500500D01*
X104403932Y-83502950D01*
X104407764Y-83502772D01*
X104407765Y-83502773D01*
X104455227Y-83500578D01*
X104458643Y-83500500D01*
X104477840Y-83500500D01*
X104477844Y-83500500D01*
X104479664Y-83500159D01*
X104489843Y-83498977D01*
X104519992Y-83497585D01*
X104531636Y-83492442D01*
X104547918Y-83487400D01*
X104560433Y-83485061D01*
X104586093Y-83469172D01*
X104595145Y-83464401D01*
X104622765Y-83452206D01*
X104631766Y-83443203D01*
X104645131Y-83432618D01*
X104655952Y-83425919D01*
X104674144Y-83401827D01*
X104680857Y-83394112D01*
X108648842Y-79426127D01*
X108690309Y-79405256D01*
X108736050Y-79413193D01*
X108745749Y-79418378D01*
X108765270Y-79428813D01*
X108765272Y-79428813D01*
X108765273Y-79428814D01*
X108953868Y-79486024D01*
X109150000Y-79505341D01*
X109346132Y-79486024D01*
X109534727Y-79428814D01*
X109708538Y-79335910D01*
X109860883Y-79210883D01*
X109985910Y-79058538D01*
X110078814Y-78884727D01*
X110136024Y-78696132D01*
X110155341Y-78500000D01*
X110136024Y-78303868D01*
X110078814Y-78115273D01*
X109985910Y-77941462D01*
X109860883Y-77789117D01*
X109708538Y-77664090D01*
X109621632Y-77617637D01*
X109534728Y-77571186D01*
X109346132Y-77513976D01*
X109150000Y-77494659D01*
X108953867Y-77513976D01*
X108765271Y-77571186D01*
X108591462Y-77664090D01*
X108439117Y-77789117D01*
X108314090Y-77941462D01*
X108221186Y-78115271D01*
X108163976Y-78303867D01*
X108144659Y-78500000D01*
X108163976Y-78696132D01*
X108221186Y-78884728D01*
X108236805Y-78913948D01*
X108244742Y-78959690D01*
X108223869Y-79001158D01*
X104347203Y-82877826D01*
X104323196Y-82893867D01*
X104294877Y-82899500D01*
X103669508Y-82899500D01*
X103638768Y-82892813D01*
X103613583Y-82873960D01*
X103608876Y-82868528D01*
X103598049Y-82856033D01*
X103489069Y-82785996D01*
X103364772Y-82749500D01*
X103235228Y-82749500D01*
X103110930Y-82785996D01*
X103110931Y-82785996D01*
X103001951Y-82856033D01*
X102917117Y-82953937D01*
X102863302Y-83071774D01*
X102844867Y-83200000D01*
X95889616Y-83200000D01*
X95273089Y-82583473D01*
X95255202Y-82554515D01*
X95252168Y-82520618D01*
X95255133Y-82500000D01*
X95236697Y-82371774D01*
X95182882Y-82253937D01*
X95098049Y-82156033D01*
X94989069Y-82085996D01*
X94864772Y-82049500D01*
X94735228Y-82049500D01*
X94617872Y-82083958D01*
X94610931Y-82085996D01*
X94501951Y-82156033D01*
X94417117Y-82253937D01*
X94363302Y-82371774D01*
X94344867Y-82500000D01*
X94363302Y-82628225D01*
X94417117Y-82746062D01*
X94417118Y-82746063D01*
X94501951Y-82843967D01*
X94610931Y-82914004D01*
X94735228Y-82950500D01*
X94830232Y-82950500D01*
X94858551Y-82956133D01*
X94882558Y-82972174D01*
X96980854Y-85070470D01*
X96990052Y-85081677D01*
X97001376Y-85098624D01*
X97024376Y-85113992D01*
X97024378Y-85113994D01*
X97092503Y-85159514D01*
X97092506Y-85159516D01*
X97199998Y-85180897D01*
X97199999Y-85180896D01*
X97200000Y-85180897D01*
X97219985Y-85176921D01*
X97234421Y-85175500D01*
X112365580Y-85175500D01*
X112380015Y-85176921D01*
X112400000Y-85180897D01*
X112427132Y-85175500D01*
X112427133Y-85175500D01*
X112507495Y-85159515D01*
X112559898Y-85124500D01*
X112562027Y-85123078D01*
X112566998Y-85119755D01*
X112575622Y-85113994D01*
X112575622Y-85113993D01*
X112583634Y-85108640D01*
X112583635Y-85108638D01*
X112598624Y-85098624D01*
X112609947Y-85081676D01*
X112619141Y-85070473D01*
X117392441Y-80297174D01*
X117416449Y-80281133D01*
X117444768Y-80275500D01*
X118570611Y-80275500D01*
X118600000Y-80284414D01*
X118629389Y-80275500D01*
X124108830Y-80275500D01*
X124139561Y-80282183D01*
X124164740Y-80301022D01*
X124165610Y-80302026D01*
X124182942Y-80339953D01*
X124177014Y-80381231D01*
X124149709Y-80412750D01*
X124109697Y-80424500D01*
X118634416Y-80424500D01*
X118619981Y-80423078D01*
X118614950Y-80422077D01*
X118600000Y-80414085D01*
X118585049Y-80422077D01*
X118580019Y-80423078D01*
X118580008Y-80423079D01*
X118473645Y-80444235D01*
X118455624Y-80465127D01*
X118428240Y-80483423D01*
X118428239Y-80483426D01*
X118401375Y-80501376D01*
X118390054Y-80518318D01*
X118380853Y-80529529D01*
X112429529Y-86480853D01*
X112418318Y-86490054D01*
X112401375Y-86501375D01*
X112386005Y-86524379D01*
X112372917Y-86543967D01*
X112372916Y-86543968D01*
X112344533Y-86586445D01*
X112335332Y-86597657D01*
X112334523Y-86598465D01*
X112336105Y-86614524D01*
X112319102Y-86699999D01*
X112323078Y-86719982D01*
X112324500Y-86734420D01*
X112324500Y-93655232D01*
X112318867Y-93683551D01*
X112302826Y-93707558D01*
X110207558Y-95802826D01*
X110183551Y-95818867D01*
X110155232Y-95824500D01*
X103234416Y-95824500D01*
X103219980Y-95823078D01*
X103217433Y-95822571D01*
X103200000Y-95819103D01*
X103182566Y-95822571D01*
X103180019Y-95823078D01*
X103180009Y-95823079D01*
X103089432Y-95841094D01*
X103083376Y-95846584D01*
X103028240Y-95883423D01*
X103028239Y-95883426D01*
X103001375Y-95901376D01*
X102990054Y-95918318D01*
X102980853Y-95929529D01*
X101419777Y-97490605D01*
X101374708Y-97511922D01*
X101353872Y-97513975D01*
X101353869Y-97513975D01*
X101353868Y-97513976D01*
X101310103Y-97527252D01*
X101165271Y-97571186D01*
X100991462Y-97664090D01*
X100839117Y-97789117D01*
X100714090Y-97941462D01*
X100621186Y-98115271D01*
X100563976Y-98303867D01*
X100544659Y-98499999D01*
X100563976Y-98696132D01*
X100621186Y-98884728D01*
X100667638Y-98971632D01*
X100714090Y-99058538D01*
X100839117Y-99210883D01*
X100991462Y-99335910D01*
X101165273Y-99428814D01*
X101353868Y-99486024D01*
X101550000Y-99505341D01*
X101746132Y-99486024D01*
X101934727Y-99428814D01*
X102108538Y-99335910D01*
X102260883Y-99210883D01*
X102385910Y-99058538D01*
X102478814Y-98884727D01*
X102536024Y-98696132D01*
X102555341Y-98500000D01*
X102536024Y-98303868D01*
X102478814Y-98115273D01*
X102385910Y-97941462D01*
X102260883Y-97789117D01*
X102126053Y-97678465D01*
X102102928Y-97645052D01*
X102100934Y-97604461D01*
X102120673Y-97568941D01*
X103292441Y-96397174D01*
X103316449Y-96381133D01*
X103344768Y-96375500D01*
X105447039Y-96375500D01*
X105485083Y-96386028D01*
X105512302Y-96414618D01*
X105520950Y-96453133D01*
X105508566Y-96490614D01*
X105490054Y-96518317D01*
X105480853Y-96529529D01*
X104478829Y-97531553D01*
X104444484Y-97551009D01*
X104405023Y-97550041D01*
X104286132Y-97513976D01*
X104090000Y-97494659D01*
X104089999Y-97494659D01*
X103893867Y-97513976D01*
X103705271Y-97571186D01*
X103531462Y-97664090D01*
X103379117Y-97789117D01*
X103254090Y-97941462D01*
X103161186Y-98115271D01*
X103103976Y-98303867D01*
X103084659Y-98499999D01*
X103103976Y-98696132D01*
X103161186Y-98884728D01*
X103207638Y-98971632D01*
X103254090Y-99058538D01*
X103379117Y-99210883D01*
X103531462Y-99335910D01*
X103705273Y-99428814D01*
X103893868Y-99486024D01*
X104090000Y-99505341D01*
X104286132Y-99486024D01*
X104474727Y-99428814D01*
X104648538Y-99335910D01*
X104800883Y-99210883D01*
X104925910Y-99058538D01*
X105018814Y-98884727D01*
X105076024Y-98696132D01*
X105095341Y-98500000D01*
X105095341Y-98499999D01*
X105624659Y-98499999D01*
X105643976Y-98696132D01*
X105701186Y-98884728D01*
X105747638Y-98971632D01*
X105794090Y-99058538D01*
X105919117Y-99210883D01*
X106071462Y-99335910D01*
X106245273Y-99428814D01*
X106433868Y-99486024D01*
X106630000Y-99505341D01*
X106826132Y-99486024D01*
X107014727Y-99428814D01*
X107188538Y-99335910D01*
X107340883Y-99210883D01*
X107465910Y-99058538D01*
X107558814Y-98884727D01*
X107616024Y-98696132D01*
X107635341Y-98500000D01*
X107635341Y-98499999D01*
X108164659Y-98499999D01*
X108183976Y-98696132D01*
X108241186Y-98884728D01*
X108287638Y-98971632D01*
X108334090Y-99058538D01*
X108459117Y-99210883D01*
X108611462Y-99335910D01*
X108785273Y-99428814D01*
X108973868Y-99486024D01*
X109170000Y-99505341D01*
X109366132Y-99486024D01*
X109554727Y-99428814D01*
X109728538Y-99335910D01*
X109880883Y-99210883D01*
X110005910Y-99058538D01*
X110098814Y-98884727D01*
X110156024Y-98696132D01*
X110175341Y-98500000D01*
X110156024Y-98303868D01*
X110098814Y-98115273D01*
X110005910Y-97941462D01*
X109880883Y-97789117D01*
X109728538Y-97664090D01*
X109606988Y-97599120D01*
X109554728Y-97571186D01*
X109366132Y-97513976D01*
X109170000Y-97494659D01*
X108973867Y-97513976D01*
X108785271Y-97571186D01*
X108611462Y-97664090D01*
X108459117Y-97789117D01*
X108334090Y-97941462D01*
X108241186Y-98115271D01*
X108183976Y-98303867D01*
X108164659Y-98499999D01*
X107635341Y-98499999D01*
X107616024Y-98303868D01*
X107558814Y-98115273D01*
X107465910Y-97941462D01*
X107340883Y-97789117D01*
X107188538Y-97664090D01*
X107066988Y-97599120D01*
X107014728Y-97571186D01*
X106826132Y-97513976D01*
X106630000Y-97494659D01*
X106433867Y-97513976D01*
X106245271Y-97571186D01*
X106071462Y-97664090D01*
X105919117Y-97789117D01*
X105794090Y-97941462D01*
X105701186Y-98115271D01*
X105643976Y-98303867D01*
X105624659Y-98499999D01*
X105095341Y-98499999D01*
X105076024Y-98303868D01*
X105018814Y-98115273D01*
X104925910Y-97941462D01*
X104925908Y-97941459D01*
X104924696Y-97939192D01*
X104916759Y-97893450D01*
X104937630Y-97851984D01*
X105792441Y-96997174D01*
X105816449Y-96981133D01*
X105844768Y-96975500D01*
X110865580Y-96975500D01*
X110880015Y-96976921D01*
X110900000Y-96980897D01*
X110927132Y-96975500D01*
X110927133Y-96975500D01*
X111007495Y-96959515D01*
X111058695Y-96925304D01*
X111075622Y-96913994D01*
X111075622Y-96913993D01*
X111083636Y-96908639D01*
X111083639Y-96908636D01*
X111098624Y-96898624D01*
X111109948Y-96881676D01*
X111119141Y-96870474D01*
X113298174Y-94691440D01*
X113336063Y-94671189D01*
X113378819Y-94675400D01*
X113412029Y-94702655D01*
X113424500Y-94743767D01*
X113424500Y-96365232D01*
X113418867Y-96393551D01*
X113402826Y-96417558D01*
X112234198Y-97586184D01*
X112192730Y-97607057D01*
X112146989Y-97599120D01*
X112094730Y-97571187D01*
X112087319Y-97568939D01*
X111906132Y-97513976D01*
X111710000Y-97494659D01*
X111513867Y-97513976D01*
X111325271Y-97571186D01*
X111151462Y-97664090D01*
X110999117Y-97789117D01*
X110874090Y-97941462D01*
X110781186Y-98115271D01*
X110723976Y-98303867D01*
X110704659Y-98499999D01*
X110723976Y-98696132D01*
X110781186Y-98884728D01*
X110827638Y-98971632D01*
X110874090Y-99058538D01*
X110999117Y-99210883D01*
X111151462Y-99335910D01*
X111325273Y-99428814D01*
X111513868Y-99486024D01*
X111710000Y-99505341D01*
X111906132Y-99486024D01*
X112094727Y-99428814D01*
X112268538Y-99335910D01*
X112420883Y-99210883D01*
X112545910Y-99058538D01*
X112638814Y-98884727D01*
X112696024Y-98696132D01*
X112715341Y-98500000D01*
X112696024Y-98303868D01*
X112638814Y-98115273D01*
X112610877Y-98063008D01*
X112602941Y-98017268D01*
X112623812Y-97975802D01*
X113848174Y-96751441D01*
X113886063Y-96731189D01*
X113928819Y-96735400D01*
X113962029Y-96762655D01*
X113974500Y-96803767D01*
X113974500Y-97483170D01*
X113959937Y-97527252D01*
X113921981Y-97553983D01*
X113900628Y-97560460D01*
X113865271Y-97571186D01*
X113691462Y-97664090D01*
X113539117Y-97789117D01*
X113414090Y-97941462D01*
X113321186Y-98115271D01*
X113263976Y-98303867D01*
X113244659Y-98499999D01*
X113263976Y-98696132D01*
X113321186Y-98884728D01*
X113367638Y-98971632D01*
X113414090Y-99058538D01*
X113539117Y-99210883D01*
X113691462Y-99335910D01*
X113865273Y-99428814D01*
X114053868Y-99486024D01*
X114250000Y-99505341D01*
X114446132Y-99486024D01*
X114634727Y-99428814D01*
X114808538Y-99335910D01*
X114960883Y-99210883D01*
X115085910Y-99058538D01*
X115178814Y-98884727D01*
X115236024Y-98696132D01*
X115255341Y-98500000D01*
X115236024Y-98303868D01*
X115178814Y-98115273D01*
X115085910Y-97941462D01*
X114960883Y-97789117D01*
X114808538Y-97664090D01*
X114686988Y-97599120D01*
X114634728Y-97571186D01*
X114607465Y-97562916D01*
X114578018Y-97553983D01*
X114540063Y-97527252D01*
X114525500Y-97483170D01*
X114525500Y-96803768D01*
X114537971Y-96762656D01*
X114571181Y-96735401D01*
X114613937Y-96731190D01*
X114651826Y-96751442D01*
X115876184Y-97975800D01*
X115897057Y-98017267D01*
X115889121Y-98063008D01*
X115861186Y-98115271D01*
X115803976Y-98303868D01*
X115784659Y-98499999D01*
X115803976Y-98696132D01*
X115861186Y-98884728D01*
X115907638Y-98971632D01*
X115954090Y-99058538D01*
X116079117Y-99210883D01*
X116231462Y-99335910D01*
X116405273Y-99428814D01*
X116593868Y-99486024D01*
X116790000Y-99505341D01*
X116986132Y-99486024D01*
X117174727Y-99428814D01*
X117348538Y-99335910D01*
X117500883Y-99210883D01*
X117625910Y-99058538D01*
X117718814Y-98884727D01*
X117776024Y-98696132D01*
X117795341Y-98500000D01*
X117776024Y-98303868D01*
X117718814Y-98115273D01*
X117625910Y-97941462D01*
X117500883Y-97789117D01*
X117348538Y-97664090D01*
X117226988Y-97599120D01*
X117174728Y-97571186D01*
X116986132Y-97513976D01*
X116790000Y-97494659D01*
X116593868Y-97513976D01*
X116405271Y-97571186D01*
X116353008Y-97599121D01*
X116307267Y-97607057D01*
X116265800Y-97586184D01*
X114997174Y-96317558D01*
X114981133Y-96293551D01*
X114975500Y-96265232D01*
X114975500Y-94713768D01*
X114987971Y-94672656D01*
X115021181Y-94645401D01*
X115063937Y-94641190D01*
X115101826Y-94661442D01*
X118416184Y-97975800D01*
X118437057Y-98017267D01*
X118429121Y-98063008D01*
X118401186Y-98115271D01*
X118343976Y-98303868D01*
X118324659Y-98499999D01*
X118343976Y-98696132D01*
X118401186Y-98884728D01*
X118447638Y-98971632D01*
X118494090Y-99058538D01*
X118619117Y-99210883D01*
X118771462Y-99335910D01*
X118945273Y-99428814D01*
X119133868Y-99486024D01*
X119330000Y-99505341D01*
X119526132Y-99486024D01*
X119714727Y-99428814D01*
X119888538Y-99335910D01*
X120040883Y-99210883D01*
X120165910Y-99058538D01*
X120258814Y-98884727D01*
X120316024Y-98696132D01*
X120335341Y-98500000D01*
X120335341Y-98499999D01*
X120864659Y-98499999D01*
X120883976Y-98696132D01*
X120941186Y-98884728D01*
X120987637Y-98971632D01*
X121034090Y-99058538D01*
X121159117Y-99210883D01*
X121311462Y-99335910D01*
X121485273Y-99428814D01*
X121673868Y-99486024D01*
X121870000Y-99505341D01*
X122066132Y-99486024D01*
X122254727Y-99428814D01*
X122428538Y-99335910D01*
X122580883Y-99210883D01*
X122705910Y-99058538D01*
X122798814Y-98884727D01*
X122856024Y-98696132D01*
X122875341Y-98500000D01*
X122875341Y-98499999D01*
X123404659Y-98499999D01*
X123423976Y-98696132D01*
X123481186Y-98884728D01*
X123527637Y-98971632D01*
X123574090Y-99058538D01*
X123699117Y-99210883D01*
X123851462Y-99335910D01*
X124025273Y-99428814D01*
X124213868Y-99486024D01*
X124410000Y-99505341D01*
X124606132Y-99486024D01*
X124794727Y-99428814D01*
X124968538Y-99335910D01*
X125120883Y-99210883D01*
X125245910Y-99058538D01*
X125338814Y-98884727D01*
X125396024Y-98696132D01*
X125415341Y-98500000D01*
X125415341Y-98499999D01*
X125944659Y-98499999D01*
X125963976Y-98696132D01*
X126021186Y-98884728D01*
X126067637Y-98971632D01*
X126114090Y-99058538D01*
X126239117Y-99210883D01*
X126391462Y-99335910D01*
X126565273Y-99428814D01*
X126753868Y-99486024D01*
X126950000Y-99505341D01*
X127146132Y-99486024D01*
X127334727Y-99428814D01*
X127508538Y-99335910D01*
X127660883Y-99210883D01*
X127785910Y-99058538D01*
X127878814Y-98884727D01*
X127936024Y-98696132D01*
X127955341Y-98500000D01*
X127955341Y-98499999D01*
X128484659Y-98499999D01*
X128503976Y-98696132D01*
X128561186Y-98884728D01*
X128607637Y-98971632D01*
X128654090Y-99058538D01*
X128779117Y-99210883D01*
X128931462Y-99335910D01*
X129105273Y-99428814D01*
X129293868Y-99486024D01*
X129490000Y-99505341D01*
X129686132Y-99486024D01*
X129874727Y-99428814D01*
X130048538Y-99335910D01*
X130200883Y-99210883D01*
X130325910Y-99058538D01*
X130418814Y-98884727D01*
X130476024Y-98696132D01*
X130495341Y-98500000D01*
X130495341Y-98499999D01*
X131024659Y-98499999D01*
X131043976Y-98696132D01*
X131101186Y-98884728D01*
X131147637Y-98971632D01*
X131194090Y-99058538D01*
X131319117Y-99210883D01*
X131471462Y-99335910D01*
X131645273Y-99428814D01*
X131833868Y-99486024D01*
X132030000Y-99505341D01*
X132226132Y-99486024D01*
X132414727Y-99428814D01*
X132588538Y-99335910D01*
X132740883Y-99210883D01*
X132865910Y-99058538D01*
X132958814Y-98884727D01*
X133016024Y-98696132D01*
X133035341Y-98500000D01*
X133035341Y-98499999D01*
X133564659Y-98499999D01*
X133583976Y-98696132D01*
X133641186Y-98884728D01*
X133687637Y-98971632D01*
X133734090Y-99058538D01*
X133859117Y-99210883D01*
X134011462Y-99335910D01*
X134185273Y-99428814D01*
X134373868Y-99486024D01*
X134570000Y-99505341D01*
X134766132Y-99486024D01*
X134954727Y-99428814D01*
X135128538Y-99335910D01*
X135280883Y-99210883D01*
X135405910Y-99058538D01*
X135498814Y-98884727D01*
X135556024Y-98696132D01*
X135575341Y-98500000D01*
X135556024Y-98303868D01*
X135498814Y-98115273D01*
X135405910Y-97941462D01*
X135280883Y-97789117D01*
X135128538Y-97664090D01*
X135006988Y-97599120D01*
X134954728Y-97571186D01*
X134766132Y-97513976D01*
X134570000Y-97494659D01*
X134373867Y-97513976D01*
X134185271Y-97571186D01*
X134011462Y-97664090D01*
X133859117Y-97789117D01*
X133734090Y-97941462D01*
X133641186Y-98115271D01*
X133583976Y-98303867D01*
X133564659Y-98499999D01*
X133035341Y-98499999D01*
X133016024Y-98303868D01*
X132958814Y-98115273D01*
X132865910Y-97941462D01*
X132740883Y-97789117D01*
X132588538Y-97664090D01*
X132466988Y-97599120D01*
X132414728Y-97571186D01*
X132226132Y-97513976D01*
X132030000Y-97494659D01*
X131833867Y-97513976D01*
X131645271Y-97571186D01*
X131471462Y-97664090D01*
X131319117Y-97789117D01*
X131194090Y-97941462D01*
X131101186Y-98115271D01*
X131043976Y-98303867D01*
X131024659Y-98499999D01*
X130495341Y-98499999D01*
X130476024Y-98303868D01*
X130418814Y-98115273D01*
X130325910Y-97941462D01*
X130200883Y-97789117D01*
X130048538Y-97664090D01*
X129926988Y-97599120D01*
X129874728Y-97571186D01*
X129686132Y-97513976D01*
X129490000Y-97494659D01*
X129293867Y-97513976D01*
X129105271Y-97571186D01*
X128931462Y-97664090D01*
X128779117Y-97789117D01*
X128654090Y-97941462D01*
X128561186Y-98115271D01*
X128503976Y-98303867D01*
X128484659Y-98499999D01*
X127955341Y-98499999D01*
X127936024Y-98303868D01*
X127878814Y-98115273D01*
X127785910Y-97941462D01*
X127660883Y-97789117D01*
X127508538Y-97664090D01*
X127386988Y-97599120D01*
X127334728Y-97571186D01*
X127146132Y-97513976D01*
X126950000Y-97494659D01*
X126753867Y-97513976D01*
X126565271Y-97571186D01*
X126391462Y-97664090D01*
X126239117Y-97789117D01*
X126114090Y-97941462D01*
X126021186Y-98115271D01*
X125963976Y-98303867D01*
X125944659Y-98499999D01*
X125415341Y-98499999D01*
X125396024Y-98303868D01*
X125338814Y-98115273D01*
X125245910Y-97941462D01*
X125120883Y-97789117D01*
X124968538Y-97664090D01*
X124846988Y-97599120D01*
X124794728Y-97571186D01*
X124606132Y-97513976D01*
X124410000Y-97494659D01*
X124213867Y-97513976D01*
X124025271Y-97571186D01*
X123851462Y-97664090D01*
X123699117Y-97789117D01*
X123574090Y-97941462D01*
X123481186Y-98115271D01*
X123423976Y-98303867D01*
X123404659Y-98499999D01*
X122875341Y-98499999D01*
X122856024Y-98303868D01*
X122798814Y-98115273D01*
X122705910Y-97941462D01*
X122580883Y-97789117D01*
X122428538Y-97664090D01*
X122306988Y-97599120D01*
X122254728Y-97571186D01*
X122227465Y-97562916D01*
X122198018Y-97553983D01*
X122160063Y-97527252D01*
X122145500Y-97483170D01*
X122145500Y-97174768D01*
X122151133Y-97146449D01*
X122167174Y-97122442D01*
X126517442Y-92772174D01*
X126541449Y-92756133D01*
X126569768Y-92750500D01*
X126664770Y-92750500D01*
X126664772Y-92750500D01*
X126789069Y-92714004D01*
X126898049Y-92643967D01*
X126982882Y-92546063D01*
X127036697Y-92428226D01*
X127055133Y-92300000D01*
X127036697Y-92171774D01*
X126982882Y-92053937D01*
X126898049Y-91956033D01*
X126789069Y-91885996D01*
X126664772Y-91849500D01*
X126535228Y-91849500D01*
X126410930Y-91885996D01*
X126410931Y-91885996D01*
X126301951Y-91956033D01*
X126217117Y-92053937D01*
X126163302Y-92171774D01*
X126144866Y-92300002D01*
X126147830Y-92320619D01*
X126144796Y-92354518D01*
X126126909Y-92383473D01*
X121699529Y-96810853D01*
X121688318Y-96820054D01*
X121671375Y-96831375D01*
X121656006Y-96854377D01*
X121656006Y-96854378D01*
X121638528Y-96880534D01*
X121638527Y-96880535D01*
X121614533Y-96916445D01*
X121605331Y-96927658D01*
X121604523Y-96928465D01*
X121606105Y-96944524D01*
X121589102Y-97029999D01*
X121593078Y-97049982D01*
X121594500Y-97064420D01*
X121594500Y-97483170D01*
X121579937Y-97527252D01*
X121541981Y-97553983D01*
X121520628Y-97560460D01*
X121485271Y-97571186D01*
X121311462Y-97664090D01*
X121159117Y-97789117D01*
X121034090Y-97941462D01*
X120941186Y-98115271D01*
X120883976Y-98303867D01*
X120864659Y-98499999D01*
X120335341Y-98499999D01*
X120316024Y-98303868D01*
X120258814Y-98115273D01*
X120165910Y-97941462D01*
X120040883Y-97789117D01*
X119888538Y-97664090D01*
X119766988Y-97599120D01*
X119714728Y-97571186D01*
X119526132Y-97513976D01*
X119330000Y-97494659D01*
X119133868Y-97513976D01*
X118945271Y-97571186D01*
X118893008Y-97599121D01*
X118847267Y-97607057D01*
X118805800Y-97586184D01*
X117896442Y-96676826D01*
X117876190Y-96638937D01*
X117880401Y-96596181D01*
X117907656Y-96562971D01*
X117948768Y-96550500D01*
X117964770Y-96550500D01*
X117964772Y-96550500D01*
X118089069Y-96514004D01*
X118198049Y-96443967D01*
X118282882Y-96346063D01*
X118336697Y-96228226D01*
X118355133Y-96100000D01*
X118353574Y-96089158D01*
X118361248Y-96044327D01*
X118393695Y-96012453D01*
X118438656Y-96005578D01*
X118479146Y-96026299D01*
X118602826Y-96149979D01*
X118618867Y-96173986D01*
X118624500Y-96202305D01*
X118624500Y-96402409D01*
X118619834Y-96428269D01*
X118606426Y-96450868D01*
X118517118Y-96553935D01*
X118463302Y-96671774D01*
X118444867Y-96799999D01*
X118463302Y-96928225D01*
X118517117Y-97046062D01*
X118517118Y-97046063D01*
X118601951Y-97143967D01*
X118710931Y-97214004D01*
X118835228Y-97250500D01*
X118964770Y-97250500D01*
X118964772Y-97250500D01*
X119089069Y-97214004D01*
X119198049Y-97143967D01*
X119282882Y-97046063D01*
X119336697Y-96928226D01*
X119355133Y-96800000D01*
X119336697Y-96671774D01*
X119282882Y-96553937D01*
X119282881Y-96553936D01*
X119282881Y-96553935D01*
X119193574Y-96450868D01*
X119180166Y-96428269D01*
X119175500Y-96402409D01*
X119175500Y-96091957D01*
X119176922Y-96077519D01*
X119180897Y-96057536D01*
X119171929Y-96012453D01*
X119159515Y-95950042D01*
X119113994Y-95881915D01*
X119109947Y-95875858D01*
X119109942Y-95875852D01*
X119098624Y-95858913D01*
X119081677Y-95847589D01*
X119070470Y-95838391D01*
X116597174Y-93365095D01*
X116581133Y-93341088D01*
X116575500Y-93312769D01*
X116575500Y-91676136D01*
X116591880Y-91629703D01*
X116633770Y-91603827D01*
X116682623Y-91609963D01*
X116709904Y-91638235D01*
X116710151Y-91638022D01*
X116714142Y-91642628D01*
X116716812Y-91645395D01*
X116717115Y-91646059D01*
X116717117Y-91646061D01*
X116717118Y-91646063D01*
X116801951Y-91743967D01*
X116910931Y-91814004D01*
X117035228Y-91850500D01*
X117164770Y-91850500D01*
X117164772Y-91850500D01*
X117289069Y-91814004D01*
X117398049Y-91743967D01*
X117435246Y-91701038D01*
X117460429Y-91682187D01*
X117491170Y-91675500D01*
X129008830Y-91675500D01*
X129039571Y-91682187D01*
X129064753Y-91701038D01*
X129101951Y-91743967D01*
X129210931Y-91814004D01*
X129335228Y-91850500D01*
X129464770Y-91850500D01*
X129464772Y-91850500D01*
X129589069Y-91814004D01*
X129698049Y-91743967D01*
X129782882Y-91646063D01*
X129836697Y-91528226D01*
X129855133Y-91400000D01*
X129836697Y-91271774D01*
X129782882Y-91153937D01*
X129698049Y-91056033D01*
X129589069Y-90985996D01*
X129464772Y-90949500D01*
X129335228Y-90949500D01*
X129210931Y-90985996D01*
X129101951Y-91056033D01*
X129064753Y-91098961D01*
X129039571Y-91117813D01*
X129008830Y-91124500D01*
X117491170Y-91124500D01*
X117460429Y-91117813D01*
X117435246Y-91098961D01*
X117398049Y-91056033D01*
X117289069Y-90985996D01*
X117164772Y-90949500D01*
X117035228Y-90949500D01*
X116910931Y-90985995D01*
X116910931Y-90985996D01*
X116801951Y-91056033D01*
X116717115Y-91153940D01*
X116716812Y-91154605D01*
X116714142Y-91157371D01*
X116710151Y-91161978D01*
X116709904Y-91161764D01*
X116682623Y-91190037D01*
X116633770Y-91196173D01*
X116591880Y-91170297D01*
X116575500Y-91123864D01*
X116575500Y-89644768D01*
X116581133Y-89616449D01*
X116597174Y-89592442D01*
X116696670Y-89492946D01*
X117130517Y-89059098D01*
X117171003Y-89038379D01*
X117215963Y-89045253D01*
X117248411Y-89077126D01*
X117256087Y-89121956D01*
X117244866Y-89199999D01*
X117263303Y-89328228D01*
X117316522Y-89444759D01*
X117321124Y-89492946D01*
X117294954Y-89533668D01*
X117249210Y-89549500D01*
X117135228Y-89549500D01*
X117016312Y-89584416D01*
X117010931Y-89585996D01*
X116901951Y-89656033D01*
X116817117Y-89753937D01*
X116763302Y-89871774D01*
X116744867Y-90000000D01*
X116763302Y-90128225D01*
X116817117Y-90246062D01*
X116817118Y-90246063D01*
X116901951Y-90343967D01*
X117010931Y-90414004D01*
X117135228Y-90450500D01*
X117264770Y-90450500D01*
X117264772Y-90450500D01*
X117389069Y-90414004D01*
X117498049Y-90343967D01*
X117535246Y-90301038D01*
X117560429Y-90282187D01*
X117591170Y-90275500D01*
X130130845Y-90275500D01*
X130175191Y-90290260D01*
X130201847Y-90328652D01*
X130200179Y-90375360D01*
X130170853Y-90411751D01*
X130167350Y-90414004D01*
X130101951Y-90456033D01*
X130017117Y-90553937D01*
X129963302Y-90671774D01*
X129944867Y-90800000D01*
X129963302Y-90928225D01*
X129976002Y-90956033D01*
X130017118Y-91046063D01*
X130081428Y-91120281D01*
X130094834Y-91142878D01*
X130099500Y-91168738D01*
X130099500Y-93744877D01*
X130093867Y-93773196D01*
X130077826Y-93797203D01*
X128847203Y-95027826D01*
X128823196Y-95043867D01*
X128794877Y-95049500D01*
X128735228Y-95049500D01*
X128610930Y-95085996D01*
X128610931Y-95085996D01*
X128501951Y-95156033D01*
X128417117Y-95253937D01*
X128363302Y-95371774D01*
X128344867Y-95499999D01*
X128363302Y-95628225D01*
X128417117Y-95746062D01*
X128417118Y-95746063D01*
X128501951Y-95843967D01*
X128610931Y-95914004D01*
X128735228Y-95950500D01*
X128864770Y-95950500D01*
X128864772Y-95950500D01*
X128989069Y-95914004D01*
X129098049Y-95843967D01*
X129182882Y-95746063D01*
X129236697Y-95628226D01*
X129255133Y-95500000D01*
X129255132Y-95499999D01*
X129256647Y-95489468D01*
X129258457Y-95489728D01*
X129259601Y-95476527D01*
X129277531Y-95447438D01*
X130569289Y-94155680D01*
X130581641Y-94146795D01*
X130584226Y-94143958D01*
X130584228Y-94143958D01*
X130616260Y-94108819D01*
X130618578Y-94106391D01*
X130632174Y-94092797D01*
X130633218Y-94091272D01*
X130639585Y-94083234D01*
X130659916Y-94060933D01*
X130664514Y-94049063D01*
X130672465Y-94033977D01*
X130679657Y-94023480D01*
X130686568Y-93994094D01*
X130689592Y-93984328D01*
X130700500Y-93956173D01*
X130700500Y-93943448D01*
X130702466Y-93926504D01*
X130705379Y-93914118D01*
X130701210Y-93884234D01*
X130700500Y-93874009D01*
X130700500Y-91168738D01*
X130705166Y-91142878D01*
X130718571Y-91120281D01*
X130782882Y-91046063D01*
X130836697Y-90928226D01*
X130855133Y-90800000D01*
X130836697Y-90671774D01*
X130782882Y-90553937D01*
X130698049Y-90456033D01*
X130629146Y-90411751D01*
X130599821Y-90375360D01*
X130598153Y-90328652D01*
X130624809Y-90290260D01*
X130669155Y-90275500D01*
X131155232Y-90275500D01*
X131183551Y-90281133D01*
X131207558Y-90297174D01*
X131633558Y-90723174D01*
X131653810Y-90761063D01*
X131649599Y-90803819D01*
X131622344Y-90837029D01*
X131581232Y-90849500D01*
X131535228Y-90849500D01*
X131410931Y-90885995D01*
X131410931Y-90885996D01*
X131301951Y-90956033D01*
X131217117Y-91053937D01*
X131163302Y-91171774D01*
X131144867Y-91300000D01*
X131163302Y-91428225D01*
X131217118Y-91546064D01*
X131306426Y-91649132D01*
X131319834Y-91671731D01*
X131324500Y-91697591D01*
X131324500Y-93765580D01*
X131323078Y-93780015D01*
X131319103Y-93800000D01*
X131320606Y-93807558D01*
X131323078Y-93819982D01*
X131323078Y-93819984D01*
X131340485Y-93907495D01*
X131401375Y-93998623D01*
X131418315Y-94009942D01*
X131429529Y-94019145D01*
X132526910Y-95116526D01*
X132544797Y-95145482D01*
X132547831Y-95179382D01*
X132544866Y-95199999D01*
X132563302Y-95328225D01*
X132617117Y-95446062D01*
X132617118Y-95446063D01*
X132701951Y-95543967D01*
X132810931Y-95614004D01*
X132935228Y-95650500D01*
X133064770Y-95650500D01*
X133064772Y-95650500D01*
X133189069Y-95614004D01*
X133298049Y-95543967D01*
X133382882Y-95446063D01*
X133436697Y-95328226D01*
X133455133Y-95200000D01*
X133436697Y-95071774D01*
X133382882Y-94953937D01*
X133298049Y-94856033D01*
X133189069Y-94785996D01*
X133064772Y-94749500D01*
X133064770Y-94749500D01*
X132969768Y-94749500D01*
X132941449Y-94743867D01*
X132917442Y-94727826D01*
X131897174Y-93707558D01*
X131881133Y-93683551D01*
X131875500Y-93655232D01*
X131875500Y-91697591D01*
X131880166Y-91671731D01*
X131893574Y-91649132D01*
X131982881Y-91546064D01*
X131982880Y-91546064D01*
X131982882Y-91546063D01*
X132032687Y-91437005D01*
X132059993Y-91405494D01*
X132100000Y-91393747D01*
X132140007Y-91405494D01*
X132167313Y-91437006D01*
X132217117Y-91546062D01*
X132220529Y-91550000D01*
X132301951Y-91643967D01*
X132410931Y-91714004D01*
X132535228Y-91750500D01*
X132664770Y-91750500D01*
X132664772Y-91750500D01*
X132789069Y-91714004D01*
X132898049Y-91643967D01*
X132982882Y-91546063D01*
X133036697Y-91428226D01*
X133055133Y-91300000D01*
X133036781Y-91172365D01*
X133044458Y-91127534D01*
X133076905Y-91095661D01*
X133121866Y-91088787D01*
X133162355Y-91109508D01*
X135152826Y-93099979D01*
X135168867Y-93123986D01*
X135174500Y-93152305D01*
X135174500Y-93802409D01*
X135169834Y-93828269D01*
X135156426Y-93850868D01*
X135067118Y-93953935D01*
X135013302Y-94071774D01*
X134994867Y-94200000D01*
X135013302Y-94328225D01*
X135067118Y-94446064D01*
X135146052Y-94537159D01*
X135164042Y-94582097D01*
X135150405Y-94628542D01*
X135110974Y-94656620D01*
X135010934Y-94685994D01*
X134901951Y-94756033D01*
X134817117Y-94853937D01*
X134763302Y-94971774D01*
X134744867Y-95100000D01*
X134763302Y-95228225D01*
X134817117Y-95346062D01*
X134817118Y-95346063D01*
X134901951Y-95443967D01*
X135010931Y-95514004D01*
X135135228Y-95550500D01*
X135264770Y-95550500D01*
X135264772Y-95550500D01*
X135389069Y-95514004D01*
X135498049Y-95443967D01*
X135535246Y-95401038D01*
X135560429Y-95382187D01*
X135591170Y-95375500D01*
X135665580Y-95375500D01*
X135680015Y-95376921D01*
X135700000Y-95380897D01*
X135727132Y-95375500D01*
X135727133Y-95375500D01*
X135778420Y-95365298D01*
X135824493Y-95370980D01*
X135858117Y-95402992D01*
X135866054Y-95448734D01*
X135845181Y-95490202D01*
X134632558Y-96702826D01*
X134608551Y-96718867D01*
X134580232Y-96724500D01*
X125644768Y-96724500D01*
X125616449Y-96718867D01*
X125592442Y-96702826D01*
X125073089Y-96183473D01*
X125055202Y-96154515D01*
X125052168Y-96120618D01*
X125055133Y-96100000D01*
X125036697Y-95971774D01*
X124982882Y-95853937D01*
X124898049Y-95756033D01*
X124789069Y-95685996D01*
X124664772Y-95649500D01*
X124535228Y-95649500D01*
X124410930Y-95685996D01*
X124410931Y-95685996D01*
X124301951Y-95756033D01*
X124217117Y-95853937D01*
X124163302Y-95971774D01*
X124144867Y-96100000D01*
X124163302Y-96228225D01*
X124217117Y-96346062D01*
X124217118Y-96346063D01*
X124301951Y-96443967D01*
X124410931Y-96514004D01*
X124535228Y-96550500D01*
X124630232Y-96550500D01*
X124658551Y-96556133D01*
X124682558Y-96572174D01*
X125280854Y-97170470D01*
X125290052Y-97181677D01*
X125301376Y-97198624D01*
X125316365Y-97208639D01*
X125318315Y-97209942D01*
X125318321Y-97209947D01*
X125324378Y-97213994D01*
X125392505Y-97259515D01*
X125480011Y-97276921D01*
X125499999Y-97280897D01*
X125499999Y-97280896D01*
X125500000Y-97280897D01*
X125519984Y-97276921D01*
X125534420Y-97275500D01*
X134690580Y-97275500D01*
X134705015Y-97276921D01*
X134725000Y-97280897D01*
X134752132Y-97275500D01*
X134752133Y-97275500D01*
X134832495Y-97259515D01*
X134878726Y-97228624D01*
X134900622Y-97213994D01*
X134900623Y-97213992D01*
X134923624Y-97198624D01*
X134934947Y-97181676D01*
X134944141Y-97170473D01*
X136670473Y-95444141D01*
X136681681Y-95434944D01*
X136698624Y-95423624D01*
X136759515Y-95332495D01*
X136775500Y-95252133D01*
X136775500Y-95252132D01*
X136780897Y-95225000D01*
X136776921Y-95205015D01*
X136775500Y-95190580D01*
X136775500Y-94774000D01*
X136785414Y-94737000D01*
X136812500Y-94709914D01*
X136849500Y-94700000D01*
X140925500Y-94700000D01*
X140962500Y-94709914D01*
X140989586Y-94737000D01*
X140999500Y-94774000D01*
X140999500Y-99925500D01*
X140989586Y-99962500D01*
X140962500Y-99989586D01*
X140925500Y-99999500D01*
X90074500Y-99999500D01*
X90037500Y-99989586D01*
X90010414Y-99962500D01*
X90000500Y-99925500D01*
X90000500Y-99364820D01*
X95469500Y-99364820D01*
X95478233Y-99408722D01*
X95511496Y-99458504D01*
X95561278Y-99491767D01*
X95605180Y-99500500D01*
X97334819Y-99500500D01*
X97334820Y-99500500D01*
X97378722Y-99491767D01*
X97428504Y-99458504D01*
X97461767Y-99408722D01*
X97470500Y-99364820D01*
X97470500Y-98750000D01*
X98040839Y-98750000D01*
X98081651Y-98884538D01*
X98174506Y-99058256D01*
X98299472Y-99210527D01*
X98451743Y-99335493D01*
X98625461Y-99428348D01*
X98760000Y-99469160D01*
X98760000Y-98750000D01*
X99260000Y-98750000D01*
X99260000Y-99469160D01*
X99394538Y-99428348D01*
X99568256Y-99335493D01*
X99720527Y-99210527D01*
X99845493Y-99058256D01*
X99938348Y-98884538D01*
X99979161Y-98750000D01*
X99260000Y-98750000D01*
X98760000Y-98750000D01*
X98040839Y-98750000D01*
X97470500Y-98750000D01*
X97470500Y-98250000D01*
X98040839Y-98250000D01*
X98760000Y-98250000D01*
X98760000Y-97530839D01*
X99260000Y-97530839D01*
X99260000Y-98250000D01*
X99979160Y-98250000D01*
X99938348Y-98115461D01*
X99845493Y-97941743D01*
X99720527Y-97789472D01*
X99568256Y-97664506D01*
X99394538Y-97571651D01*
X99260000Y-97530839D01*
X98760000Y-97530839D01*
X98625461Y-97571651D01*
X98451743Y-97664506D01*
X98299472Y-97789472D01*
X98174506Y-97941743D01*
X98081651Y-98115461D01*
X98040839Y-98250000D01*
X97470500Y-98250000D01*
X97470500Y-97635180D01*
X97461767Y-97591278D01*
X97428504Y-97541496D01*
X97378722Y-97508233D01*
X97334820Y-97499500D01*
X97334819Y-97499500D01*
X96968768Y-97499500D01*
X96927656Y-97487029D01*
X96900401Y-97453819D01*
X96896190Y-97411063D01*
X96916442Y-97373174D01*
X101492442Y-92797174D01*
X101516449Y-92781133D01*
X101544768Y-92775500D01*
X111108830Y-92775500D01*
X111139571Y-92782187D01*
X111164753Y-92801038D01*
X111201951Y-92843967D01*
X111310931Y-92914004D01*
X111435228Y-92950500D01*
X111564770Y-92950500D01*
X111564772Y-92950500D01*
X111689069Y-92914004D01*
X111798049Y-92843967D01*
X111882882Y-92746063D01*
X111936697Y-92628226D01*
X111955133Y-92500000D01*
X111936697Y-92371774D01*
X111882882Y-92253937D01*
X111798049Y-92156033D01*
X111689069Y-92085996D01*
X111564772Y-92049500D01*
X111435228Y-92049500D01*
X111310931Y-92085996D01*
X111201951Y-92156033D01*
X111164753Y-92198961D01*
X111139571Y-92217813D01*
X111108830Y-92224500D01*
X101434420Y-92224500D01*
X101419984Y-92223078D01*
X101400000Y-92219103D01*
X101399999Y-92219103D01*
X101391190Y-92220855D01*
X101380017Y-92223078D01*
X101380014Y-92223078D01*
X101292504Y-92240485D01*
X101272373Y-92253937D01*
X101272371Y-92253938D01*
X101228240Y-92283423D01*
X101228239Y-92283426D01*
X101201375Y-92301376D01*
X101190054Y-92318318D01*
X101180853Y-92329529D01*
X96299529Y-97210853D01*
X96288319Y-97220053D01*
X96271376Y-97231375D01*
X96214533Y-97316445D01*
X96205332Y-97327657D01*
X96204523Y-97328465D01*
X96206105Y-97344524D01*
X96187126Y-97439937D01*
X96161493Y-97482703D01*
X96114548Y-97499500D01*
X95605180Y-97499500D01*
X95561278Y-97508233D01*
X95511496Y-97541496D01*
X95478233Y-97591278D01*
X95469500Y-97635180D01*
X95469500Y-99364820D01*
X90000500Y-99364820D01*
X90000500Y-92050000D01*
X90504118Y-92050000D01*
X90525901Y-92102588D01*
X90622075Y-92227924D01*
X90747411Y-92324099D01*
X90893367Y-92384555D01*
X91010678Y-92400000D01*
X91250000Y-92400000D01*
X91250000Y-92050000D01*
X91750000Y-92050000D01*
X91750000Y-92400000D01*
X91989322Y-92400000D01*
X92106632Y-92384555D01*
X92252588Y-92324099D01*
X92377924Y-92227925D01*
X92474098Y-92102590D01*
X92495882Y-92050000D01*
X91750000Y-92050000D01*
X91250000Y-92050000D01*
X90504118Y-92050000D01*
X90000500Y-92050000D01*
X90000500Y-91549999D01*
X90504117Y-91549999D01*
X90504118Y-91550000D01*
X91250000Y-91550000D01*
X91250000Y-91200000D01*
X91750000Y-91200000D01*
X91750000Y-91550000D01*
X92495882Y-91550000D01*
X92495882Y-91549999D01*
X92474098Y-91497411D01*
X92377924Y-91372075D01*
X92252588Y-91275900D01*
X92106632Y-91215444D01*
X91989322Y-91200000D01*
X91750000Y-91200000D01*
X91250000Y-91200000D01*
X91010678Y-91200000D01*
X90893367Y-91215444D01*
X90747411Y-91275900D01*
X90622075Y-91372074D01*
X90525901Y-91497409D01*
X90504117Y-91549999D01*
X90000500Y-91549999D01*
X90000500Y-85450000D01*
X90504118Y-85450000D01*
X90525901Y-85502588D01*
X90622075Y-85627924D01*
X90747411Y-85724099D01*
X90893367Y-85784555D01*
X91010678Y-85800000D01*
X91250000Y-85800000D01*
X91250000Y-85450000D01*
X91750000Y-85450000D01*
X91750000Y-85800000D01*
X91989322Y-85800000D01*
X92106632Y-85784555D01*
X92252588Y-85724099D01*
X92377924Y-85627925D01*
X92474098Y-85502590D01*
X92495882Y-85450000D01*
X91750000Y-85450000D01*
X91250000Y-85450000D01*
X90504118Y-85450000D01*
X90000500Y-85450000D01*
X90000500Y-84949999D01*
X90504117Y-84949999D01*
X90504118Y-84950000D01*
X91250000Y-84950000D01*
X91250000Y-84600000D01*
X91750000Y-84600000D01*
X91750000Y-84950000D01*
X92495882Y-84950000D01*
X92495882Y-84949999D01*
X92474098Y-84897411D01*
X92377924Y-84772075D01*
X92252588Y-84675900D01*
X92106632Y-84615444D01*
X91989322Y-84600000D01*
X91750000Y-84600000D01*
X91250000Y-84600000D01*
X91010678Y-84600000D01*
X90893367Y-84615444D01*
X90747411Y-84675900D01*
X90622075Y-84772074D01*
X90525901Y-84897409D01*
X90504117Y-84949999D01*
X90000500Y-84949999D01*
X90000500Y-77074500D01*
X90010414Y-77037500D01*
X90037500Y-77010414D01*
X90074500Y-77000500D01*
X140925500Y-77000500D01*
X140962500Y-77010414D01*
G37*
%TD.AperFunction*%
%TD*%
M02*
