%TF.GenerationSoftware,KiCad,Pcbnew,7.0.1-0*%
%TF.CreationDate,2024-01-09T13:00:13-05:00*%
%TF.ProjectId,nRF52_sandbox,6e524635-325f-4736-916e-64626f782e6b,rev?*%
%TF.SameCoordinates,Original*%
%TF.FileFunction,Paste,Top*%
%TF.FilePolarity,Positive*%
%FSLAX46Y46*%
G04 Gerber Fmt 4.6, Leading zero omitted, Abs format (unit mm)*
G04 Created by KiCad (PCBNEW 7.0.1-0) date 2024-01-09 13:00:13*
%MOMM*%
%LPD*%
G01*
G04 APERTURE LIST*
G04 Aperture macros list*
%AMRoundRect*
0 Rectangle with rounded corners*
0 $1 Rounding radius*
0 $2 $3 $4 $5 $6 $7 $8 $9 X,Y pos of 4 corners*
0 Add a 4 corners polygon primitive as box body*
4,1,4,$2,$3,$4,$5,$6,$7,$8,$9,$2,$3,0*
0 Add four circle primitives for the rounded corners*
1,1,$1+$1,$2,$3*
1,1,$1+$1,$4,$5*
1,1,$1+$1,$6,$7*
1,1,$1+$1,$8,$9*
0 Add four rect primitives between the rounded corners*
20,1,$1+$1,$2,$3,$4,$5,0*
20,1,$1+$1,$4,$5,$6,$7,0*
20,1,$1+$1,$6,$7,$8,$9,0*
20,1,$1+$1,$8,$9,$2,$3,0*%
G04 Aperture macros list end*
%ADD10RoundRect,0.200000X-0.200000X-0.275000X0.200000X-0.275000X0.200000X0.275000X-0.200000X0.275000X0*%
%ADD11RoundRect,0.150000X0.150000X-0.512500X0.150000X0.512500X-0.150000X0.512500X-0.150000X-0.512500X0*%
%ADD12RoundRect,0.079500X0.100500X-0.079500X0.100500X0.079500X-0.100500X0.079500X-0.100500X-0.079500X0*%
%ADD13RoundRect,0.218750X0.256250X-0.218750X0.256250X0.218750X-0.256250X0.218750X-0.256250X-0.218750X0*%
%ADD14RoundRect,0.079500X-0.079500X-0.100500X0.079500X-0.100500X0.079500X0.100500X-0.079500X0.100500X0*%
%ADD15R,0.800000X1.700000*%
%ADD16R,2.790000X0.740000*%
%ADD17R,1.350000X0.400000*%
%ADD18R,1.400000X1.600000*%
%ADD19R,1.900000X1.900000*%
%ADD20RoundRect,0.087500X0.175000X0.087500X-0.175000X0.087500X-0.175000X-0.087500X0.175000X-0.087500X0*%
%ADD21R,0.400000X0.600000*%
%ADD22R,0.600000X0.400000*%
%ADD23R,1.000000X1.800000*%
%ADD24RoundRect,0.079500X0.079500X0.100500X-0.079500X0.100500X-0.079500X-0.100500X0.079500X-0.100500X0*%
%ADD25RoundRect,0.218750X-0.218750X-0.256250X0.218750X-0.256250X0.218750X0.256250X-0.218750X0.256250X0*%
%ADD26RoundRect,0.079500X-0.100500X0.079500X-0.100500X-0.079500X0.100500X-0.079500X0.100500X0.079500X0*%
%ADD27RoundRect,0.218750X0.218750X0.256250X-0.218750X0.256250X-0.218750X-0.256250X0.218750X-0.256250X0*%
G04 APERTURE END LIST*
D10*
%TO.C,R1*%
X92075000Y-79600000D03*
X93725000Y-79600000D03*
%TD*%
D11*
%TO.C,U2*%
X99950000Y-83137500D03*
X100900000Y-83137500D03*
X101850000Y-83137500D03*
X101850000Y-80862500D03*
X99950000Y-80862500D03*
%TD*%
D10*
%TO.C,R4*%
X96925000Y-87500000D03*
X98575000Y-87500000D03*
%TD*%
D12*
%TO.C,C2*%
X123300000Y-81945000D03*
X123300000Y-81255000D03*
%TD*%
D13*
%TO.C,L1*%
X123400000Y-91587500D03*
X123400000Y-90012500D03*
%TD*%
D14*
%TO.C,C5*%
X100055001Y-84500000D03*
X100745001Y-84500000D03*
%TD*%
D15*
%TO.C,SW2*%
X104700000Y-94000000D03*
X107300000Y-94000000D03*
%TD*%
D16*
%TO.C,J2*%
X109965000Y-85960000D03*
X114035000Y-85960000D03*
X109965000Y-87230000D03*
X114035000Y-87230000D03*
X109965000Y-88500000D03*
X114035000Y-88500000D03*
X109965000Y-89770000D03*
X114035000Y-89770000D03*
X109965000Y-91040000D03*
X114035000Y-91040000D03*
%TD*%
D17*
%TO.C,J1*%
X94175000Y-87200000D03*
X94175000Y-87850000D03*
X94175000Y-88500000D03*
X94175000Y-89150000D03*
D18*
X93950000Y-85300000D03*
D19*
X91500000Y-87300000D03*
X91500000Y-89700000D03*
D17*
X94175000Y-89800000D03*
D18*
X93950000Y-91700000D03*
%TD*%
D15*
%TO.C,SW1*%
X100550000Y-94000000D03*
X97950000Y-94000000D03*
%TD*%
D20*
%TO.C,U3*%
X132287500Y-96250000D03*
X132287500Y-95750000D03*
X132287500Y-95250000D03*
X132287500Y-94750000D03*
X129712500Y-94750000D03*
X129712500Y-95250000D03*
X129712500Y-95750000D03*
X129712500Y-96250000D03*
%TD*%
D21*
%TO.C,U1*%
X136550000Y-83850000D03*
X135450000Y-83850000D03*
X134650000Y-83850000D03*
X133050000Y-83850000D03*
X132650000Y-84750000D03*
X132250000Y-83850000D03*
X131850000Y-84750000D03*
X131450000Y-83850000D03*
X131050000Y-84750000D03*
X130650000Y-83850000D03*
X130250000Y-84750000D03*
X129850000Y-83850000D03*
X129450000Y-84750000D03*
X129050000Y-83850000D03*
D22*
X125650000Y-83700000D03*
X125650000Y-84500000D03*
X125650000Y-85300000D03*
X125650000Y-86100000D03*
X126550000Y-86500000D03*
X125650000Y-86900000D03*
X126550000Y-87300000D03*
X125650000Y-87700000D03*
X126550000Y-88100000D03*
X125650000Y-88500000D03*
X126550000Y-88900000D03*
X125650000Y-89300000D03*
X126550000Y-89700000D03*
X125650000Y-90100000D03*
X126550000Y-90500000D03*
X125650000Y-90900000D03*
X125650000Y-91700000D03*
X125650000Y-92500000D03*
X125650000Y-93300000D03*
D21*
X126650000Y-93150000D03*
X127450000Y-93150000D03*
X127850000Y-92250000D03*
X128250000Y-93150000D03*
X128650000Y-92250000D03*
X129050000Y-93150000D03*
X129450000Y-92250000D03*
X129850000Y-93150000D03*
X130250000Y-92250000D03*
X131050000Y-92250000D03*
X131450000Y-93150000D03*
X131850000Y-92250000D03*
X132250000Y-93150000D03*
X132650000Y-92250000D03*
X133050000Y-93150000D03*
X133450000Y-92250000D03*
X134250000Y-92250000D03*
X134650000Y-93150000D03*
X135050000Y-92250000D03*
X135450000Y-93150000D03*
X135850000Y-92250000D03*
X136550000Y-93150000D03*
D22*
X132250000Y-86500000D03*
X132250000Y-87300000D03*
X132250000Y-88100000D03*
X132250000Y-88900000D03*
X132250000Y-89700000D03*
X132250000Y-90500000D03*
%TD*%
D23*
%TO.C,Y1*%
X119325000Y-82100000D03*
X121875000Y-82100000D03*
%TD*%
D10*
%TO.C,R3*%
X96925000Y-89500000D03*
X98575000Y-89500000D03*
%TD*%
%TO.C,R2*%
X137775000Y-81500000D03*
X139425000Y-81500000D03*
%TD*%
D24*
%TO.C,C4*%
X99945000Y-79500000D03*
X99255000Y-79500000D03*
%TD*%
D25*
%TO.C,D1*%
X92112500Y-81300000D03*
X93687500Y-81300000D03*
%TD*%
D12*
%TO.C,C1*%
X98650000Y-81095000D03*
X98650000Y-80405000D03*
%TD*%
D26*
%TO.C,C6*%
X124500000Y-81255000D03*
X124500000Y-81945000D03*
%TD*%
D12*
%TO.C,C3*%
X117900000Y-81945000D03*
X117900000Y-81255000D03*
%TD*%
D27*
%TO.C,D2*%
X136187500Y-81500000D03*
X134612500Y-81500000D03*
%TD*%
M02*
