%TF.GenerationSoftware,KiCad,Pcbnew,7.0.1-0*%
%TF.CreationDate,2024-01-09T13:00:13-05:00*%
%TF.ProjectId,nRF52_sandbox,6e524635-325f-4736-916e-64626f782e6b,rev?*%
%TF.SameCoordinates,Original*%
%TF.FileFunction,Legend,Top*%
%TF.FilePolarity,Positive*%
%FSLAX46Y46*%
G04 Gerber Fmt 4.6, Leading zero omitted, Abs format (unit mm)*
G04 Created by KiCad (PCBNEW 7.0.1-0) date 2024-01-09 13:00:13*
%MOMM*%
%LPD*%
G01*
G04 APERTURE LIST*
G04 Aperture macros list*
%AMRoundRect*
0 Rectangle with rounded corners*
0 $1 Rounding radius*
0 $2 $3 $4 $5 $6 $7 $8 $9 X,Y pos of 4 corners*
0 Add a 4 corners polygon primitive as box body*
4,1,4,$2,$3,$4,$5,$6,$7,$8,$9,$2,$3,0*
0 Add four circle primitives for the rounded corners*
1,1,$1+$1,$2,$3*
1,1,$1+$1,$4,$5*
1,1,$1+$1,$6,$7*
1,1,$1+$1,$8,$9*
0 Add four rect primitives between the rounded corners*
20,1,$1+$1,$2,$3,$4,$5,0*
20,1,$1+$1,$4,$5,$6,$7,0*
20,1,$1+$1,$6,$7,$8,$9,0*
20,1,$1+$1,$8,$9,$2,$3,0*%
G04 Aperture macros list end*
%ADD10C,0.150000*%
%ADD11C,0.100000*%
%ADD12C,0.120000*%
%ADD13C,0.200000*%
%ADD14C,0.127000*%
%ADD15RoundRect,0.200000X-0.200000X-0.275000X0.200000X-0.275000X0.200000X0.275000X-0.200000X0.275000X0*%
%ADD16R,1.700000X1.700000*%
%ADD17O,1.700000X1.700000*%
%ADD18RoundRect,0.150000X0.150000X-0.512500X0.150000X0.512500X-0.150000X0.512500X-0.150000X-0.512500X0*%
%ADD19RoundRect,0.100000X0.100000X-0.130000X0.100000X0.130000X-0.100000X0.130000X-0.100000X-0.130000X0*%
%ADD20RoundRect,0.218750X0.256250X-0.218750X0.256250X0.218750X-0.256250X0.218750X-0.256250X-0.218750X0*%
%ADD21RoundRect,0.100000X-0.130000X-0.100000X0.130000X-0.100000X0.130000X0.100000X-0.130000X0.100000X0*%
%ADD22R,0.800000X1.700000*%
%ADD23RoundRect,0.102000X-1.395000X0.370000X-1.395000X-0.370000X1.395000X-0.370000X1.395000X0.370000X0*%
%ADD24R,1.350000X0.400000*%
%ADD25O,2.004000X1.104000*%
%ADD26RoundRect,0.102000X-0.700000X0.800000X-0.700000X-0.800000X0.700000X-0.800000X0.700000X0.800000X0*%
%ADD27RoundRect,0.102000X-0.950000X0.950000X-0.950000X-0.950000X0.950000X-0.950000X0.950000X0.950000X0*%
%ADD28RoundRect,0.087500X0.175000X0.087500X-0.175000X0.087500X-0.175000X-0.087500X0.175000X-0.087500X0*%
%ADD29R,0.400000X0.600000*%
%ADD30R,0.600000X0.400000*%
%ADD31R,1.000000X1.800000*%
%ADD32RoundRect,0.100000X0.130000X0.100000X-0.130000X0.100000X-0.130000X-0.100000X0.130000X-0.100000X0*%
%ADD33RoundRect,0.218750X-0.218750X-0.256250X0.218750X-0.256250X0.218750X0.256250X-0.218750X0.256250X0*%
%ADD34RoundRect,0.100000X-0.100000X0.130000X-0.100000X-0.130000X0.100000X-0.130000X0.100000X0.130000X0*%
%ADD35RoundRect,0.218750X0.218750X0.256250X-0.218750X0.256250X-0.218750X-0.256250X0.218750X-0.256250X0*%
G04 APERTURE END LIST*
D10*
X108638095Y-94477619D02*
X108638095Y-93477619D01*
X108638095Y-93477619D02*
X108876190Y-93477619D01*
X108876190Y-93477619D02*
X109019047Y-93525238D01*
X109019047Y-93525238D02*
X109114285Y-93620476D01*
X109114285Y-93620476D02*
X109161904Y-93715714D01*
X109161904Y-93715714D02*
X109209523Y-93906190D01*
X109209523Y-93906190D02*
X109209523Y-94049047D01*
X109209523Y-94049047D02*
X109161904Y-94239523D01*
X109161904Y-94239523D02*
X109114285Y-94334761D01*
X109114285Y-94334761D02*
X109019047Y-94430000D01*
X109019047Y-94430000D02*
X108876190Y-94477619D01*
X108876190Y-94477619D02*
X108638095Y-94477619D01*
X109542857Y-93477619D02*
X110209523Y-93477619D01*
X110209523Y-93477619D02*
X109780952Y-94477619D01*
X111304762Y-94430000D02*
X111447619Y-94477619D01*
X111447619Y-94477619D02*
X111685714Y-94477619D01*
X111685714Y-94477619D02*
X111780952Y-94430000D01*
X111780952Y-94430000D02*
X111828571Y-94382380D01*
X111828571Y-94382380D02*
X111876190Y-94287142D01*
X111876190Y-94287142D02*
X111876190Y-94191904D01*
X111876190Y-94191904D02*
X111828571Y-94096666D01*
X111828571Y-94096666D02*
X111780952Y-94049047D01*
X111780952Y-94049047D02*
X111685714Y-94001428D01*
X111685714Y-94001428D02*
X111495238Y-93953809D01*
X111495238Y-93953809D02*
X111400000Y-93906190D01*
X111400000Y-93906190D02*
X111352381Y-93858571D01*
X111352381Y-93858571D02*
X111304762Y-93763333D01*
X111304762Y-93763333D02*
X111304762Y-93668095D01*
X111304762Y-93668095D02*
X111352381Y-93572857D01*
X111352381Y-93572857D02*
X111400000Y-93525238D01*
X111400000Y-93525238D02*
X111495238Y-93477619D01*
X111495238Y-93477619D02*
X111733333Y-93477619D01*
X111733333Y-93477619D02*
X111876190Y-93525238D01*
X112209524Y-93477619D02*
X112447619Y-94477619D01*
X112447619Y-94477619D02*
X112638095Y-93763333D01*
X112638095Y-93763333D02*
X112828571Y-94477619D01*
X112828571Y-94477619D02*
X113066667Y-93477619D01*
X93309523Y-94577619D02*
X92976190Y-94101428D01*
X92738095Y-94577619D02*
X92738095Y-93577619D01*
X92738095Y-93577619D02*
X93119047Y-93577619D01*
X93119047Y-93577619D02*
X93214285Y-93625238D01*
X93214285Y-93625238D02*
X93261904Y-93672857D01*
X93261904Y-93672857D02*
X93309523Y-93768095D01*
X93309523Y-93768095D02*
X93309523Y-93910952D01*
X93309523Y-93910952D02*
X93261904Y-94006190D01*
X93261904Y-94006190D02*
X93214285Y-94053809D01*
X93214285Y-94053809D02*
X93119047Y-94101428D01*
X93119047Y-94101428D02*
X92738095Y-94101428D01*
X93738095Y-94053809D02*
X94071428Y-94053809D01*
X94214285Y-94577619D02*
X93738095Y-94577619D01*
X93738095Y-94577619D02*
X93738095Y-93577619D01*
X93738095Y-93577619D02*
X94214285Y-93577619D01*
X94595238Y-94530000D02*
X94738095Y-94577619D01*
X94738095Y-94577619D02*
X94976190Y-94577619D01*
X94976190Y-94577619D02*
X95071428Y-94530000D01*
X95071428Y-94530000D02*
X95119047Y-94482380D01*
X95119047Y-94482380D02*
X95166666Y-94387142D01*
X95166666Y-94387142D02*
X95166666Y-94291904D01*
X95166666Y-94291904D02*
X95119047Y-94196666D01*
X95119047Y-94196666D02*
X95071428Y-94149047D01*
X95071428Y-94149047D02*
X94976190Y-94101428D01*
X94976190Y-94101428D02*
X94785714Y-94053809D01*
X94785714Y-94053809D02*
X94690476Y-94006190D01*
X94690476Y-94006190D02*
X94642857Y-93958571D01*
X94642857Y-93958571D02*
X94595238Y-93863333D01*
X94595238Y-93863333D02*
X94595238Y-93768095D01*
X94595238Y-93768095D02*
X94642857Y-93672857D01*
X94642857Y-93672857D02*
X94690476Y-93625238D01*
X94690476Y-93625238D02*
X94785714Y-93577619D01*
X94785714Y-93577619D02*
X95023809Y-93577619D01*
X95023809Y-93577619D02*
X95166666Y-93625238D01*
X95595238Y-94053809D02*
X95928571Y-94053809D01*
X96071428Y-94577619D02*
X95595238Y-94577619D01*
X95595238Y-94577619D02*
X95595238Y-93577619D01*
X95595238Y-93577619D02*
X96071428Y-93577619D01*
X96357143Y-93577619D02*
X96928571Y-93577619D01*
X96642857Y-94577619D02*
X96642857Y-93577619D01*
X99625000Y-84500000D02*
X108125000Y-84500000D01*
X108125000Y-92500000D01*
X99625000Y-92500000D01*
X99625000Y-84500000D01*
G36*
X99625000Y-84500000D02*
G01*
X108125000Y-84500000D01*
X108125000Y-92500000D01*
X99625000Y-92500000D01*
X99625000Y-84500000D01*
G37*
X117085714Y-89617619D02*
X117657142Y-89617619D01*
X117371428Y-90617619D02*
X117371428Y-89617619D01*
X118419047Y-90617619D02*
X118419047Y-90093809D01*
X118419047Y-90093809D02*
X118371428Y-89998571D01*
X118371428Y-89998571D02*
X118276190Y-89950952D01*
X118276190Y-89950952D02*
X118085714Y-89950952D01*
X118085714Y-89950952D02*
X117990476Y-89998571D01*
X118419047Y-90570000D02*
X118323809Y-90617619D01*
X118323809Y-90617619D02*
X118085714Y-90617619D01*
X118085714Y-90617619D02*
X117990476Y-90570000D01*
X117990476Y-90570000D02*
X117942857Y-90474761D01*
X117942857Y-90474761D02*
X117942857Y-90379523D01*
X117942857Y-90379523D02*
X117990476Y-90284285D01*
X117990476Y-90284285D02*
X118085714Y-90236666D01*
X118085714Y-90236666D02*
X118323809Y-90236666D01*
X118323809Y-90236666D02*
X118419047Y-90189047D01*
X118895238Y-90617619D02*
X118895238Y-89950952D01*
X118895238Y-90141428D02*
X118942857Y-90046190D01*
X118942857Y-90046190D02*
X118990476Y-89998571D01*
X118990476Y-89998571D02*
X119085714Y-89950952D01*
X119085714Y-89950952D02*
X119180952Y-89950952D01*
X119942857Y-89950952D02*
X119942857Y-90760476D01*
X119942857Y-90760476D02*
X119895238Y-90855714D01*
X119895238Y-90855714D02*
X119847619Y-90903333D01*
X119847619Y-90903333D02*
X119752381Y-90950952D01*
X119752381Y-90950952D02*
X119609524Y-90950952D01*
X119609524Y-90950952D02*
X119514286Y-90903333D01*
X119942857Y-90570000D02*
X119847619Y-90617619D01*
X119847619Y-90617619D02*
X119657143Y-90617619D01*
X119657143Y-90617619D02*
X119561905Y-90570000D01*
X119561905Y-90570000D02*
X119514286Y-90522380D01*
X119514286Y-90522380D02*
X119466667Y-90427142D01*
X119466667Y-90427142D02*
X119466667Y-90141428D01*
X119466667Y-90141428D02*
X119514286Y-90046190D01*
X119514286Y-90046190D02*
X119561905Y-89998571D01*
X119561905Y-89998571D02*
X119657143Y-89950952D01*
X119657143Y-89950952D02*
X119847619Y-89950952D01*
X119847619Y-89950952D02*
X119942857Y-89998571D01*
X120800000Y-90570000D02*
X120704762Y-90617619D01*
X120704762Y-90617619D02*
X120514286Y-90617619D01*
X120514286Y-90617619D02*
X120419048Y-90570000D01*
X120419048Y-90570000D02*
X120371429Y-90474761D01*
X120371429Y-90474761D02*
X120371429Y-90093809D01*
X120371429Y-90093809D02*
X120419048Y-89998571D01*
X120419048Y-89998571D02*
X120514286Y-89950952D01*
X120514286Y-89950952D02*
X120704762Y-89950952D01*
X120704762Y-89950952D02*
X120800000Y-89998571D01*
X120800000Y-89998571D02*
X120847619Y-90093809D01*
X120847619Y-90093809D02*
X120847619Y-90189047D01*
X120847619Y-90189047D02*
X120371429Y-90284285D01*
X121133334Y-89950952D02*
X121514286Y-89950952D01*
X121276191Y-89617619D02*
X121276191Y-90474761D01*
X121276191Y-90474761D02*
X121323810Y-90570000D01*
X121323810Y-90570000D02*
X121419048Y-90617619D01*
X121419048Y-90617619D02*
X121514286Y-90617619D01*
X117085713Y-91713809D02*
X116752380Y-91713809D01*
X116752380Y-92237619D02*
X116752380Y-91237619D01*
X116752380Y-91237619D02*
X117228570Y-91237619D01*
X117990475Y-92190000D02*
X117895237Y-92237619D01*
X117895237Y-92237619D02*
X117704761Y-92237619D01*
X117704761Y-92237619D02*
X117609523Y-92190000D01*
X117609523Y-92190000D02*
X117561904Y-92094761D01*
X117561904Y-92094761D02*
X117561904Y-91713809D01*
X117561904Y-91713809D02*
X117609523Y-91618571D01*
X117609523Y-91618571D02*
X117704761Y-91570952D01*
X117704761Y-91570952D02*
X117895237Y-91570952D01*
X117895237Y-91570952D02*
X117990475Y-91618571D01*
X117990475Y-91618571D02*
X118038094Y-91713809D01*
X118038094Y-91713809D02*
X118038094Y-91809047D01*
X118038094Y-91809047D02*
X117561904Y-91904285D01*
X118895237Y-92237619D02*
X118895237Y-91713809D01*
X118895237Y-91713809D02*
X118847618Y-91618571D01*
X118847618Y-91618571D02*
X118752380Y-91570952D01*
X118752380Y-91570952D02*
X118561904Y-91570952D01*
X118561904Y-91570952D02*
X118466666Y-91618571D01*
X118895237Y-92190000D02*
X118799999Y-92237619D01*
X118799999Y-92237619D02*
X118561904Y-92237619D01*
X118561904Y-92237619D02*
X118466666Y-92190000D01*
X118466666Y-92190000D02*
X118419047Y-92094761D01*
X118419047Y-92094761D02*
X118419047Y-91999523D01*
X118419047Y-91999523D02*
X118466666Y-91904285D01*
X118466666Y-91904285D02*
X118561904Y-91856666D01*
X118561904Y-91856666D02*
X118799999Y-91856666D01*
X118799999Y-91856666D02*
X118895237Y-91809047D01*
X119228571Y-91570952D02*
X119609523Y-91570952D01*
X119371428Y-91237619D02*
X119371428Y-92094761D01*
X119371428Y-92094761D02*
X119419047Y-92190000D01*
X119419047Y-92190000D02*
X119514285Y-92237619D01*
X119514285Y-92237619D02*
X119609523Y-92237619D01*
X119942857Y-92237619D02*
X119942857Y-91237619D01*
X120371428Y-92237619D02*
X120371428Y-91713809D01*
X120371428Y-91713809D02*
X120323809Y-91618571D01*
X120323809Y-91618571D02*
X120228571Y-91570952D01*
X120228571Y-91570952D02*
X120085714Y-91570952D01*
X120085714Y-91570952D02*
X119990476Y-91618571D01*
X119990476Y-91618571D02*
X119942857Y-91666190D01*
X121228571Y-92190000D02*
X121133333Y-92237619D01*
X121133333Y-92237619D02*
X120942857Y-92237619D01*
X120942857Y-92237619D02*
X120847619Y-92190000D01*
X120847619Y-92190000D02*
X120800000Y-92094761D01*
X120800000Y-92094761D02*
X120800000Y-91713809D01*
X120800000Y-91713809D02*
X120847619Y-91618571D01*
X120847619Y-91618571D02*
X120942857Y-91570952D01*
X120942857Y-91570952D02*
X121133333Y-91570952D01*
X121133333Y-91570952D02*
X121228571Y-91618571D01*
X121228571Y-91618571D02*
X121276190Y-91713809D01*
X121276190Y-91713809D02*
X121276190Y-91809047D01*
X121276190Y-91809047D02*
X120800000Y-91904285D01*
X121704762Y-92237619D02*
X121704762Y-91570952D01*
X121704762Y-91761428D02*
X121752381Y-91666190D01*
X121752381Y-91666190D02*
X121800000Y-91618571D01*
X121800000Y-91618571D02*
X121895238Y-91570952D01*
X121895238Y-91570952D02*
X121990476Y-91570952D01*
X115776190Y-93190952D02*
X115776190Y-93857619D01*
X115776190Y-93286190D02*
X115823809Y-93238571D01*
X115823809Y-93238571D02*
X115919047Y-93190952D01*
X115919047Y-93190952D02*
X116061904Y-93190952D01*
X116061904Y-93190952D02*
X116157142Y-93238571D01*
X116157142Y-93238571D02*
X116204761Y-93333809D01*
X116204761Y-93333809D02*
X116204761Y-93857619D01*
X117252380Y-93857619D02*
X116919047Y-93381428D01*
X116680952Y-93857619D02*
X116680952Y-92857619D01*
X116680952Y-92857619D02*
X117061904Y-92857619D01*
X117061904Y-92857619D02*
X117157142Y-92905238D01*
X117157142Y-92905238D02*
X117204761Y-92952857D01*
X117204761Y-92952857D02*
X117252380Y-93048095D01*
X117252380Y-93048095D02*
X117252380Y-93190952D01*
X117252380Y-93190952D02*
X117204761Y-93286190D01*
X117204761Y-93286190D02*
X117157142Y-93333809D01*
X117157142Y-93333809D02*
X117061904Y-93381428D01*
X117061904Y-93381428D02*
X116680952Y-93381428D01*
X118014285Y-93333809D02*
X117680952Y-93333809D01*
X117680952Y-93857619D02*
X117680952Y-92857619D01*
X117680952Y-92857619D02*
X118157142Y-92857619D01*
X119014285Y-92857619D02*
X118538095Y-92857619D01*
X118538095Y-92857619D02*
X118490476Y-93333809D01*
X118490476Y-93333809D02*
X118538095Y-93286190D01*
X118538095Y-93286190D02*
X118633333Y-93238571D01*
X118633333Y-93238571D02*
X118871428Y-93238571D01*
X118871428Y-93238571D02*
X118966666Y-93286190D01*
X118966666Y-93286190D02*
X119014285Y-93333809D01*
X119014285Y-93333809D02*
X119061904Y-93429047D01*
X119061904Y-93429047D02*
X119061904Y-93667142D01*
X119061904Y-93667142D02*
X119014285Y-93762380D01*
X119014285Y-93762380D02*
X118966666Y-93810000D01*
X118966666Y-93810000D02*
X118871428Y-93857619D01*
X118871428Y-93857619D02*
X118633333Y-93857619D01*
X118633333Y-93857619D02*
X118538095Y-93810000D01*
X118538095Y-93810000D02*
X118490476Y-93762380D01*
X119442857Y-92952857D02*
X119490476Y-92905238D01*
X119490476Y-92905238D02*
X119585714Y-92857619D01*
X119585714Y-92857619D02*
X119823809Y-92857619D01*
X119823809Y-92857619D02*
X119919047Y-92905238D01*
X119919047Y-92905238D02*
X119966666Y-92952857D01*
X119966666Y-92952857D02*
X120014285Y-93048095D01*
X120014285Y-93048095D02*
X120014285Y-93143333D01*
X120014285Y-93143333D02*
X119966666Y-93286190D01*
X119966666Y-93286190D02*
X119395238Y-93857619D01*
X119395238Y-93857619D02*
X120014285Y-93857619D01*
X120585714Y-93286190D02*
X120490476Y-93238571D01*
X120490476Y-93238571D02*
X120442857Y-93190952D01*
X120442857Y-93190952D02*
X120395238Y-93095714D01*
X120395238Y-93095714D02*
X120395238Y-93048095D01*
X120395238Y-93048095D02*
X120442857Y-92952857D01*
X120442857Y-92952857D02*
X120490476Y-92905238D01*
X120490476Y-92905238D02*
X120585714Y-92857619D01*
X120585714Y-92857619D02*
X120776190Y-92857619D01*
X120776190Y-92857619D02*
X120871428Y-92905238D01*
X120871428Y-92905238D02*
X120919047Y-92952857D01*
X120919047Y-92952857D02*
X120966666Y-93048095D01*
X120966666Y-93048095D02*
X120966666Y-93095714D01*
X120966666Y-93095714D02*
X120919047Y-93190952D01*
X120919047Y-93190952D02*
X120871428Y-93238571D01*
X120871428Y-93238571D02*
X120776190Y-93286190D01*
X120776190Y-93286190D02*
X120585714Y-93286190D01*
X120585714Y-93286190D02*
X120490476Y-93333809D01*
X120490476Y-93333809D02*
X120442857Y-93381428D01*
X120442857Y-93381428D02*
X120395238Y-93476666D01*
X120395238Y-93476666D02*
X120395238Y-93667142D01*
X120395238Y-93667142D02*
X120442857Y-93762380D01*
X120442857Y-93762380D02*
X120490476Y-93810000D01*
X120490476Y-93810000D02*
X120585714Y-93857619D01*
X120585714Y-93857619D02*
X120776190Y-93857619D01*
X120776190Y-93857619D02*
X120871428Y-93810000D01*
X120871428Y-93810000D02*
X120919047Y-93762380D01*
X120919047Y-93762380D02*
X120966666Y-93667142D01*
X120966666Y-93667142D02*
X120966666Y-93476666D01*
X120966666Y-93476666D02*
X120919047Y-93381428D01*
X120919047Y-93381428D02*
X120871428Y-93333809D01*
X120871428Y-93333809D02*
X120776190Y-93286190D01*
X121823809Y-93190952D02*
X121823809Y-93857619D01*
X121585714Y-92810000D02*
X121347619Y-93524285D01*
X121347619Y-93524285D02*
X121966666Y-93524285D01*
X122538095Y-92857619D02*
X122633333Y-92857619D01*
X122633333Y-92857619D02*
X122728571Y-92905238D01*
X122728571Y-92905238D02*
X122776190Y-92952857D01*
X122776190Y-92952857D02*
X122823809Y-93048095D01*
X122823809Y-93048095D02*
X122871428Y-93238571D01*
X122871428Y-93238571D02*
X122871428Y-93476666D01*
X122871428Y-93476666D02*
X122823809Y-93667142D01*
X122823809Y-93667142D02*
X122776190Y-93762380D01*
X122776190Y-93762380D02*
X122728571Y-93810000D01*
X122728571Y-93810000D02*
X122633333Y-93857619D01*
X122633333Y-93857619D02*
X122538095Y-93857619D01*
X122538095Y-93857619D02*
X122442857Y-93810000D01*
X122442857Y-93810000D02*
X122395238Y-93762380D01*
X122395238Y-93762380D02*
X122347619Y-93667142D01*
X122347619Y-93667142D02*
X122300000Y-93476666D01*
X122300000Y-93476666D02*
X122300000Y-93238571D01*
X122300000Y-93238571D02*
X122347619Y-93048095D01*
X122347619Y-93048095D02*
X122395238Y-92952857D01*
X122395238Y-92952857D02*
X122442857Y-92905238D01*
X122442857Y-92905238D02*
X122538095Y-92857619D01*
X116680952Y-94953809D02*
X117014285Y-94953809D01*
X117157142Y-95477619D02*
X116680952Y-95477619D01*
X116680952Y-95477619D02*
X116680952Y-94477619D01*
X116680952Y-94477619D02*
X117157142Y-94477619D01*
X117490476Y-95477619D02*
X118014285Y-94810952D01*
X117490476Y-94810952D02*
X118014285Y-95477619D01*
X118395238Y-94810952D02*
X118395238Y-95810952D01*
X118395238Y-94858571D02*
X118490476Y-94810952D01*
X118490476Y-94810952D02*
X118680952Y-94810952D01*
X118680952Y-94810952D02*
X118776190Y-94858571D01*
X118776190Y-94858571D02*
X118823809Y-94906190D01*
X118823809Y-94906190D02*
X118871428Y-95001428D01*
X118871428Y-95001428D02*
X118871428Y-95287142D01*
X118871428Y-95287142D02*
X118823809Y-95382380D01*
X118823809Y-95382380D02*
X118776190Y-95430000D01*
X118776190Y-95430000D02*
X118680952Y-95477619D01*
X118680952Y-95477619D02*
X118490476Y-95477619D01*
X118490476Y-95477619D02*
X118395238Y-95430000D01*
X119300000Y-95477619D02*
X119300000Y-94810952D01*
X119300000Y-95001428D02*
X119347619Y-94906190D01*
X119347619Y-94906190D02*
X119395238Y-94858571D01*
X119395238Y-94858571D02*
X119490476Y-94810952D01*
X119490476Y-94810952D02*
X119585714Y-94810952D01*
X120300000Y-95430000D02*
X120204762Y-95477619D01*
X120204762Y-95477619D02*
X120014286Y-95477619D01*
X120014286Y-95477619D02*
X119919048Y-95430000D01*
X119919048Y-95430000D02*
X119871429Y-95334761D01*
X119871429Y-95334761D02*
X119871429Y-94953809D01*
X119871429Y-94953809D02*
X119919048Y-94858571D01*
X119919048Y-94858571D02*
X120014286Y-94810952D01*
X120014286Y-94810952D02*
X120204762Y-94810952D01*
X120204762Y-94810952D02*
X120300000Y-94858571D01*
X120300000Y-94858571D02*
X120347619Y-94953809D01*
X120347619Y-94953809D02*
X120347619Y-95049047D01*
X120347619Y-95049047D02*
X119871429Y-95144285D01*
X120728572Y-95430000D02*
X120823810Y-95477619D01*
X120823810Y-95477619D02*
X121014286Y-95477619D01*
X121014286Y-95477619D02*
X121109524Y-95430000D01*
X121109524Y-95430000D02*
X121157143Y-95334761D01*
X121157143Y-95334761D02*
X121157143Y-95287142D01*
X121157143Y-95287142D02*
X121109524Y-95191904D01*
X121109524Y-95191904D02*
X121014286Y-95144285D01*
X121014286Y-95144285D02*
X120871429Y-95144285D01*
X120871429Y-95144285D02*
X120776191Y-95096666D01*
X120776191Y-95096666D02*
X120728572Y-95001428D01*
X120728572Y-95001428D02*
X120728572Y-94953809D01*
X120728572Y-94953809D02*
X120776191Y-94858571D01*
X120776191Y-94858571D02*
X120871429Y-94810952D01*
X120871429Y-94810952D02*
X121014286Y-94810952D01*
X121014286Y-94810952D02*
X121109524Y-94858571D01*
X121538096Y-95430000D02*
X121633334Y-95477619D01*
X121633334Y-95477619D02*
X121823810Y-95477619D01*
X121823810Y-95477619D02*
X121919048Y-95430000D01*
X121919048Y-95430000D02*
X121966667Y-95334761D01*
X121966667Y-95334761D02*
X121966667Y-95287142D01*
X121966667Y-95287142D02*
X121919048Y-95191904D01*
X121919048Y-95191904D02*
X121823810Y-95144285D01*
X121823810Y-95144285D02*
X121680953Y-95144285D01*
X121680953Y-95144285D02*
X121585715Y-95096666D01*
X121585715Y-95096666D02*
X121538096Y-95001428D01*
X121538096Y-95001428D02*
X121538096Y-94953809D01*
X121538096Y-94953809D02*
X121585715Y-94858571D01*
X121585715Y-94858571D02*
X121680953Y-94810952D01*
X121680953Y-94810952D02*
X121823810Y-94810952D01*
X121823810Y-94810952D02*
X121919048Y-94858571D01*
X104488095Y-82257619D02*
X104488095Y-81257619D01*
X104488095Y-81257619D02*
X104821428Y-81971904D01*
X104821428Y-81971904D02*
X105154761Y-81257619D01*
X105154761Y-81257619D02*
X105154761Y-82257619D01*
X105630952Y-82257619D02*
X105630952Y-81257619D01*
X105630952Y-81257619D02*
X105869047Y-81257619D01*
X105869047Y-81257619D02*
X106011904Y-81305238D01*
X106011904Y-81305238D02*
X106107142Y-81400476D01*
X106107142Y-81400476D02*
X106154761Y-81495714D01*
X106154761Y-81495714D02*
X106202380Y-81686190D01*
X106202380Y-81686190D02*
X106202380Y-81829047D01*
X106202380Y-81829047D02*
X106154761Y-82019523D01*
X106154761Y-82019523D02*
X106107142Y-82114761D01*
X106107142Y-82114761D02*
X106011904Y-82210000D01*
X106011904Y-82210000D02*
X105869047Y-82257619D01*
X105869047Y-82257619D02*
X105630952Y-82257619D01*
X106964285Y-81733809D02*
X107107142Y-81781428D01*
X107107142Y-81781428D02*
X107154761Y-81829047D01*
X107154761Y-81829047D02*
X107202380Y-81924285D01*
X107202380Y-81924285D02*
X107202380Y-82067142D01*
X107202380Y-82067142D02*
X107154761Y-82162380D01*
X107154761Y-82162380D02*
X107107142Y-82210000D01*
X107107142Y-82210000D02*
X107011904Y-82257619D01*
X107011904Y-82257619D02*
X106630952Y-82257619D01*
X106630952Y-82257619D02*
X106630952Y-81257619D01*
X106630952Y-81257619D02*
X106964285Y-81257619D01*
X106964285Y-81257619D02*
X107059523Y-81305238D01*
X107059523Y-81305238D02*
X107107142Y-81352857D01*
X107107142Y-81352857D02*
X107154761Y-81448095D01*
X107154761Y-81448095D02*
X107154761Y-81543333D01*
X107154761Y-81543333D02*
X107107142Y-81638571D01*
X107107142Y-81638571D02*
X107059523Y-81686190D01*
X107059523Y-81686190D02*
X106964285Y-81733809D01*
X106964285Y-81733809D02*
X106630952Y-81733809D01*
X107488095Y-81257619D02*
X108059523Y-81257619D01*
X107773809Y-82257619D02*
X107773809Y-81257619D01*
X108869047Y-81257619D02*
X108392857Y-81257619D01*
X108392857Y-81257619D02*
X108345238Y-81733809D01*
X108345238Y-81733809D02*
X108392857Y-81686190D01*
X108392857Y-81686190D02*
X108488095Y-81638571D01*
X108488095Y-81638571D02*
X108726190Y-81638571D01*
X108726190Y-81638571D02*
X108821428Y-81686190D01*
X108821428Y-81686190D02*
X108869047Y-81733809D01*
X108869047Y-81733809D02*
X108916666Y-81829047D01*
X108916666Y-81829047D02*
X108916666Y-82067142D01*
X108916666Y-82067142D02*
X108869047Y-82162380D01*
X108869047Y-82162380D02*
X108821428Y-82210000D01*
X108821428Y-82210000D02*
X108726190Y-82257619D01*
X108726190Y-82257619D02*
X108488095Y-82257619D01*
X108488095Y-82257619D02*
X108392857Y-82210000D01*
X108392857Y-82210000D02*
X108345238Y-82162380D01*
X109535714Y-81257619D02*
X109630952Y-81257619D01*
X109630952Y-81257619D02*
X109726190Y-81305238D01*
X109726190Y-81305238D02*
X109773809Y-81352857D01*
X109773809Y-81352857D02*
X109821428Y-81448095D01*
X109821428Y-81448095D02*
X109869047Y-81638571D01*
X109869047Y-81638571D02*
X109869047Y-81876666D01*
X109869047Y-81876666D02*
X109821428Y-82067142D01*
X109821428Y-82067142D02*
X109773809Y-82162380D01*
X109773809Y-82162380D02*
X109726190Y-82210000D01*
X109726190Y-82210000D02*
X109630952Y-82257619D01*
X109630952Y-82257619D02*
X109535714Y-82257619D01*
X109535714Y-82257619D02*
X109440476Y-82210000D01*
X109440476Y-82210000D02*
X109392857Y-82162380D01*
X109392857Y-82162380D02*
X109345238Y-82067142D01*
X109345238Y-82067142D02*
X109297619Y-81876666D01*
X109297619Y-81876666D02*
X109297619Y-81638571D01*
X109297619Y-81638571D02*
X109345238Y-81448095D01*
X109345238Y-81448095D02*
X109392857Y-81352857D01*
X109392857Y-81352857D02*
X109440476Y-81305238D01*
X109440476Y-81305238D02*
X109535714Y-81257619D01*
X110964285Y-82352857D02*
X110869047Y-82305238D01*
X110869047Y-82305238D02*
X110773809Y-82210000D01*
X110773809Y-82210000D02*
X110630952Y-82067142D01*
X110630952Y-82067142D02*
X110535714Y-82019523D01*
X110535714Y-82019523D02*
X110440476Y-82019523D01*
X110488095Y-82257619D02*
X110392857Y-82210000D01*
X110392857Y-82210000D02*
X110297619Y-82114761D01*
X110297619Y-82114761D02*
X110250000Y-81924285D01*
X110250000Y-81924285D02*
X110250000Y-81590952D01*
X110250000Y-81590952D02*
X110297619Y-81400476D01*
X110297619Y-81400476D02*
X110392857Y-81305238D01*
X110392857Y-81305238D02*
X110488095Y-81257619D01*
X110488095Y-81257619D02*
X110678571Y-81257619D01*
X110678571Y-81257619D02*
X110773809Y-81305238D01*
X110773809Y-81305238D02*
X110869047Y-81400476D01*
X110869047Y-81400476D02*
X110916666Y-81590952D01*
X110916666Y-81590952D02*
X110916666Y-81924285D01*
X110916666Y-81924285D02*
X110869047Y-82114761D01*
X110869047Y-82114761D02*
X110773809Y-82210000D01*
X110773809Y-82210000D02*
X110678571Y-82257619D01*
X110678571Y-82257619D02*
X110488095Y-82257619D01*
X111345238Y-81876666D02*
X112107143Y-81876666D01*
X113107142Y-82257619D02*
X112535714Y-82257619D01*
X112821428Y-82257619D02*
X112821428Y-81257619D01*
X112821428Y-81257619D02*
X112726190Y-81400476D01*
X112726190Y-81400476D02*
X112630952Y-81495714D01*
X112630952Y-81495714D02*
X112535714Y-81543333D01*
X113535714Y-82257619D02*
X113535714Y-81257619D01*
X113535714Y-81257619D02*
X113869047Y-81971904D01*
X113869047Y-81971904D02*
X114202380Y-81257619D01*
X114202380Y-81257619D02*
X114202380Y-82257619D01*
X114535714Y-81257619D02*
X114869047Y-82257619D01*
X114869047Y-82257619D02*
X115202380Y-81257619D01*
X115488095Y-81352857D02*
X115535714Y-81305238D01*
X115535714Y-81305238D02*
X115630952Y-81257619D01*
X115630952Y-81257619D02*
X115869047Y-81257619D01*
X115869047Y-81257619D02*
X115964285Y-81305238D01*
X115964285Y-81305238D02*
X116011904Y-81352857D01*
X116011904Y-81352857D02*
X116059523Y-81448095D01*
X116059523Y-81448095D02*
X116059523Y-81543333D01*
X116059523Y-81543333D02*
X116011904Y-81686190D01*
X116011904Y-81686190D02*
X115440476Y-82257619D01*
X115440476Y-82257619D02*
X116059523Y-82257619D01*
X105059523Y-83782380D02*
X105011904Y-83830000D01*
X105011904Y-83830000D02*
X104869047Y-83877619D01*
X104869047Y-83877619D02*
X104773809Y-83877619D01*
X104773809Y-83877619D02*
X104630952Y-83830000D01*
X104630952Y-83830000D02*
X104535714Y-83734761D01*
X104535714Y-83734761D02*
X104488095Y-83639523D01*
X104488095Y-83639523D02*
X104440476Y-83449047D01*
X104440476Y-83449047D02*
X104440476Y-83306190D01*
X104440476Y-83306190D02*
X104488095Y-83115714D01*
X104488095Y-83115714D02*
X104535714Y-83020476D01*
X104535714Y-83020476D02*
X104630952Y-82925238D01*
X104630952Y-82925238D02*
X104773809Y-82877619D01*
X104773809Y-82877619D02*
X104869047Y-82877619D01*
X104869047Y-82877619D02*
X105011904Y-82925238D01*
X105011904Y-82925238D02*
X105059523Y-82972857D01*
X105630952Y-83877619D02*
X105535714Y-83830000D01*
X105535714Y-83830000D02*
X105488095Y-83782380D01*
X105488095Y-83782380D02*
X105440476Y-83687142D01*
X105440476Y-83687142D02*
X105440476Y-83401428D01*
X105440476Y-83401428D02*
X105488095Y-83306190D01*
X105488095Y-83306190D02*
X105535714Y-83258571D01*
X105535714Y-83258571D02*
X105630952Y-83210952D01*
X105630952Y-83210952D02*
X105773809Y-83210952D01*
X105773809Y-83210952D02*
X105869047Y-83258571D01*
X105869047Y-83258571D02*
X105916666Y-83306190D01*
X105916666Y-83306190D02*
X105964285Y-83401428D01*
X105964285Y-83401428D02*
X105964285Y-83687142D01*
X105964285Y-83687142D02*
X105916666Y-83782380D01*
X105916666Y-83782380D02*
X105869047Y-83830000D01*
X105869047Y-83830000D02*
X105773809Y-83877619D01*
X105773809Y-83877619D02*
X105630952Y-83877619D01*
X106392857Y-83210952D02*
X106392857Y-83877619D01*
X106392857Y-83306190D02*
X106440476Y-83258571D01*
X106440476Y-83258571D02*
X106535714Y-83210952D01*
X106535714Y-83210952D02*
X106678571Y-83210952D01*
X106678571Y-83210952D02*
X106773809Y-83258571D01*
X106773809Y-83258571D02*
X106821428Y-83353809D01*
X106821428Y-83353809D02*
X106821428Y-83877619D01*
X107726190Y-83830000D02*
X107630952Y-83877619D01*
X107630952Y-83877619D02*
X107440476Y-83877619D01*
X107440476Y-83877619D02*
X107345238Y-83830000D01*
X107345238Y-83830000D02*
X107297619Y-83782380D01*
X107297619Y-83782380D02*
X107250000Y-83687142D01*
X107250000Y-83687142D02*
X107250000Y-83401428D01*
X107250000Y-83401428D02*
X107297619Y-83306190D01*
X107297619Y-83306190D02*
X107345238Y-83258571D01*
X107345238Y-83258571D02*
X107440476Y-83210952D01*
X107440476Y-83210952D02*
X107630952Y-83210952D01*
X107630952Y-83210952D02*
X107726190Y-83258571D01*
X108535714Y-83830000D02*
X108440476Y-83877619D01*
X108440476Y-83877619D02*
X108250000Y-83877619D01*
X108250000Y-83877619D02*
X108154762Y-83830000D01*
X108154762Y-83830000D02*
X108107143Y-83734761D01*
X108107143Y-83734761D02*
X108107143Y-83353809D01*
X108107143Y-83353809D02*
X108154762Y-83258571D01*
X108154762Y-83258571D02*
X108250000Y-83210952D01*
X108250000Y-83210952D02*
X108440476Y-83210952D01*
X108440476Y-83210952D02*
X108535714Y-83258571D01*
X108535714Y-83258571D02*
X108583333Y-83353809D01*
X108583333Y-83353809D02*
X108583333Y-83449047D01*
X108583333Y-83449047D02*
X108107143Y-83544285D01*
X109011905Y-83210952D02*
X109011905Y-84210952D01*
X109011905Y-83258571D02*
X109107143Y-83210952D01*
X109107143Y-83210952D02*
X109297619Y-83210952D01*
X109297619Y-83210952D02*
X109392857Y-83258571D01*
X109392857Y-83258571D02*
X109440476Y-83306190D01*
X109440476Y-83306190D02*
X109488095Y-83401428D01*
X109488095Y-83401428D02*
X109488095Y-83687142D01*
X109488095Y-83687142D02*
X109440476Y-83782380D01*
X109440476Y-83782380D02*
X109392857Y-83830000D01*
X109392857Y-83830000D02*
X109297619Y-83877619D01*
X109297619Y-83877619D02*
X109107143Y-83877619D01*
X109107143Y-83877619D02*
X109011905Y-83830000D01*
X109773810Y-83210952D02*
X110154762Y-83210952D01*
X109916667Y-82877619D02*
X109916667Y-83734761D01*
X109916667Y-83734761D02*
X109964286Y-83830000D01*
X109964286Y-83830000D02*
X110059524Y-83877619D01*
X110059524Y-83877619D02*
X110154762Y-83877619D01*
X111250001Y-83877619D02*
X111250001Y-82877619D01*
X111250001Y-82877619D02*
X111630953Y-82877619D01*
X111630953Y-82877619D02*
X111726191Y-82925238D01*
X111726191Y-82925238D02*
X111773810Y-82972857D01*
X111773810Y-82972857D02*
X111821429Y-83068095D01*
X111821429Y-83068095D02*
X111821429Y-83210952D01*
X111821429Y-83210952D02*
X111773810Y-83306190D01*
X111773810Y-83306190D02*
X111726191Y-83353809D01*
X111726191Y-83353809D02*
X111630953Y-83401428D01*
X111630953Y-83401428D02*
X111250001Y-83401428D01*
X112250001Y-83877619D02*
X112250001Y-83210952D01*
X112250001Y-83401428D02*
X112297620Y-83306190D01*
X112297620Y-83306190D02*
X112345239Y-83258571D01*
X112345239Y-83258571D02*
X112440477Y-83210952D01*
X112440477Y-83210952D02*
X112535715Y-83210952D01*
X113011906Y-83877619D02*
X112916668Y-83830000D01*
X112916668Y-83830000D02*
X112869049Y-83782380D01*
X112869049Y-83782380D02*
X112821430Y-83687142D01*
X112821430Y-83687142D02*
X112821430Y-83401428D01*
X112821430Y-83401428D02*
X112869049Y-83306190D01*
X112869049Y-83306190D02*
X112916668Y-83258571D01*
X112916668Y-83258571D02*
X113011906Y-83210952D01*
X113011906Y-83210952D02*
X113154763Y-83210952D01*
X113154763Y-83210952D02*
X113250001Y-83258571D01*
X113250001Y-83258571D02*
X113297620Y-83306190D01*
X113297620Y-83306190D02*
X113345239Y-83401428D01*
X113345239Y-83401428D02*
X113345239Y-83687142D01*
X113345239Y-83687142D02*
X113297620Y-83782380D01*
X113297620Y-83782380D02*
X113250001Y-83830000D01*
X113250001Y-83830000D02*
X113154763Y-83877619D01*
X113154763Y-83877619D02*
X113011906Y-83877619D01*
X113916668Y-83877619D02*
X113821430Y-83830000D01*
X113821430Y-83830000D02*
X113773811Y-83782380D01*
X113773811Y-83782380D02*
X113726192Y-83687142D01*
X113726192Y-83687142D02*
X113726192Y-83401428D01*
X113726192Y-83401428D02*
X113773811Y-83306190D01*
X113773811Y-83306190D02*
X113821430Y-83258571D01*
X113821430Y-83258571D02*
X113916668Y-83210952D01*
X113916668Y-83210952D02*
X114059525Y-83210952D01*
X114059525Y-83210952D02*
X114154763Y-83258571D01*
X114154763Y-83258571D02*
X114202382Y-83306190D01*
X114202382Y-83306190D02*
X114250001Y-83401428D01*
X114250001Y-83401428D02*
X114250001Y-83687142D01*
X114250001Y-83687142D02*
X114202382Y-83782380D01*
X114202382Y-83782380D02*
X114154763Y-83830000D01*
X114154763Y-83830000D02*
X114059525Y-83877619D01*
X114059525Y-83877619D02*
X113916668Y-83877619D01*
X114535716Y-83210952D02*
X114916668Y-83210952D01*
X114678573Y-83877619D02*
X114678573Y-83020476D01*
X114678573Y-83020476D02*
X114726192Y-82925238D01*
X114726192Y-82925238D02*
X114821430Y-82877619D01*
X114821430Y-82877619D02*
X114916668Y-82877619D01*
X115916669Y-83210952D02*
X116154764Y-83877619D01*
X116154764Y-83877619D02*
X116392859Y-83210952D01*
X117297621Y-83877619D02*
X116726193Y-83877619D01*
X117011907Y-83877619D02*
X117011907Y-82877619D01*
X117011907Y-82877619D02*
X116916669Y-83020476D01*
X116916669Y-83020476D02*
X116821431Y-83115714D01*
X116821431Y-83115714D02*
X116726193Y-83163333D01*
D11*
%TO.C,R1*%
X94900000Y-79977571D02*
X94700000Y-79691857D01*
X94557143Y-79977571D02*
X94557143Y-79377571D01*
X94557143Y-79377571D02*
X94785714Y-79377571D01*
X94785714Y-79377571D02*
X94842857Y-79406142D01*
X94842857Y-79406142D02*
X94871428Y-79434714D01*
X94871428Y-79434714D02*
X94900000Y-79491857D01*
X94900000Y-79491857D02*
X94900000Y-79577571D01*
X94900000Y-79577571D02*
X94871428Y-79634714D01*
X94871428Y-79634714D02*
X94842857Y-79663285D01*
X94842857Y-79663285D02*
X94785714Y-79691857D01*
X94785714Y-79691857D02*
X94557143Y-79691857D01*
X95471428Y-79977571D02*
X95128571Y-79977571D01*
X95300000Y-79977571D02*
X95300000Y-79377571D01*
X95300000Y-79377571D02*
X95242857Y-79463285D01*
X95242857Y-79463285D02*
X95185714Y-79520428D01*
X95185714Y-79520428D02*
X95128571Y-79549000D01*
%TO.C,J4*%
X136557571Y-78700000D02*
X136986142Y-78700000D01*
X136986142Y-78700000D02*
X137071857Y-78728571D01*
X137071857Y-78728571D02*
X137129000Y-78785714D01*
X137129000Y-78785714D02*
X137157571Y-78871428D01*
X137157571Y-78871428D02*
X137157571Y-78928571D01*
X136757571Y-78157143D02*
X137157571Y-78157143D01*
X136529000Y-78300000D02*
X136957571Y-78442857D01*
X136957571Y-78442857D02*
X136957571Y-78071428D01*
%TO.C,U2*%
X98377571Y-83757142D02*
X98863285Y-83757142D01*
X98863285Y-83757142D02*
X98920428Y-83728571D01*
X98920428Y-83728571D02*
X98949000Y-83700000D01*
X98949000Y-83700000D02*
X98977571Y-83642857D01*
X98977571Y-83642857D02*
X98977571Y-83528571D01*
X98977571Y-83528571D02*
X98949000Y-83471428D01*
X98949000Y-83471428D02*
X98920428Y-83442857D01*
X98920428Y-83442857D02*
X98863285Y-83414285D01*
X98863285Y-83414285D02*
X98377571Y-83414285D01*
X98434714Y-83157143D02*
X98406142Y-83128571D01*
X98406142Y-83128571D02*
X98377571Y-83071429D01*
X98377571Y-83071429D02*
X98377571Y-82928571D01*
X98377571Y-82928571D02*
X98406142Y-82871429D01*
X98406142Y-82871429D02*
X98434714Y-82842857D01*
X98434714Y-82842857D02*
X98491857Y-82814286D01*
X98491857Y-82814286D02*
X98549000Y-82814286D01*
X98549000Y-82814286D02*
X98634714Y-82842857D01*
X98634714Y-82842857D02*
X98977571Y-83185714D01*
X98977571Y-83185714D02*
X98977571Y-82814286D01*
%TO.C,R4*%
X96900000Y-86527571D02*
X96700000Y-86241857D01*
X96557143Y-86527571D02*
X96557143Y-85927571D01*
X96557143Y-85927571D02*
X96785714Y-85927571D01*
X96785714Y-85927571D02*
X96842857Y-85956142D01*
X96842857Y-85956142D02*
X96871428Y-85984714D01*
X96871428Y-85984714D02*
X96900000Y-86041857D01*
X96900000Y-86041857D02*
X96900000Y-86127571D01*
X96900000Y-86127571D02*
X96871428Y-86184714D01*
X96871428Y-86184714D02*
X96842857Y-86213285D01*
X96842857Y-86213285D02*
X96785714Y-86241857D01*
X96785714Y-86241857D02*
X96557143Y-86241857D01*
X97414286Y-86127571D02*
X97414286Y-86527571D01*
X97271428Y-85899000D02*
X97128571Y-86327571D01*
X97128571Y-86327571D02*
X97500000Y-86327571D01*
%TO.C,C2*%
X123400000Y-80620428D02*
X123371428Y-80649000D01*
X123371428Y-80649000D02*
X123285714Y-80677571D01*
X123285714Y-80677571D02*
X123228571Y-80677571D01*
X123228571Y-80677571D02*
X123142857Y-80649000D01*
X123142857Y-80649000D02*
X123085714Y-80591857D01*
X123085714Y-80591857D02*
X123057143Y-80534714D01*
X123057143Y-80534714D02*
X123028571Y-80420428D01*
X123028571Y-80420428D02*
X123028571Y-80334714D01*
X123028571Y-80334714D02*
X123057143Y-80220428D01*
X123057143Y-80220428D02*
X123085714Y-80163285D01*
X123085714Y-80163285D02*
X123142857Y-80106142D01*
X123142857Y-80106142D02*
X123228571Y-80077571D01*
X123228571Y-80077571D02*
X123285714Y-80077571D01*
X123285714Y-80077571D02*
X123371428Y-80106142D01*
X123371428Y-80106142D02*
X123400000Y-80134714D01*
X123628571Y-80134714D02*
X123657143Y-80106142D01*
X123657143Y-80106142D02*
X123714286Y-80077571D01*
X123714286Y-80077571D02*
X123857143Y-80077571D01*
X123857143Y-80077571D02*
X123914286Y-80106142D01*
X123914286Y-80106142D02*
X123942857Y-80134714D01*
X123942857Y-80134714D02*
X123971428Y-80191857D01*
X123971428Y-80191857D02*
X123971428Y-80249000D01*
X123971428Y-80249000D02*
X123942857Y-80334714D01*
X123942857Y-80334714D02*
X123600000Y-80677571D01*
X123600000Y-80677571D02*
X123971428Y-80677571D01*
%TO.C,L1*%
X123677571Y-88649999D02*
X123677571Y-88935713D01*
X123677571Y-88935713D02*
X123077571Y-88935713D01*
X123677571Y-88135714D02*
X123677571Y-88478571D01*
X123677571Y-88307142D02*
X123077571Y-88307142D01*
X123077571Y-88307142D02*
X123163285Y-88364285D01*
X123163285Y-88364285D02*
X123220428Y-88421428D01*
X123220428Y-88421428D02*
X123249000Y-88478571D01*
%TO.C,C5*%
X98900000Y-84820428D02*
X98871428Y-84849000D01*
X98871428Y-84849000D02*
X98785714Y-84877571D01*
X98785714Y-84877571D02*
X98728571Y-84877571D01*
X98728571Y-84877571D02*
X98642857Y-84849000D01*
X98642857Y-84849000D02*
X98585714Y-84791857D01*
X98585714Y-84791857D02*
X98557143Y-84734714D01*
X98557143Y-84734714D02*
X98528571Y-84620428D01*
X98528571Y-84620428D02*
X98528571Y-84534714D01*
X98528571Y-84534714D02*
X98557143Y-84420428D01*
X98557143Y-84420428D02*
X98585714Y-84363285D01*
X98585714Y-84363285D02*
X98642857Y-84306142D01*
X98642857Y-84306142D02*
X98728571Y-84277571D01*
X98728571Y-84277571D02*
X98785714Y-84277571D01*
X98785714Y-84277571D02*
X98871428Y-84306142D01*
X98871428Y-84306142D02*
X98900000Y-84334714D01*
X99442857Y-84277571D02*
X99157143Y-84277571D01*
X99157143Y-84277571D02*
X99128571Y-84563285D01*
X99128571Y-84563285D02*
X99157143Y-84534714D01*
X99157143Y-84534714D02*
X99214286Y-84506142D01*
X99214286Y-84506142D02*
X99357143Y-84506142D01*
X99357143Y-84506142D02*
X99414286Y-84534714D01*
X99414286Y-84534714D02*
X99442857Y-84563285D01*
X99442857Y-84563285D02*
X99471428Y-84620428D01*
X99471428Y-84620428D02*
X99471428Y-84763285D01*
X99471428Y-84763285D02*
X99442857Y-84820428D01*
X99442857Y-84820428D02*
X99414286Y-84849000D01*
X99414286Y-84849000D02*
X99357143Y-84877571D01*
X99357143Y-84877571D02*
X99214286Y-84877571D01*
X99214286Y-84877571D02*
X99157143Y-84849000D01*
X99157143Y-84849000D02*
X99128571Y-84820428D01*
%TO.C,SW2*%
X102199999Y-95249000D02*
X102285714Y-95277571D01*
X102285714Y-95277571D02*
X102428571Y-95277571D01*
X102428571Y-95277571D02*
X102485714Y-95249000D01*
X102485714Y-95249000D02*
X102514285Y-95220428D01*
X102514285Y-95220428D02*
X102542856Y-95163285D01*
X102542856Y-95163285D02*
X102542856Y-95106142D01*
X102542856Y-95106142D02*
X102514285Y-95049000D01*
X102514285Y-95049000D02*
X102485714Y-95020428D01*
X102485714Y-95020428D02*
X102428571Y-94991857D01*
X102428571Y-94991857D02*
X102314285Y-94963285D01*
X102314285Y-94963285D02*
X102257142Y-94934714D01*
X102257142Y-94934714D02*
X102228571Y-94906142D01*
X102228571Y-94906142D02*
X102199999Y-94849000D01*
X102199999Y-94849000D02*
X102199999Y-94791857D01*
X102199999Y-94791857D02*
X102228571Y-94734714D01*
X102228571Y-94734714D02*
X102257142Y-94706142D01*
X102257142Y-94706142D02*
X102314285Y-94677571D01*
X102314285Y-94677571D02*
X102457142Y-94677571D01*
X102457142Y-94677571D02*
X102542856Y-94706142D01*
X102742857Y-94677571D02*
X102885714Y-95277571D01*
X102885714Y-95277571D02*
X103000000Y-94849000D01*
X103000000Y-94849000D02*
X103114285Y-95277571D01*
X103114285Y-95277571D02*
X103257143Y-94677571D01*
X103457142Y-94734714D02*
X103485714Y-94706142D01*
X103485714Y-94706142D02*
X103542857Y-94677571D01*
X103542857Y-94677571D02*
X103685714Y-94677571D01*
X103685714Y-94677571D02*
X103742857Y-94706142D01*
X103742857Y-94706142D02*
X103771428Y-94734714D01*
X103771428Y-94734714D02*
X103799999Y-94791857D01*
X103799999Y-94791857D02*
X103799999Y-94849000D01*
X103799999Y-94849000D02*
X103771428Y-94934714D01*
X103771428Y-94934714D02*
X103428571Y-95277571D01*
X103428571Y-95277571D02*
X103799999Y-95277571D01*
%TO.C,J2*%
X116358571Y-87769000D02*
X116787142Y-87769000D01*
X116787142Y-87769000D02*
X116872857Y-87797571D01*
X116872857Y-87797571D02*
X116930000Y-87854714D01*
X116930000Y-87854714D02*
X116958571Y-87940428D01*
X116958571Y-87940428D02*
X116958571Y-87997571D01*
X116415714Y-87511857D02*
X116387142Y-87483285D01*
X116387142Y-87483285D02*
X116358571Y-87426143D01*
X116358571Y-87426143D02*
X116358571Y-87283285D01*
X116358571Y-87283285D02*
X116387142Y-87226143D01*
X116387142Y-87226143D02*
X116415714Y-87197571D01*
X116415714Y-87197571D02*
X116472857Y-87169000D01*
X116472857Y-87169000D02*
X116530000Y-87169000D01*
X116530000Y-87169000D02*
X116615714Y-87197571D01*
X116615714Y-87197571D02*
X116958571Y-87540428D01*
X116958571Y-87540428D02*
X116958571Y-87169000D01*
%TO.C,J1*%
X90427571Y-93950000D02*
X90856142Y-93950000D01*
X90856142Y-93950000D02*
X90941857Y-93978571D01*
X90941857Y-93978571D02*
X90999000Y-94035714D01*
X90999000Y-94035714D02*
X91027571Y-94121428D01*
X91027571Y-94121428D02*
X91027571Y-94178571D01*
X91027571Y-93350000D02*
X91027571Y-93692857D01*
X91027571Y-93521428D02*
X90427571Y-93521428D01*
X90427571Y-93521428D02*
X90513285Y-93578571D01*
X90513285Y-93578571D02*
X90570428Y-93635714D01*
X90570428Y-93635714D02*
X90599000Y-93692857D01*
%TO.C,SW1*%
X101499999Y-93449000D02*
X101585714Y-93477571D01*
X101585714Y-93477571D02*
X101728571Y-93477571D01*
X101728571Y-93477571D02*
X101785714Y-93449000D01*
X101785714Y-93449000D02*
X101814285Y-93420428D01*
X101814285Y-93420428D02*
X101842856Y-93363285D01*
X101842856Y-93363285D02*
X101842856Y-93306142D01*
X101842856Y-93306142D02*
X101814285Y-93249000D01*
X101814285Y-93249000D02*
X101785714Y-93220428D01*
X101785714Y-93220428D02*
X101728571Y-93191857D01*
X101728571Y-93191857D02*
X101614285Y-93163285D01*
X101614285Y-93163285D02*
X101557142Y-93134714D01*
X101557142Y-93134714D02*
X101528571Y-93106142D01*
X101528571Y-93106142D02*
X101499999Y-93049000D01*
X101499999Y-93049000D02*
X101499999Y-92991857D01*
X101499999Y-92991857D02*
X101528571Y-92934714D01*
X101528571Y-92934714D02*
X101557142Y-92906142D01*
X101557142Y-92906142D02*
X101614285Y-92877571D01*
X101614285Y-92877571D02*
X101757142Y-92877571D01*
X101757142Y-92877571D02*
X101842856Y-92906142D01*
X102042857Y-92877571D02*
X102185714Y-93477571D01*
X102185714Y-93477571D02*
X102300000Y-93049000D01*
X102300000Y-93049000D02*
X102414285Y-93477571D01*
X102414285Y-93477571D02*
X102557143Y-92877571D01*
X103099999Y-93477571D02*
X102757142Y-93477571D01*
X102928571Y-93477571D02*
X102928571Y-92877571D01*
X102928571Y-92877571D02*
X102871428Y-92963285D01*
X102871428Y-92963285D02*
X102814285Y-93020428D01*
X102814285Y-93020428D02*
X102757142Y-93049000D01*
%TO.C,U3*%
X133042857Y-96177571D02*
X133042857Y-96663285D01*
X133042857Y-96663285D02*
X133071428Y-96720428D01*
X133071428Y-96720428D02*
X133100000Y-96749000D01*
X133100000Y-96749000D02*
X133157142Y-96777571D01*
X133157142Y-96777571D02*
X133271428Y-96777571D01*
X133271428Y-96777571D02*
X133328571Y-96749000D01*
X133328571Y-96749000D02*
X133357142Y-96720428D01*
X133357142Y-96720428D02*
X133385714Y-96663285D01*
X133385714Y-96663285D02*
X133385714Y-96177571D01*
X133614285Y-96177571D02*
X133985713Y-96177571D01*
X133985713Y-96177571D02*
X133785713Y-96406142D01*
X133785713Y-96406142D02*
X133871428Y-96406142D01*
X133871428Y-96406142D02*
X133928571Y-96434714D01*
X133928571Y-96434714D02*
X133957142Y-96463285D01*
X133957142Y-96463285D02*
X133985713Y-96520428D01*
X133985713Y-96520428D02*
X133985713Y-96663285D01*
X133985713Y-96663285D02*
X133957142Y-96720428D01*
X133957142Y-96720428D02*
X133928571Y-96749000D01*
X133928571Y-96749000D02*
X133871428Y-96777571D01*
X133871428Y-96777571D02*
X133699999Y-96777571D01*
X133699999Y-96777571D02*
X133642856Y-96749000D01*
X133642856Y-96749000D02*
X133614285Y-96720428D01*
%TO.C,U1*%
X139042857Y-94677571D02*
X139042857Y-95163285D01*
X139042857Y-95163285D02*
X139071428Y-95220428D01*
X139071428Y-95220428D02*
X139100000Y-95249000D01*
X139100000Y-95249000D02*
X139157142Y-95277571D01*
X139157142Y-95277571D02*
X139271428Y-95277571D01*
X139271428Y-95277571D02*
X139328571Y-95249000D01*
X139328571Y-95249000D02*
X139357142Y-95220428D01*
X139357142Y-95220428D02*
X139385714Y-95163285D01*
X139385714Y-95163285D02*
X139385714Y-94677571D01*
X139985713Y-95277571D02*
X139642856Y-95277571D01*
X139814285Y-95277571D02*
X139814285Y-94677571D01*
X139814285Y-94677571D02*
X139757142Y-94763285D01*
X139757142Y-94763285D02*
X139699999Y-94820428D01*
X139699999Y-94820428D02*
X139642856Y-94849000D01*
%TO.C,Y1*%
X122314285Y-84091857D02*
X122314285Y-84377571D01*
X122114285Y-83777571D02*
X122314285Y-84091857D01*
X122314285Y-84091857D02*
X122514285Y-83777571D01*
X123028571Y-84377571D02*
X122685714Y-84377571D01*
X122857143Y-84377571D02*
X122857143Y-83777571D01*
X122857143Y-83777571D02*
X122800000Y-83863285D01*
X122800000Y-83863285D02*
X122742857Y-83920428D01*
X122742857Y-83920428D02*
X122685714Y-83949000D01*
%TO.C,R3*%
X96900000Y-91027571D02*
X96700000Y-90741857D01*
X96557143Y-91027571D02*
X96557143Y-90427571D01*
X96557143Y-90427571D02*
X96785714Y-90427571D01*
X96785714Y-90427571D02*
X96842857Y-90456142D01*
X96842857Y-90456142D02*
X96871428Y-90484714D01*
X96871428Y-90484714D02*
X96900000Y-90541857D01*
X96900000Y-90541857D02*
X96900000Y-90627571D01*
X96900000Y-90627571D02*
X96871428Y-90684714D01*
X96871428Y-90684714D02*
X96842857Y-90713285D01*
X96842857Y-90713285D02*
X96785714Y-90741857D01*
X96785714Y-90741857D02*
X96557143Y-90741857D01*
X97100000Y-90427571D02*
X97471428Y-90427571D01*
X97471428Y-90427571D02*
X97271428Y-90656142D01*
X97271428Y-90656142D02*
X97357143Y-90656142D01*
X97357143Y-90656142D02*
X97414286Y-90684714D01*
X97414286Y-90684714D02*
X97442857Y-90713285D01*
X97442857Y-90713285D02*
X97471428Y-90770428D01*
X97471428Y-90770428D02*
X97471428Y-90913285D01*
X97471428Y-90913285D02*
X97442857Y-90970428D01*
X97442857Y-90970428D02*
X97414286Y-90999000D01*
X97414286Y-90999000D02*
X97357143Y-91027571D01*
X97357143Y-91027571D02*
X97185714Y-91027571D01*
X97185714Y-91027571D02*
X97128571Y-90999000D01*
X97128571Y-90999000D02*
X97100000Y-90970428D01*
%TO.C,J3*%
X93817571Y-98700000D02*
X94246142Y-98700000D01*
X94246142Y-98700000D02*
X94331857Y-98728571D01*
X94331857Y-98728571D02*
X94389000Y-98785714D01*
X94389000Y-98785714D02*
X94417571Y-98871428D01*
X94417571Y-98871428D02*
X94417571Y-98928571D01*
X93817571Y-98471428D02*
X93817571Y-98100000D01*
X93817571Y-98100000D02*
X94046142Y-98300000D01*
X94046142Y-98300000D02*
X94046142Y-98214285D01*
X94046142Y-98214285D02*
X94074714Y-98157143D01*
X94074714Y-98157143D02*
X94103285Y-98128571D01*
X94103285Y-98128571D02*
X94160428Y-98100000D01*
X94160428Y-98100000D02*
X94303285Y-98100000D01*
X94303285Y-98100000D02*
X94360428Y-98128571D01*
X94360428Y-98128571D02*
X94389000Y-98157143D01*
X94389000Y-98157143D02*
X94417571Y-98214285D01*
X94417571Y-98214285D02*
X94417571Y-98385714D01*
X94417571Y-98385714D02*
X94389000Y-98442857D01*
X94389000Y-98442857D02*
X94360428Y-98471428D01*
%TO.C,R2*%
X137750000Y-80527571D02*
X137550000Y-80241857D01*
X137407143Y-80527571D02*
X137407143Y-79927571D01*
X137407143Y-79927571D02*
X137635714Y-79927571D01*
X137635714Y-79927571D02*
X137692857Y-79956142D01*
X137692857Y-79956142D02*
X137721428Y-79984714D01*
X137721428Y-79984714D02*
X137750000Y-80041857D01*
X137750000Y-80041857D02*
X137750000Y-80127571D01*
X137750000Y-80127571D02*
X137721428Y-80184714D01*
X137721428Y-80184714D02*
X137692857Y-80213285D01*
X137692857Y-80213285D02*
X137635714Y-80241857D01*
X137635714Y-80241857D02*
X137407143Y-80241857D01*
X137978571Y-79984714D02*
X138007143Y-79956142D01*
X138007143Y-79956142D02*
X138064286Y-79927571D01*
X138064286Y-79927571D02*
X138207143Y-79927571D01*
X138207143Y-79927571D02*
X138264286Y-79956142D01*
X138264286Y-79956142D02*
X138292857Y-79984714D01*
X138292857Y-79984714D02*
X138321428Y-80041857D01*
X138321428Y-80041857D02*
X138321428Y-80099000D01*
X138321428Y-80099000D02*
X138292857Y-80184714D01*
X138292857Y-80184714D02*
X137950000Y-80527571D01*
X137950000Y-80527571D02*
X138321428Y-80527571D01*
%TO.C,C4*%
X100900000Y-79720428D02*
X100871428Y-79749000D01*
X100871428Y-79749000D02*
X100785714Y-79777571D01*
X100785714Y-79777571D02*
X100728571Y-79777571D01*
X100728571Y-79777571D02*
X100642857Y-79749000D01*
X100642857Y-79749000D02*
X100585714Y-79691857D01*
X100585714Y-79691857D02*
X100557143Y-79634714D01*
X100557143Y-79634714D02*
X100528571Y-79520428D01*
X100528571Y-79520428D02*
X100528571Y-79434714D01*
X100528571Y-79434714D02*
X100557143Y-79320428D01*
X100557143Y-79320428D02*
X100585714Y-79263285D01*
X100585714Y-79263285D02*
X100642857Y-79206142D01*
X100642857Y-79206142D02*
X100728571Y-79177571D01*
X100728571Y-79177571D02*
X100785714Y-79177571D01*
X100785714Y-79177571D02*
X100871428Y-79206142D01*
X100871428Y-79206142D02*
X100900000Y-79234714D01*
X101414286Y-79377571D02*
X101414286Y-79777571D01*
X101271428Y-79149000D02*
X101128571Y-79577571D01*
X101128571Y-79577571D02*
X101500000Y-79577571D01*
%TO.C,D1*%
X94557143Y-81577571D02*
X94557143Y-80977571D01*
X94557143Y-80977571D02*
X94700000Y-80977571D01*
X94700000Y-80977571D02*
X94785714Y-81006142D01*
X94785714Y-81006142D02*
X94842857Y-81063285D01*
X94842857Y-81063285D02*
X94871428Y-81120428D01*
X94871428Y-81120428D02*
X94900000Y-81234714D01*
X94900000Y-81234714D02*
X94900000Y-81320428D01*
X94900000Y-81320428D02*
X94871428Y-81434714D01*
X94871428Y-81434714D02*
X94842857Y-81491857D01*
X94842857Y-81491857D02*
X94785714Y-81549000D01*
X94785714Y-81549000D02*
X94700000Y-81577571D01*
X94700000Y-81577571D02*
X94557143Y-81577571D01*
X95471428Y-81577571D02*
X95128571Y-81577571D01*
X95300000Y-81577571D02*
X95300000Y-80977571D01*
X95300000Y-80977571D02*
X95242857Y-81063285D01*
X95242857Y-81063285D02*
X95185714Y-81120428D01*
X95185714Y-81120428D02*
X95128571Y-81149000D01*
%TO.C,C1*%
X98720428Y-79499999D02*
X98749000Y-79528571D01*
X98749000Y-79528571D02*
X98777571Y-79614285D01*
X98777571Y-79614285D02*
X98777571Y-79671428D01*
X98777571Y-79671428D02*
X98749000Y-79757142D01*
X98749000Y-79757142D02*
X98691857Y-79814285D01*
X98691857Y-79814285D02*
X98634714Y-79842856D01*
X98634714Y-79842856D02*
X98520428Y-79871428D01*
X98520428Y-79871428D02*
X98434714Y-79871428D01*
X98434714Y-79871428D02*
X98320428Y-79842856D01*
X98320428Y-79842856D02*
X98263285Y-79814285D01*
X98263285Y-79814285D02*
X98206142Y-79757142D01*
X98206142Y-79757142D02*
X98177571Y-79671428D01*
X98177571Y-79671428D02*
X98177571Y-79614285D01*
X98177571Y-79614285D02*
X98206142Y-79528571D01*
X98206142Y-79528571D02*
X98234714Y-79499999D01*
X98777571Y-78928571D02*
X98777571Y-79271428D01*
X98777571Y-79099999D02*
X98177571Y-79099999D01*
X98177571Y-79099999D02*
X98263285Y-79157142D01*
X98263285Y-79157142D02*
X98320428Y-79214285D01*
X98320428Y-79214285D02*
X98349000Y-79271428D01*
%TO.C,C6*%
X125400000Y-81720428D02*
X125371428Y-81749000D01*
X125371428Y-81749000D02*
X125285714Y-81777571D01*
X125285714Y-81777571D02*
X125228571Y-81777571D01*
X125228571Y-81777571D02*
X125142857Y-81749000D01*
X125142857Y-81749000D02*
X125085714Y-81691857D01*
X125085714Y-81691857D02*
X125057143Y-81634714D01*
X125057143Y-81634714D02*
X125028571Y-81520428D01*
X125028571Y-81520428D02*
X125028571Y-81434714D01*
X125028571Y-81434714D02*
X125057143Y-81320428D01*
X125057143Y-81320428D02*
X125085714Y-81263285D01*
X125085714Y-81263285D02*
X125142857Y-81206142D01*
X125142857Y-81206142D02*
X125228571Y-81177571D01*
X125228571Y-81177571D02*
X125285714Y-81177571D01*
X125285714Y-81177571D02*
X125371428Y-81206142D01*
X125371428Y-81206142D02*
X125400000Y-81234714D01*
X125914286Y-81177571D02*
X125800000Y-81177571D01*
X125800000Y-81177571D02*
X125742857Y-81206142D01*
X125742857Y-81206142D02*
X125714286Y-81234714D01*
X125714286Y-81234714D02*
X125657143Y-81320428D01*
X125657143Y-81320428D02*
X125628571Y-81434714D01*
X125628571Y-81434714D02*
X125628571Y-81663285D01*
X125628571Y-81663285D02*
X125657143Y-81720428D01*
X125657143Y-81720428D02*
X125685714Y-81749000D01*
X125685714Y-81749000D02*
X125742857Y-81777571D01*
X125742857Y-81777571D02*
X125857143Y-81777571D01*
X125857143Y-81777571D02*
X125914286Y-81749000D01*
X125914286Y-81749000D02*
X125942857Y-81720428D01*
X125942857Y-81720428D02*
X125971428Y-81663285D01*
X125971428Y-81663285D02*
X125971428Y-81520428D01*
X125971428Y-81520428D02*
X125942857Y-81463285D01*
X125942857Y-81463285D02*
X125914286Y-81434714D01*
X125914286Y-81434714D02*
X125857143Y-81406142D01*
X125857143Y-81406142D02*
X125742857Y-81406142D01*
X125742857Y-81406142D02*
X125685714Y-81434714D01*
X125685714Y-81434714D02*
X125657143Y-81463285D01*
X125657143Y-81463285D02*
X125628571Y-81520428D01*
%TO.C,C3*%
X117100000Y-80720428D02*
X117071428Y-80749000D01*
X117071428Y-80749000D02*
X116985714Y-80777571D01*
X116985714Y-80777571D02*
X116928571Y-80777571D01*
X116928571Y-80777571D02*
X116842857Y-80749000D01*
X116842857Y-80749000D02*
X116785714Y-80691857D01*
X116785714Y-80691857D02*
X116757143Y-80634714D01*
X116757143Y-80634714D02*
X116728571Y-80520428D01*
X116728571Y-80520428D02*
X116728571Y-80434714D01*
X116728571Y-80434714D02*
X116757143Y-80320428D01*
X116757143Y-80320428D02*
X116785714Y-80263285D01*
X116785714Y-80263285D02*
X116842857Y-80206142D01*
X116842857Y-80206142D02*
X116928571Y-80177571D01*
X116928571Y-80177571D02*
X116985714Y-80177571D01*
X116985714Y-80177571D02*
X117071428Y-80206142D01*
X117071428Y-80206142D02*
X117100000Y-80234714D01*
X117300000Y-80177571D02*
X117671428Y-80177571D01*
X117671428Y-80177571D02*
X117471428Y-80406142D01*
X117471428Y-80406142D02*
X117557143Y-80406142D01*
X117557143Y-80406142D02*
X117614286Y-80434714D01*
X117614286Y-80434714D02*
X117642857Y-80463285D01*
X117642857Y-80463285D02*
X117671428Y-80520428D01*
X117671428Y-80520428D02*
X117671428Y-80663285D01*
X117671428Y-80663285D02*
X117642857Y-80720428D01*
X117642857Y-80720428D02*
X117614286Y-80749000D01*
X117614286Y-80749000D02*
X117557143Y-80777571D01*
X117557143Y-80777571D02*
X117385714Y-80777571D01*
X117385714Y-80777571D02*
X117328571Y-80749000D01*
X117328571Y-80749000D02*
X117300000Y-80720428D01*
%TO.C,D2*%
X135707143Y-80527571D02*
X135707143Y-79927571D01*
X135707143Y-79927571D02*
X135850000Y-79927571D01*
X135850000Y-79927571D02*
X135935714Y-79956142D01*
X135935714Y-79956142D02*
X135992857Y-80013285D01*
X135992857Y-80013285D02*
X136021428Y-80070428D01*
X136021428Y-80070428D02*
X136050000Y-80184714D01*
X136050000Y-80184714D02*
X136050000Y-80270428D01*
X136050000Y-80270428D02*
X136021428Y-80384714D01*
X136021428Y-80384714D02*
X135992857Y-80441857D01*
X135992857Y-80441857D02*
X135935714Y-80499000D01*
X135935714Y-80499000D02*
X135850000Y-80527571D01*
X135850000Y-80527571D02*
X135707143Y-80527571D01*
X136278571Y-79984714D02*
X136307143Y-79956142D01*
X136307143Y-79956142D02*
X136364286Y-79927571D01*
X136364286Y-79927571D02*
X136507143Y-79927571D01*
X136507143Y-79927571D02*
X136564286Y-79956142D01*
X136564286Y-79956142D02*
X136592857Y-79984714D01*
X136592857Y-79984714D02*
X136621428Y-80041857D01*
X136621428Y-80041857D02*
X136621428Y-80099000D01*
X136621428Y-80099000D02*
X136592857Y-80184714D01*
X136592857Y-80184714D02*
X136250000Y-80527571D01*
X136250000Y-80527571D02*
X136621428Y-80527571D01*
D12*
%TO.C,R1*%
X92662742Y-79077500D02*
X93137258Y-79077500D01*
X92662742Y-80122500D02*
X93137258Y-80122500D01*
%TO.C,J4*%
X135880000Y-77170000D02*
X135880000Y-78500000D01*
X134550000Y-77170000D02*
X135880000Y-77170000D01*
X133280000Y-77170000D02*
X107820000Y-77170000D01*
X133280000Y-77170000D02*
X133280000Y-79830000D01*
X107820000Y-77170000D02*
X107820000Y-79830000D01*
X133280000Y-79830000D02*
X107820000Y-79830000D01*
%TO.C,U2*%
X99340000Y-82000000D02*
X99340000Y-83800000D01*
X99340000Y-82000000D02*
X99340000Y-81200000D01*
X102460000Y-82000000D02*
X102460000Y-82800000D01*
X102460000Y-82000000D02*
X102460000Y-81200000D01*
%TO.C,R4*%
X97512742Y-86977500D02*
X97987258Y-86977500D01*
X97512742Y-88022500D02*
X97987258Y-88022500D01*
%TO.C,L1*%
X122890000Y-90962779D02*
X122890000Y-90637221D01*
X123910000Y-90962779D02*
X123910000Y-90637221D01*
%TO.C,SW2*%
X108000000Y-92750000D02*
X108000000Y-95250000D01*
X104600000Y-92750000D02*
X108000000Y-92750000D01*
X104000000Y-92750000D02*
X104600000Y-92750000D01*
X108000000Y-95250000D02*
X104000000Y-95250000D01*
X104000000Y-95250000D02*
X104000000Y-92750000D01*
D13*
%TO.C,J2*%
X113715000Y-85240000D02*
X110285000Y-85240000D01*
X110285000Y-91760000D02*
X113715000Y-91760000D01*
X110065000Y-84710000D02*
G75*
G03*
X110065000Y-84710000I-100000J0D01*
G01*
D14*
%TO.C,J1*%
X90050000Y-84700000D02*
X90280000Y-84700000D01*
X90050000Y-84700000D02*
X90050000Y-92300000D01*
X90050000Y-92300000D02*
X90280000Y-92300000D01*
D13*
X95650000Y-87200000D02*
G75*
G03*
X95650000Y-87200000I-100000J0D01*
G01*
D12*
%TO.C,SW1*%
X97250000Y-95250000D02*
X97250000Y-92750000D01*
X100650000Y-95250000D02*
X97250000Y-95250000D01*
X101250000Y-95250000D02*
X100650000Y-95250000D01*
X97250000Y-92750000D02*
X101250000Y-92750000D01*
X101250000Y-92750000D02*
X101250000Y-95250000D01*
%TO.C,U3*%
X132500000Y-94390000D02*
X129500000Y-94390000D01*
X131000000Y-96610000D02*
X129500000Y-96610000D01*
%TO.C,U1*%
X137100000Y-82900000D02*
X136000000Y-82900000D01*
X140650000Y-83150000D02*
X136000000Y-83150000D01*
X126050000Y-83150000D02*
X124950000Y-83150000D01*
X124950000Y-83150000D02*
X124950000Y-84250000D01*
X140650000Y-84250000D02*
X140650000Y-83150000D01*
X140650000Y-92750000D02*
X140650000Y-93850000D01*
X140650000Y-93850000D02*
X139550000Y-93850000D01*
X126050000Y-93850000D02*
X124950000Y-93850000D01*
X124950000Y-93850000D02*
X124950000Y-92750000D01*
%TO.C,Y1*%
X122875000Y-80700000D02*
X122875000Y-83500000D01*
X118330000Y-80700000D02*
X122875000Y-80700000D01*
X122875000Y-83500000D02*
X118325000Y-83500000D01*
X118325000Y-83500000D02*
X118330000Y-80700000D01*
%TO.C,R3*%
X97512742Y-88977500D02*
X97987258Y-88977500D01*
X97512742Y-90022500D02*
X97987258Y-90022500D01*
%TO.C,J3*%
X95140000Y-99830000D02*
X95140000Y-98500000D01*
X96470000Y-99830000D02*
X95140000Y-99830000D01*
X97740000Y-99830000D02*
X135900000Y-99830000D01*
X97740000Y-99830000D02*
X97740000Y-97170000D01*
X135900000Y-99830000D02*
X135900000Y-97170000D01*
X97740000Y-97170000D02*
X135900000Y-97170000D01*
%TO.C,R2*%
X138362742Y-80977500D02*
X138837258Y-80977500D01*
X138362742Y-82022500D02*
X138837258Y-82022500D01*
%TO.C,D1*%
X91415000Y-80565000D02*
X91415000Y-82035000D01*
X91415000Y-82035000D02*
X93700000Y-82035000D01*
X93700000Y-80565000D02*
X91415000Y-80565000D01*
%TO.C,D2*%
X136885000Y-82235000D02*
X136885000Y-80765000D01*
X136885000Y-80765000D02*
X134600000Y-80765000D01*
X134600000Y-82235000D02*
X136885000Y-82235000D01*
%TD*%
%LPC*%
D15*
%TO.C,R1*%
X92075000Y-79600000D03*
X93725000Y-79600000D03*
%TD*%
D16*
%TO.C,J4*%
X134550000Y-78500000D03*
D17*
X132010000Y-78500000D03*
X129470000Y-78500000D03*
X126930000Y-78500000D03*
X124390000Y-78500000D03*
X121850000Y-78500000D03*
X119310000Y-78500000D03*
X116770000Y-78500000D03*
X114230000Y-78500000D03*
X111690000Y-78500000D03*
X109150000Y-78500000D03*
%TD*%
D18*
%TO.C,U2*%
X99950000Y-83137500D03*
X100900000Y-83137500D03*
X101850000Y-83137500D03*
X101850000Y-80862500D03*
X99950000Y-80862500D03*
%TD*%
D15*
%TO.C,R4*%
X96925000Y-87500000D03*
X98575000Y-87500000D03*
%TD*%
D19*
%TO.C,C2*%
X123300000Y-81920000D03*
X123300000Y-81280000D03*
%TD*%
D20*
%TO.C,L1*%
X123400000Y-91587500D03*
X123400000Y-90012500D03*
%TD*%
D21*
%TO.C,C5*%
X100080001Y-84500000D03*
X100720001Y-84500000D03*
%TD*%
D22*
%TO.C,SW2*%
X104700000Y-94000000D03*
X107300000Y-94000000D03*
%TD*%
D23*
%TO.C,J2*%
X109965000Y-85960000D03*
X114035000Y-85960000D03*
X109965000Y-87230000D03*
X114035000Y-87230000D03*
X109965000Y-88500000D03*
X114035000Y-88500000D03*
X109965000Y-89770000D03*
X114035000Y-89770000D03*
X109965000Y-91040000D03*
X114035000Y-91040000D03*
%TD*%
D24*
%TO.C,J1*%
X94175000Y-87200000D03*
X94175000Y-87850000D03*
X94175000Y-88500000D03*
X94175000Y-89150000D03*
D25*
X91500000Y-85200000D03*
D26*
X93950000Y-85300000D03*
D27*
X91500000Y-87300000D03*
X91500000Y-89700000D03*
D24*
X94175000Y-89800000D03*
D26*
X93950000Y-91700000D03*
D25*
X91500000Y-91800000D03*
%TD*%
D22*
%TO.C,SW1*%
X100550000Y-94000000D03*
X97950000Y-94000000D03*
%TD*%
D28*
%TO.C,U3*%
X132287500Y-96250000D03*
X132287500Y-95750000D03*
X132287500Y-95250000D03*
X132287500Y-94750000D03*
X129712500Y-94750000D03*
X129712500Y-95250000D03*
X129712500Y-95750000D03*
X129712500Y-96250000D03*
%TD*%
D29*
%TO.C,U1*%
X136550000Y-83850000D03*
X135450000Y-83850000D03*
X134650000Y-83850000D03*
X133050000Y-83850000D03*
X132650000Y-84750000D03*
X132250000Y-83850000D03*
X131850000Y-84750000D03*
X131450000Y-83850000D03*
X131050000Y-84750000D03*
X130650000Y-83850000D03*
X130250000Y-84750000D03*
X129850000Y-83850000D03*
X129450000Y-84750000D03*
X129050000Y-83850000D03*
D30*
X125650000Y-83700000D03*
X125650000Y-84500000D03*
X125650000Y-85300000D03*
X125650000Y-86100000D03*
X126550000Y-86500000D03*
X125650000Y-86900000D03*
X126550000Y-87300000D03*
X125650000Y-87700000D03*
X126550000Y-88100000D03*
X125650000Y-88500000D03*
X126550000Y-88900000D03*
X125650000Y-89300000D03*
X126550000Y-89700000D03*
X125650000Y-90100000D03*
X126550000Y-90500000D03*
X125650000Y-90900000D03*
X125650000Y-91700000D03*
X125650000Y-92500000D03*
X125650000Y-93300000D03*
D29*
X126650000Y-93150000D03*
X127450000Y-93150000D03*
X127850000Y-92250000D03*
X128250000Y-93150000D03*
X128650000Y-92250000D03*
X129050000Y-93150000D03*
X129450000Y-92250000D03*
X129850000Y-93150000D03*
X130250000Y-92250000D03*
X131050000Y-92250000D03*
X131450000Y-93150000D03*
X131850000Y-92250000D03*
X132250000Y-93150000D03*
X132650000Y-92250000D03*
X133050000Y-93150000D03*
X133450000Y-92250000D03*
X134250000Y-92250000D03*
X134650000Y-93150000D03*
X135050000Y-92250000D03*
X135450000Y-93150000D03*
X135850000Y-92250000D03*
X136550000Y-93150000D03*
D30*
X132250000Y-86500000D03*
X132250000Y-87300000D03*
X132250000Y-88100000D03*
X132250000Y-88900000D03*
X132250000Y-89700000D03*
X132250000Y-90500000D03*
%TD*%
D31*
%TO.C,Y1*%
X119325000Y-82100000D03*
X121875000Y-82100000D03*
%TD*%
D15*
%TO.C,R3*%
X96925000Y-89500000D03*
X98575000Y-89500000D03*
%TD*%
D16*
%TO.C,J3*%
X96470000Y-98500000D03*
D17*
X99010000Y-98500000D03*
X101550000Y-98500000D03*
X104090000Y-98500000D03*
X106630000Y-98500000D03*
X109170000Y-98500000D03*
X111710000Y-98500000D03*
X114250000Y-98500000D03*
X116790000Y-98500000D03*
X119330000Y-98500000D03*
X121870000Y-98500000D03*
X124410000Y-98500000D03*
X126950000Y-98500000D03*
X129490000Y-98500000D03*
X132030000Y-98500000D03*
X134570000Y-98500000D03*
%TD*%
D15*
%TO.C,R2*%
X137775000Y-81500000D03*
X139425000Y-81500000D03*
%TD*%
D32*
%TO.C,C4*%
X99920000Y-79500000D03*
X99280000Y-79500000D03*
%TD*%
D33*
%TO.C,D1*%
X92112500Y-81300000D03*
X93687500Y-81300000D03*
%TD*%
D19*
%TO.C,C1*%
X98650000Y-81070000D03*
X98650000Y-80430000D03*
%TD*%
D34*
%TO.C,C6*%
X124500000Y-81280000D03*
X124500000Y-81920000D03*
%TD*%
D19*
%TO.C,C3*%
X117900000Y-81920000D03*
X117900000Y-81280000D03*
%TD*%
D35*
%TO.C,D2*%
X136187500Y-81500000D03*
X134612500Y-81500000D03*
%TD*%
M02*
