%TF.GenerationSoftware,KiCad,Pcbnew,7.0.1-0*%
%TF.CreationDate,2024-01-09T13:00:13-05:00*%
%TF.ProjectId,nRF52_sandbox,6e524635-325f-4736-916e-64626f782e6b,rev?*%
%TF.SameCoordinates,Original*%
%TF.FileFunction,Copper,L1,Top*%
%TF.FilePolarity,Positive*%
%FSLAX46Y46*%
G04 Gerber Fmt 4.6, Leading zero omitted, Abs format (unit mm)*
G04 Created by KiCad (PCBNEW 7.0.1-0) date 2024-01-09 13:00:13*
%MOMM*%
%LPD*%
G01*
G04 APERTURE LIST*
G04 Aperture macros list*
%AMRoundRect*
0 Rectangle with rounded corners*
0 $1 Rounding radius*
0 $2 $3 $4 $5 $6 $7 $8 $9 X,Y pos of 4 corners*
0 Add a 4 corners polygon primitive as box body*
4,1,4,$2,$3,$4,$5,$6,$7,$8,$9,$2,$3,0*
0 Add four circle primitives for the rounded corners*
1,1,$1+$1,$2,$3*
1,1,$1+$1,$4,$5*
1,1,$1+$1,$6,$7*
1,1,$1+$1,$8,$9*
0 Add four rect primitives between the rounded corners*
20,1,$1+$1,$2,$3,$4,$5,0*
20,1,$1+$1,$4,$5,$6,$7,0*
20,1,$1+$1,$6,$7,$8,$9,0*
20,1,$1+$1,$8,$9,$2,$3,0*%
G04 Aperture macros list end*
%TA.AperFunction,SMDPad,CuDef*%
%ADD10RoundRect,0.200000X-0.200000X-0.275000X0.200000X-0.275000X0.200000X0.275000X-0.200000X0.275000X0*%
%TD*%
%TA.AperFunction,ComponentPad*%
%ADD11R,1.700000X1.700000*%
%TD*%
%TA.AperFunction,ComponentPad*%
%ADD12O,1.700000X1.700000*%
%TD*%
%TA.AperFunction,SMDPad,CuDef*%
%ADD13RoundRect,0.150000X0.150000X-0.512500X0.150000X0.512500X-0.150000X0.512500X-0.150000X-0.512500X0*%
%TD*%
%TA.AperFunction,SMDPad,CuDef*%
%ADD14RoundRect,0.100000X0.100000X-0.130000X0.100000X0.130000X-0.100000X0.130000X-0.100000X-0.130000X0*%
%TD*%
%TA.AperFunction,SMDPad,CuDef*%
%ADD15RoundRect,0.218750X0.256250X-0.218750X0.256250X0.218750X-0.256250X0.218750X-0.256250X-0.218750X0*%
%TD*%
%TA.AperFunction,SMDPad,CuDef*%
%ADD16RoundRect,0.100000X-0.130000X-0.100000X0.130000X-0.100000X0.130000X0.100000X-0.130000X0.100000X0*%
%TD*%
%TA.AperFunction,SMDPad,CuDef*%
%ADD17R,0.800000X1.700000*%
%TD*%
%TA.AperFunction,SMDPad,CuDef*%
%ADD18R,2.790000X0.740000*%
%TD*%
%TA.AperFunction,SMDPad,CuDef*%
%ADD19R,1.350000X0.400000*%
%TD*%
%TA.AperFunction,ComponentPad*%
%ADD20O,1.800000X0.900000*%
%TD*%
%TA.AperFunction,SMDPad,CuDef*%
%ADD21R,1.400000X1.600000*%
%TD*%
%TA.AperFunction,SMDPad,CuDef*%
%ADD22R,1.900000X1.900000*%
%TD*%
%TA.AperFunction,SMDPad,CuDef*%
%ADD23RoundRect,0.087500X0.175000X0.087500X-0.175000X0.087500X-0.175000X-0.087500X0.175000X-0.087500X0*%
%TD*%
%TA.AperFunction,SMDPad,CuDef*%
%ADD24R,0.400000X0.600000*%
%TD*%
%TA.AperFunction,SMDPad,CuDef*%
%ADD25R,0.600000X0.400000*%
%TD*%
%TA.AperFunction,SMDPad,CuDef*%
%ADD26R,1.000000X1.800000*%
%TD*%
%TA.AperFunction,SMDPad,CuDef*%
%ADD27RoundRect,0.100000X0.130000X0.100000X-0.130000X0.100000X-0.130000X-0.100000X0.130000X-0.100000X0*%
%TD*%
%TA.AperFunction,SMDPad,CuDef*%
%ADD28RoundRect,0.218750X-0.218750X-0.256250X0.218750X-0.256250X0.218750X0.256250X-0.218750X0.256250X0*%
%TD*%
%TA.AperFunction,SMDPad,CuDef*%
%ADD29RoundRect,0.100000X-0.100000X0.130000X-0.100000X-0.130000X0.100000X-0.130000X0.100000X0.130000X0*%
%TD*%
%TA.AperFunction,SMDPad,CuDef*%
%ADD30RoundRect,0.218750X0.218750X0.256250X-0.218750X0.256250X-0.218750X-0.256250X0.218750X-0.256250X0*%
%TD*%
%TA.AperFunction,ViaPad*%
%ADD31C,0.600000*%
%TD*%
%TA.AperFunction,Conductor*%
%ADD32C,0.250000*%
%TD*%
%TA.AperFunction,Conductor*%
%ADD33C,0.300000*%
%TD*%
G04 APERTURE END LIST*
D10*
%TO.P,R1,1*%
%TO.N,Net-(D1-K)*%
X92075000Y-79600000D03*
%TO.P,R1,2*%
%TO.N,GND*%
X93725000Y-79600000D03*
%TD*%
D11*
%TO.P,J4,1,Pin_1*%
%TO.N,/D22|SDA*%
X134550000Y-78500000D03*
D12*
%TO.P,J4,2,Pin_2*%
%TO.N,/D23|SCL*%
X132010000Y-78500000D03*
%TO.P,J4,3,Pin_3*%
%TO.N,/D5*%
X129470000Y-78500000D03*
%TO.P,J4,4,Pin_4*%
%TO.N,/D6*%
X126930000Y-78500000D03*
%TO.P,J4,5,Pin_5*%
%TO.N,/D9*%
X124390000Y-78500000D03*
%TO.P,J4,6,Pin_6*%
%TO.N,/D10*%
X121850000Y-78500000D03*
%TO.P,J4,7,Pin_7*%
%TO.N,/D11*%
X119310000Y-78500000D03*
%TO.P,J4,8,Pin_8*%
%TO.N,/D12*%
X116770000Y-78500000D03*
%TO.P,J4,9,Pin_9*%
%TO.N,/D13*%
X114230000Y-78500000D03*
%TO.P,J4,10,Pin_10*%
%TO.N,+3.3V*%
X111690000Y-78500000D03*
%TO.P,J4,11,Pin_11*%
%TO.N,VBUS*%
X109150000Y-78500000D03*
%TD*%
D13*
%TO.P,U2,1,VIN*%
%TO.N,VBUS*%
X99950000Y-83137500D03*
%TO.P,U2,2,GND*%
%TO.N,GND*%
X100900000Y-83137500D03*
%TO.P,U2,3,EN*%
%TO.N,VBUS*%
X101850000Y-83137500D03*
%TO.P,U2,4,NC*%
%TO.N,unconnected-(U2-NC-Pad4)*%
X101850000Y-80862500D03*
%TO.P,U2,5,VOUT*%
%TO.N,+3.3V*%
X99950000Y-80862500D03*
%TD*%
D10*
%TO.P,R4,1*%
%TO.N,Net-(J1-D-)*%
X96925000Y-87500000D03*
%TO.P,R4,2*%
%TO.N,/USBD-*%
X98575000Y-87500000D03*
%TD*%
D14*
%TO.P,C2,1*%
%TO.N,Net-(U1-XL1{slash}P0.00)*%
X123300000Y-81920000D03*
%TO.P,C2,2*%
%TO.N,GND*%
X123300000Y-81280000D03*
%TD*%
D15*
%TO.P,L1,1,1*%
%TO.N,Net-(U1-DCCH)*%
X123400000Y-91587500D03*
%TO.P,L1,2,2*%
%TO.N,+3.3V*%
X123400000Y-90012500D03*
%TD*%
D16*
%TO.P,C5,1*%
%TO.N,VBUS*%
X100080001Y-84500000D03*
%TO.P,C5,2*%
%TO.N,GND*%
X100720001Y-84500000D03*
%TD*%
D17*
%TO.P,SW2,1,1*%
%TO.N,GND*%
X104700000Y-94000000D03*
%TO.P,SW2,2,2*%
%TO.N,/D7|SWITCH*%
X107300000Y-94000000D03*
%TD*%
D18*
%TO.P,J2,01,01*%
%TO.N,+3.3V*%
X109965000Y-85960000D03*
%TO.P,J2,02,02*%
%TO.N,/SWDIO*%
X114035000Y-85960000D03*
%TO.P,J2,03,03*%
%TO.N,GND*%
X109965000Y-87230000D03*
%TO.P,J2,04,04*%
%TO.N,/SWCLK*%
X114035000Y-87230000D03*
%TO.P,J2,05,05*%
%TO.N,GND*%
X109965000Y-88500000D03*
%TO.P,J2,06,06*%
%TO.N,/SWO*%
X114035000Y-88500000D03*
%TO.P,J2,07,07*%
%TO.N,GND*%
X109965000Y-89770000D03*
%TO.P,J2,08,08*%
%TO.N,unconnected-(J2-Pad08)*%
X114035000Y-89770000D03*
%TO.P,J2,09,09*%
%TO.N,GND*%
X109965000Y-91040000D03*
%TO.P,J2,10,10*%
%TO.N,/RESET*%
X114035000Y-91040000D03*
%TD*%
D19*
%TO.P,J1,1,VBUS*%
%TO.N,VBUS*%
X94175000Y-87200000D03*
%TO.P,J1,2,D-*%
%TO.N,Net-(J1-D-)*%
X94175000Y-87850000D03*
%TO.P,J1,3,D+*%
%TO.N,Net-(J1-D+)*%
X94175000Y-88500000D03*
%TO.P,J1,4,ID*%
%TO.N,unconnected-(J1-ID-Pad4)*%
X94175000Y-89150000D03*
D20*
%TO.P,J1,5,GND*%
%TO.N,GND*%
X91500000Y-85200000D03*
D21*
X93950000Y-85300000D03*
D22*
X91500000Y-87300000D03*
X91500000Y-89700000D03*
D19*
X94175000Y-89800000D03*
D21*
X93950000Y-91700000D03*
D20*
X91500000Y-91800000D03*
%TD*%
D17*
%TO.P,SW1,1,1*%
%TO.N,GND*%
X100550000Y-94000000D03*
%TO.P,SW1,2,2*%
%TO.N,/RESET*%
X97950000Y-94000000D03*
%TD*%
D23*
%TO.P,U3,1,~{CS}*%
%TO.N,/QSPI_CS*%
X132287500Y-96250000D03*
%TO.P,U3,2,DO(IO1)*%
%TO.N,/QSPI_DATA1*%
X132287500Y-95750000D03*
%TO.P,U3,3,~{WP}*%
%TO.N,/QSPI_DATA2*%
X132287500Y-95250000D03*
%TO.P,U3,4,GND*%
%TO.N,GND*%
X132287500Y-94750000D03*
%TO.P,U3,5,DI(IO0)*%
%TO.N,/QSPI_DATA0*%
X129712500Y-94750000D03*
%TO.P,U3,6,SCK*%
%TO.N,/QSPI_SCK*%
X129712500Y-95250000D03*
%TO.P,U3,7,~{HOLD}*%
%TO.N,/QSPI_DATA3*%
X129712500Y-95750000D03*
%TO.P,U3,8,VCC*%
%TO.N,+3.3V*%
X129712500Y-96250000D03*
%TD*%
D24*
%TO.P,U1,1,GND*%
%TO.N,GND*%
X136550000Y-83850000D03*
%TO.P,U1,2,GND*%
X135450000Y-83850000D03*
%TO.P,U1,3,P1.10*%
%TO.N,/D4|LED2*%
X134650000Y-83850000D03*
%TO.P,U1,4,P1.11*%
%TO.N,unconnected-(U1-P1.11-Pad4)*%
X133050000Y-83850000D03*
%TO.P,U1,5,P1.12*%
%TO.N,unconnected-(U1-P1.12-Pad5)*%
X132650000Y-84750000D03*
%TO.P,U1,6,P1.13*%
%TO.N,unconnected-(U1-P1.13-Pad6)*%
X132250000Y-83850000D03*
%TO.P,U1,7,P1.14*%
%TO.N,unconnected-(U1-P1.14-Pad7)*%
X131850000Y-84750000D03*
%TO.P,U1,8,P1.15*%
%TO.N,/D3|LED1*%
X131450000Y-83850000D03*
%TO.P,U1,9,P0.03/AIN1*%
%TO.N,/A5*%
X131050000Y-84750000D03*
%TO.P,U1,10,P0.29/AIN5*%
%TO.N,/A6|VDIV*%
X130650000Y-83850000D03*
%TO.P,U1,11,P0.02/AIN0*%
%TO.N,/A4*%
X130250000Y-84750000D03*
%TO.P,U1,12,P0.31/AIN7*%
%TO.N,/A7|AREF*%
X129850000Y-83850000D03*
%TO.P,U1,13,P0.28/AIN4*%
%TO.N,/A3*%
X129450000Y-84750000D03*
%TO.P,U1,14,P0.30/AIN6*%
%TO.N,/A2*%
X129050000Y-83850000D03*
D25*
%TO.P,U1,15,GND*%
%TO.N,GND*%
X125650000Y-83700000D03*
%TO.P,U1,16,P0.27*%
%TO.N,/D10*%
X125650000Y-84500000D03*
%TO.P,U1,17,XL1/P0.00*%
%TO.N,Net-(U1-XL1{slash}P0.00)*%
X125650000Y-85300000D03*
%TO.P,U1,18,XL2/P0.01*%
%TO.N,Net-(U1-XL2{slash}P0.01)*%
X125650000Y-86100000D03*
%TO.P,U1,19,P0.26*%
%TO.N,/D9*%
X126550000Y-86500000D03*
%TO.P,U1,20,P0.04/AIN2*%
%TO.N,/A0*%
X125650000Y-86900000D03*
%TO.P,U1,21,P0.05/AIN3*%
%TO.N,/A1*%
X126550000Y-87300000D03*
%TO.P,U1,22,P0.06*%
%TO.N,/D11*%
X125650000Y-87700000D03*
%TO.P,U1,23,TRACECLK/P0.07*%
%TO.N,/D6*%
X126550000Y-88100000D03*
%TO.P,U1,24,P0.08*%
%TO.N,/D12*%
X125650000Y-88500000D03*
%TO.P,U1,25,P1.08*%
%TO.N,/D5*%
X126550000Y-88900000D03*
%TO.P,U1,26,TRACEDATA3/P1.09*%
%TO.N,/D13*%
X125650000Y-89300000D03*
%TO.P,U1,27,TRACEDATA2/P0.11*%
%TO.N,/D23|SCL*%
X126550000Y-89700000D03*
%TO.P,U1,28,VDD*%
%TO.N,+3.3V*%
X125650000Y-90100000D03*
%TO.P,U1,29,TRACEDATA1/P0.12*%
%TO.N,/D22|SDA*%
X126550000Y-90500000D03*
%TO.P,U1,30,VDDH*%
%TO.N,+3.3V*%
X125650000Y-90900000D03*
%TO.P,U1,31,DCCH*%
%TO.N,Net-(U1-DCCH)*%
X125650000Y-91700000D03*
%TO.P,U1,32,VBUS*%
%TO.N,VBUS*%
X125650000Y-92500000D03*
%TO.P,U1,33,GND*%
%TO.N,GND*%
X125650000Y-93300000D03*
D24*
%TO.P,U1,34,D-*%
%TO.N,/USBD-*%
X126650000Y-93150000D03*
%TO.P,U1,35,D+*%
%TO.N,/USBD+*%
X127450000Y-93150000D03*
%TO.P,U1,36,P0.14*%
%TO.N,/D26|SCK*%
X127850000Y-92250000D03*
%TO.P,U1,37,P0.13*%
%TO.N,/D25|MOSI*%
X128250000Y-93150000D03*
%TO.P,U1,38,P0.16*%
%TO.N,/D8|NEOPIX*%
X128650000Y-92250000D03*
%TO.P,U1,39,P0.15*%
%TO.N,/D24|MISO*%
X129050000Y-93150000D03*
%TO.P,U1,40,~{RESET}/P0.18*%
%TO.N,/RESET*%
X129450000Y-92250000D03*
%TO.P,U1,41,P0.17*%
%TO.N,/QSPI_DATA0*%
X129850000Y-93150000D03*
%TO.P,U1,42,P0.19*%
%TO.N,/QSPI_SCK*%
X130250000Y-92250000D03*
%TO.P,U1,43,P0.21*%
%TO.N,/QSPI_DATA3*%
X131050000Y-92250000D03*
%TO.P,U1,44,P0.20*%
%TO.N,/QSPI_CS*%
X131450000Y-93150000D03*
%TO.P,U1,45,P0.23*%
%TO.N,/QSPI_DATA2*%
X131850000Y-92250000D03*
%TO.P,U1,46,P0.22*%
%TO.N,/QSPI_DATA1*%
X132250000Y-93150000D03*
%TO.P,U1,47,TRACEDATA0/P1.00*%
%TO.N,/SWO*%
X132650000Y-92250000D03*
%TO.P,U1,48,P0.24*%
%TO.N,/RXD*%
X133050000Y-93150000D03*
%TO.P,U1,49,P0.25*%
%TO.N,/TXD*%
X133450000Y-92250000D03*
%TO.P,U1,50,P1.02*%
%TO.N,/D7|SWITCH*%
X134250000Y-92250000D03*
%TO.P,U1,51,SWDIO*%
%TO.N,/SWDIO*%
X134650000Y-93150000D03*
%TO.P,U1,52,P0.09/NFC1*%
%TO.N,unconnected-(U1-P0.09{slash}NFC1-Pad52)*%
X135050000Y-92250000D03*
%TO.P,U1,53,SWDCLK*%
%TO.N,/SWCLK*%
X135450000Y-93150000D03*
%TO.P,U1,54,P0.10/NFC2*%
%TO.N,/D2*%
X135850000Y-92250000D03*
%TO.P,U1,55,GND*%
%TO.N,GND*%
X136550000Y-93150000D03*
D25*
%TO.P,U1,56,P1.04*%
%TO.N,unconnected-(U1-P1.04-Pad56)*%
X132250000Y-86500000D03*
%TO.P,U1,57,P1.06*%
%TO.N,unconnected-(U1-P1.06-Pad57)*%
X132250000Y-87300000D03*
%TO.P,U1,58,P1.07*%
%TO.N,unconnected-(U1-P1.07-Pad58)*%
X132250000Y-88100000D03*
%TO.P,U1,59,P1.05*%
%TO.N,unconnected-(U1-P1.05-Pad59)*%
X132250000Y-88900000D03*
%TO.P,U1,60,P1.03*%
%TO.N,unconnected-(U1-P1.03-Pad60)*%
X132250000Y-89700000D03*
%TO.P,U1,61,P1.01*%
%TO.N,unconnected-(U1-P1.01-Pad61)*%
X132250000Y-90500000D03*
%TD*%
D26*
%TO.P,Y1,1,1*%
%TO.N,Net-(U1-XL2{slash}P0.01)*%
X119325000Y-82100000D03*
%TO.P,Y1,2,2*%
%TO.N,Net-(U1-XL1{slash}P0.00)*%
X121875000Y-82100000D03*
%TD*%
D10*
%TO.P,R3,1*%
%TO.N,Net-(J1-D+)*%
X96925000Y-89500000D03*
%TO.P,R3,2*%
%TO.N,/USBD+*%
X98575000Y-89500000D03*
%TD*%
D11*
%TO.P,J3,1,Pin_1*%
%TO.N,/RESET*%
X96470000Y-98500000D03*
D12*
%TO.P,J3,2,Pin_2*%
%TO.N,GND*%
X99010000Y-98500000D03*
%TO.P,J3,3,Pin_3*%
%TO.N,/A6|VDIV*%
X101550000Y-98500000D03*
%TO.P,J3,4,Pin_4*%
%TO.N,/A7|AREF*%
X104090000Y-98500000D03*
%TO.P,J3,5,Pin_5*%
%TO.N,/A0*%
X106630000Y-98500000D03*
%TO.P,J3,6,Pin_6*%
%TO.N,/A1*%
X109170000Y-98500000D03*
%TO.P,J3,7,Pin_7*%
%TO.N,/A2*%
X111710000Y-98500000D03*
%TO.P,J3,8,Pin_8*%
%TO.N,/A3*%
X114250000Y-98500000D03*
%TO.P,J3,9,Pin_9*%
%TO.N,/A4*%
X116790000Y-98500000D03*
%TO.P,J3,10,Pin_10*%
%TO.N,/A5*%
X119330000Y-98500000D03*
%TO.P,J3,11,Pin_11*%
%TO.N,/D26|SCK*%
X121870000Y-98500000D03*
%TO.P,J3,12,Pin_12*%
%TO.N,/D25|MOSI*%
X124410000Y-98500000D03*
%TO.P,J3,13,Pin_13*%
%TO.N,/D24|MISO*%
X126950000Y-98500000D03*
%TO.P,J3,14,Pin_14*%
%TO.N,/RXD*%
X129490000Y-98500000D03*
%TO.P,J3,15,Pin_15*%
%TO.N,/TXD*%
X132030000Y-98500000D03*
%TO.P,J3,16,Pin_16*%
%TO.N,/D2*%
X134570000Y-98500000D03*
%TD*%
D10*
%TO.P,R2,1*%
%TO.N,Net-(D2-K)*%
X137775000Y-81500000D03*
%TO.P,R2,2*%
%TO.N,GND*%
X139425000Y-81500000D03*
%TD*%
D27*
%TO.P,C4,1*%
%TO.N,+3.3V*%
X99920000Y-79500000D03*
%TO.P,C4,2*%
%TO.N,GND*%
X99280000Y-79500000D03*
%TD*%
D28*
%TO.P,D1,1,K*%
%TO.N,Net-(D1-K)*%
X92112500Y-81300000D03*
%TO.P,D1,2,A*%
%TO.N,/D3|LED1*%
X93687500Y-81300000D03*
%TD*%
D14*
%TO.P,C1,1*%
%TO.N,+3.3V*%
X98650000Y-81070000D03*
%TO.P,C1,2*%
%TO.N,GND*%
X98650000Y-80430000D03*
%TD*%
D29*
%TO.P,C6,1*%
%TO.N,/A7|AREF*%
X124500000Y-81280000D03*
%TO.P,C6,2*%
%TO.N,GND*%
X124500000Y-81920000D03*
%TD*%
D14*
%TO.P,C3,1*%
%TO.N,Net-(U1-XL2{slash}P0.01)*%
X117900000Y-81920000D03*
%TO.P,C3,2*%
%TO.N,GND*%
X117900000Y-81280000D03*
%TD*%
D30*
%TO.P,D2,1,K*%
%TO.N,Net-(D2-K)*%
X136187500Y-81500000D03*
%TO.P,D2,2,A*%
%TO.N,/D4|LED2*%
X134612500Y-81500000D03*
%TD*%
D31*
%TO.N,+3.3V*%
X109965000Y-83565000D03*
X130400000Y-90800000D03*
X128800000Y-95500000D03*
%TO.N,GND*%
X132800000Y-94000000D03*
X124700000Y-82900000D03*
%TO.N,VBUS*%
X103300000Y-83200000D03*
%TO.N,/D3|LED1*%
X124500000Y-80000000D03*
X94800000Y-82500000D03*
%TO.N,/RESET*%
X117100000Y-91400000D03*
X129400000Y-91400000D03*
X111500000Y-92500000D03*
%TO.N,/A7|AREF*%
X125800000Y-81400000D03*
%TO.N,/A6|VDIV*%
X125200000Y-80700000D03*
%TO.N,/A0*%
X117900000Y-96100000D03*
X123900000Y-86724500D03*
%TO.N,/A1*%
X118900000Y-96800000D03*
X127500000Y-87300000D03*
%TO.N,/A2*%
X125300000Y-82100000D03*
%TO.N,/A3*%
X128300000Y-84600000D03*
%TO.N,/A4*%
X128300000Y-85400000D03*
%TO.N,/A5*%
X128300000Y-86200000D03*
%TO.N,/D26|SCK*%
X126600000Y-92300000D03*
%TO.N,/D22|SDA*%
X131200000Y-87400000D03*
%TO.N,/D23|SCL*%
X130200000Y-87400000D03*
%TO.N,/D5*%
X129200000Y-87300000D03*
%TO.N,/D6*%
X127600000Y-83400000D03*
%TO.N,/D9*%
X126550000Y-83400000D03*
%TO.N,/D7|SWITCH*%
X135100000Y-90000000D03*
X124600000Y-96100000D03*
%TO.N,/QSPI_DATA2*%
X133000000Y-95200000D03*
X131600000Y-91300000D03*
%TO.N,/SWO*%
X132600000Y-91300000D03*
X117200000Y-90000000D03*
%TO.N,/SWDIO*%
X118300000Y-88400000D03*
X135200000Y-95100000D03*
%TO.N,/SWCLK*%
X135450000Y-94200000D03*
X117700000Y-89200000D03*
%TD*%
D32*
%TO.N,Net-(U1-XL1{slash}P0.00)*%
X123300000Y-81920000D02*
X122055000Y-81920000D01*
%TO.N,Net-(U1-XL2{slash}P0.01)*%
X119325000Y-82100000D02*
X118080000Y-82100000D01*
X118080000Y-82100000D02*
X117900000Y-81920000D01*
D33*
%TO.N,+3.3V*%
X99950000Y-79530000D02*
X99920000Y-79500000D01*
X105900000Y-79500000D02*
X109965000Y-83565000D01*
X99920000Y-79500000D02*
X105900000Y-79500000D01*
X99950000Y-79530000D02*
X99950000Y-80862500D01*
X111690000Y-79090000D02*
X122612500Y-90012500D01*
X122612500Y-90012500D02*
X123400000Y-90012500D01*
X99980000Y-79500000D02*
X99950000Y-79530000D01*
X128800000Y-95577297D02*
X129472703Y-96250000D01*
X125650000Y-90900000D02*
X125650000Y-90100000D01*
X128700000Y-91100000D02*
X129000000Y-90800000D01*
X99742500Y-81070000D02*
X99950000Y-80862500D01*
X123487500Y-90100000D02*
X123400000Y-90012500D01*
X125650000Y-90900000D02*
X125850000Y-91100000D01*
X109965000Y-83565000D02*
X109965000Y-85960000D01*
X129472703Y-96250000D02*
X129712500Y-96250000D01*
X111690000Y-78500000D02*
X111690000Y-79090000D01*
X125850000Y-91100000D02*
X128700000Y-91100000D01*
X98650000Y-81070000D02*
X99742500Y-81070000D01*
X128800000Y-95500000D02*
X128800000Y-95577297D01*
X125650000Y-90100000D02*
X123487500Y-90100000D01*
X129000000Y-90800000D02*
X130400000Y-90800000D01*
D32*
%TO.N,GND*%
X124500000Y-81920000D02*
X124500000Y-82700000D01*
X132800000Y-94000000D02*
X132287500Y-94512500D01*
X132287500Y-94512500D02*
X132287500Y-94750000D01*
X124500000Y-82700000D02*
X124700000Y-82900000D01*
%TO.N,Net-(U1-XL1{slash}P0.00)*%
X121875000Y-82575000D02*
X124600000Y-85300000D01*
X124600000Y-85300000D02*
X125650000Y-85300000D01*
%TO.N,Net-(U1-XL2{slash}P0.01)*%
X119325000Y-82425000D02*
X119325000Y-82100000D01*
X125650000Y-86100000D02*
X123000000Y-86100000D01*
X123000000Y-86100000D02*
X119325000Y-82425000D01*
D33*
%TO.N,VBUS*%
X94175000Y-87200000D02*
X95400000Y-87200000D01*
X121500000Y-90100000D02*
X121500000Y-91400000D01*
X111800000Y-80400000D02*
X121500000Y-90100000D01*
X99950000Y-84369999D02*
X100080001Y-84500000D01*
X101850000Y-82350000D02*
X101850000Y-83137500D01*
X100300000Y-82000000D02*
X101500000Y-82000000D01*
X99950000Y-83137500D02*
X99950000Y-84369999D01*
X95400000Y-87200000D02*
X99462500Y-83137500D01*
X99950000Y-83137500D02*
X99950000Y-82350000D01*
X121500000Y-91400000D02*
X122600000Y-92500000D01*
X111050000Y-80400000D02*
X111800000Y-80400000D01*
X99950000Y-82350000D02*
X100300000Y-82000000D01*
X122600000Y-92500000D02*
X125650000Y-92500000D01*
X103300000Y-83200000D02*
X101912500Y-83200000D01*
X101912500Y-83200000D02*
X101850000Y-83137500D01*
X99462500Y-83137500D02*
X99950000Y-83137500D01*
X109150000Y-78500000D02*
X111050000Y-80400000D01*
X101500000Y-82000000D02*
X101850000Y-82350000D01*
D32*
%TO.N,Net-(D1-K)*%
X92112500Y-79637500D02*
X92075000Y-79600000D01*
X92112500Y-81300000D02*
X92112500Y-79637500D01*
%TO.N,/D3|LED1*%
X128300000Y-80000000D02*
X124500000Y-80000000D01*
X131450000Y-83150000D02*
X128500000Y-80200000D01*
X94800000Y-82500000D02*
X94800000Y-82412500D01*
X94800000Y-82412500D02*
X93687500Y-81300000D01*
X131450000Y-83850000D02*
X131450000Y-83150000D01*
X128500000Y-80200000D02*
X128300000Y-80000000D01*
%TO.N,Net-(D2-K)*%
X136187500Y-81500000D02*
X137775000Y-81500000D01*
%TO.N,/D4|LED2*%
X134650000Y-81537500D02*
X134612500Y-81500000D01*
X134650000Y-83850000D02*
X134650000Y-81537500D01*
%TO.N,Net-(J1-D-)*%
X94175000Y-87850000D02*
X96575000Y-87850000D01*
X96575000Y-87850000D02*
X96925000Y-87500000D01*
%TO.N,Net-(J1-D+)*%
X94175000Y-88500000D02*
X95925000Y-88500000D01*
X95925000Y-88500000D02*
X96925000Y-89500000D01*
%TO.N,/RESET*%
X97950000Y-94550000D02*
X96470000Y-96030000D01*
X116740000Y-91040000D02*
X114035000Y-91040000D01*
X96470000Y-96030000D02*
X96470000Y-98500000D01*
X129450000Y-92250000D02*
X129450000Y-91450000D01*
X113500000Y-92500000D02*
X111500000Y-92500000D01*
X129450000Y-91450000D02*
X129400000Y-91400000D01*
X114035000Y-91040000D02*
X114035000Y-91965000D01*
X97950000Y-94000000D02*
X97950000Y-94550000D01*
X114035000Y-91965000D02*
X113500000Y-92500000D01*
X117100000Y-91400000D02*
X116740000Y-91040000D01*
%TO.N,/A7|AREF*%
X125680000Y-81280000D02*
X124500000Y-81280000D01*
X128100000Y-81400000D02*
X129850000Y-83150000D01*
X129850000Y-83150000D02*
X129850000Y-83850000D01*
X125800000Y-81400000D02*
X128100000Y-81400000D01*
X125800000Y-81400000D02*
X125680000Y-81280000D01*
%TO.N,/A6|VDIV*%
X125200000Y-80700000D02*
X128050000Y-80700000D01*
X128050000Y-80700000D02*
X130650000Y-83300000D01*
X130650000Y-83300000D02*
X130650000Y-83850000D01*
%TO.N,/A0*%
X125650000Y-86900000D02*
X124075500Y-86900000D01*
X124075500Y-86900000D02*
X123900000Y-86724500D01*
X117900000Y-96100000D02*
X109030000Y-96100000D01*
X109030000Y-96100000D02*
X106630000Y-98500000D01*
%TO.N,/A1*%
X118900000Y-96800000D02*
X118600000Y-97100000D01*
X126550000Y-87300000D02*
X127500000Y-87300000D01*
X118600000Y-97100000D02*
X110570000Y-97100000D01*
X110570000Y-97100000D02*
X109170000Y-98500000D01*
%TO.N,/A2*%
X129050000Y-83750000D02*
X129050000Y-83850000D01*
X125300000Y-82100000D02*
X127400000Y-82100000D01*
X127400000Y-82100000D02*
X129050000Y-83750000D01*
%TO.N,/A3*%
X128450000Y-84750000D02*
X128300000Y-84600000D01*
X129450000Y-84750000D02*
X128450000Y-84750000D01*
%TO.N,/A4*%
X130250000Y-84850000D02*
X129700000Y-85400000D01*
X129700000Y-85400000D02*
X128300000Y-85400000D01*
X130250000Y-84750000D02*
X130250000Y-84850000D01*
%TO.N,/A5*%
X129700000Y-86200000D02*
X128300000Y-86200000D01*
X131050000Y-84750000D02*
X131050000Y-84850000D01*
X131050000Y-84850000D02*
X129700000Y-86200000D01*
%TO.N,/D26|SCK*%
X126600000Y-92300000D02*
X126650000Y-92250000D01*
X126650000Y-92250000D02*
X127850000Y-92250000D01*
%TO.N,/D25|MOSI*%
X128250000Y-93150000D02*
X128250000Y-93850000D01*
X124410000Y-97690000D02*
X124410000Y-98500000D01*
X128250000Y-93850000D02*
X124410000Y-97690000D01*
%TO.N,/D24|MISO*%
X129050000Y-94050000D02*
X126950000Y-96150000D01*
X129050000Y-93150000D02*
X129050000Y-94050000D01*
X126950000Y-96150000D02*
X126950000Y-98500000D01*
%TO.N,/RXD*%
X133050000Y-93150000D02*
X133725000Y-93825000D01*
X130990000Y-97000000D02*
X129490000Y-98500000D01*
X133725000Y-96375000D02*
X133100000Y-97000000D01*
X133100000Y-97000000D02*
X130990000Y-97000000D01*
X133725000Y-93825000D02*
X133725000Y-96375000D01*
%TO.N,/TXD*%
X134200000Y-96800000D02*
X132500000Y-98500000D01*
X132500000Y-98500000D02*
X132030000Y-98500000D01*
X134200000Y-93100000D02*
X134200000Y-96800000D01*
X133450000Y-92250000D02*
X133450000Y-92350000D01*
X133450000Y-92350000D02*
X134200000Y-93100000D01*
%TO.N,/D2*%
X136000000Y-97070000D02*
X134570000Y-98500000D01*
X136000000Y-92400000D02*
X136000000Y-97070000D01*
X135850000Y-92250000D02*
X136000000Y-92400000D01*
%TO.N,/D22|SDA*%
X128100000Y-90500000D02*
X131200000Y-87400000D01*
X126550000Y-90500000D02*
X128100000Y-90500000D01*
%TO.N,/D23|SCL*%
X126550000Y-89700000D02*
X127900000Y-89700000D01*
X127900000Y-89700000D02*
X130200000Y-87400000D01*
%TO.N,/D5*%
X126550000Y-88900000D02*
X127600000Y-88900000D01*
X127600000Y-88900000D02*
X129200000Y-87300000D01*
%TO.N,/D6*%
X128200000Y-86842463D02*
X127600000Y-86242463D01*
X127700000Y-88100000D02*
X128200000Y-87600000D01*
X126550000Y-88100000D02*
X127700000Y-88100000D01*
X127600000Y-86242463D02*
X127600000Y-83400000D01*
X128200000Y-87600000D02*
X128200000Y-86842463D01*
%TO.N,/D9*%
X126550000Y-83400000D02*
X126550000Y-86500000D01*
%TO.N,/D10*%
X123800000Y-80450000D02*
X121850000Y-78500000D01*
X125100000Y-84500000D02*
X123800000Y-83200000D01*
X123800000Y-83200000D02*
X123800000Y-80450000D01*
X125650000Y-84500000D02*
X125100000Y-84500000D01*
%TO.N,/D11*%
X122400000Y-87700000D02*
X117300000Y-82600000D01*
X125650000Y-87700000D02*
X122400000Y-87700000D01*
X117300000Y-82600000D02*
X117300000Y-80510000D01*
X117300000Y-80510000D02*
X119310000Y-78500000D01*
%TO.N,/D12*%
X122600000Y-88500000D02*
X116770000Y-82670000D01*
X116770000Y-82670000D02*
X116770000Y-78500000D01*
X125650000Y-88500000D02*
X122600000Y-88500000D01*
%TO.N,/D13*%
X125550000Y-89300000D02*
X125350000Y-89100000D01*
X114230000Y-80730000D02*
X114230000Y-78500000D01*
X125350000Y-89100000D02*
X122600000Y-89100000D01*
X125650000Y-89300000D02*
X125550000Y-89300000D01*
X122600000Y-89100000D02*
X114230000Y-80730000D01*
%TO.N,Net-(U1-DCCH)*%
X125550000Y-91600000D02*
X123412500Y-91600000D01*
X125650000Y-91700000D02*
X125550000Y-91600000D01*
X123412500Y-91600000D02*
X123400000Y-91587500D01*
%TO.N,/USBD+*%
X127450000Y-93150000D02*
X127450000Y-93700000D01*
X126450000Y-94700000D02*
X110000000Y-94700000D01*
X104800000Y-89500000D02*
X98575000Y-89500000D01*
X110000000Y-94700000D02*
X104800000Y-89500000D01*
X127450000Y-93700000D02*
X126450000Y-94700000D01*
%TO.N,/USBD-*%
X126650000Y-93650000D02*
X126300000Y-94000000D01*
X103900000Y-87500000D02*
X98575000Y-87500000D01*
X126650000Y-93150000D02*
X126650000Y-93650000D01*
X110400000Y-94000000D02*
X103900000Y-87500000D01*
X126300000Y-94000000D02*
X110400000Y-94000000D01*
%TO.N,/D7|SWITCH*%
X107300000Y-94400000D02*
X107300000Y-94000000D01*
X108300000Y-95400000D02*
X107300000Y-94400000D01*
X124600000Y-96100000D02*
X123900000Y-95400000D01*
X134250000Y-90850000D02*
X134250000Y-92250000D01*
X135100000Y-90000000D02*
X134250000Y-90850000D01*
X123900000Y-95400000D02*
X108300000Y-95400000D01*
%TO.N,/QSPI_DATA0*%
X129850000Y-94612500D02*
X129712500Y-94750000D01*
X129850000Y-93150000D02*
X129850000Y-94612500D01*
%TO.N,/QSPI_SCK*%
X130050000Y-95250000D02*
X129712500Y-95250000D01*
X130400000Y-94900000D02*
X130050000Y-95250000D01*
X130400000Y-92400000D02*
X130400000Y-94900000D01*
X130250000Y-92250000D02*
X130400000Y-92400000D01*
%TO.N,/QSPI_DATA3*%
X130300000Y-95800000D02*
X129762500Y-95800000D01*
X130800000Y-95300000D02*
X130300000Y-95800000D01*
X131050000Y-92250000D02*
X130800000Y-92500000D01*
X130800000Y-92500000D02*
X130800000Y-95300000D01*
X129762500Y-95800000D02*
X129712500Y-95750000D01*
%TO.N,/QSPI_CS*%
X131650000Y-96250000D02*
X132287500Y-96250000D01*
X131300000Y-95900000D02*
X131650000Y-96250000D01*
X131450000Y-93150000D02*
X131300000Y-93300000D01*
X131300000Y-93300000D02*
X131300000Y-95900000D01*
%TO.N,/QSPI_DATA2*%
X131850000Y-92250000D02*
X131850000Y-91550000D01*
X132950000Y-95250000D02*
X132287500Y-95250000D01*
X131850000Y-91550000D02*
X131600000Y-91300000D01*
X133000000Y-95200000D02*
X132950000Y-95250000D01*
%TO.N,/QSPI_DATA1*%
X131700000Y-95500000D02*
X131950000Y-95750000D01*
X131700000Y-93900000D02*
X131700000Y-95500000D01*
X132250000Y-93350000D02*
X131700000Y-93900000D01*
X131950000Y-95750000D02*
X132287500Y-95750000D01*
X132250000Y-93150000D02*
X132250000Y-93350000D01*
%TO.N,/SWO*%
X132650000Y-91350000D02*
X132650000Y-92250000D01*
X132600000Y-91300000D02*
X132650000Y-91350000D01*
X117200000Y-90000000D02*
X115700000Y-88500000D01*
X115700000Y-88500000D02*
X114035000Y-88500000D01*
%TO.N,/SWDIO*%
X134700000Y-94600000D02*
X134700000Y-93200000D01*
X118300000Y-88400000D02*
X118300000Y-88300000D01*
X115960000Y-85960000D02*
X114035000Y-85960000D01*
X118300000Y-88300000D02*
X115960000Y-85960000D01*
X134700000Y-93200000D02*
X134650000Y-93150000D01*
X135200000Y-95100000D02*
X134700000Y-94600000D01*
%TO.N,/SWCLK*%
X115730000Y-87230000D02*
X114035000Y-87230000D01*
X117700000Y-89200000D02*
X115730000Y-87230000D01*
X135450000Y-94200000D02*
X135450000Y-93150000D01*
%TD*%
%TA.AperFunction,Conductor*%
%TO.N,GND*%
G36*
X132711527Y-93513653D02*
G01*
X132724500Y-93533067D01*
X132741494Y-93558502D01*
X132741496Y-93558504D01*
X132791278Y-93591767D01*
X132835180Y-93600500D01*
X133080232Y-93600500D01*
X133108551Y-93606133D01*
X133132558Y-93622174D01*
X133427826Y-93917442D01*
X133443867Y-93941449D01*
X133449500Y-93969768D01*
X133449500Y-94832416D01*
X133436285Y-94874620D01*
X133401360Y-94901750D01*
X133357199Y-94904117D01*
X133319574Y-94880875D01*
X133315023Y-94875623D01*
X133298049Y-94856033D01*
X133189069Y-94785996D01*
X133064772Y-94749500D01*
X132935228Y-94749500D01*
X132851787Y-94774000D01*
X132810931Y-94785996D01*
X132701949Y-94856034D01*
X132679725Y-94881683D01*
X132666350Y-94897120D01*
X132664323Y-94899459D01*
X132639138Y-94918313D01*
X132608397Y-94925000D01*
X132495743Y-94925000D01*
X132490667Y-94924500D01*
X132485942Y-94924500D01*
X132186500Y-94924500D01*
X132149500Y-94914586D01*
X132122414Y-94887500D01*
X132112500Y-94850500D01*
X132112500Y-94425000D01*
X132462500Y-94425000D01*
X132462500Y-94575000D01*
X132687248Y-94575000D01*
X132687247Y-94574999D01*
X132686219Y-94569832D01*
X132633727Y-94491272D01*
X132555167Y-94438780D01*
X132485892Y-94425000D01*
X132462500Y-94425000D01*
X132112500Y-94425000D01*
X132089108Y-94425000D01*
X132063937Y-94430007D01*
X132021182Y-94425796D01*
X131987971Y-94398541D01*
X131975500Y-94357429D01*
X131975500Y-94044768D01*
X131981133Y-94016449D01*
X131997174Y-93992442D01*
X132367442Y-93622174D01*
X132391449Y-93606133D01*
X132419768Y-93600500D01*
X132464819Y-93600500D01*
X132464820Y-93600500D01*
X132508722Y-93591767D01*
X132558504Y-93558504D01*
X132588472Y-93513653D01*
X132626213Y-93484692D01*
X132673787Y-93484692D01*
X132711527Y-93513653D01*
G37*
%TD.AperFunction*%
%TA.AperFunction,Conductor*%
G36*
X124663000Y-81729914D02*
G01*
X124690086Y-81757000D01*
X124700000Y-81794000D01*
X124700000Y-82283853D01*
X124772284Y-82235554D01*
X124812516Y-82223088D01*
X124853033Y-82234593D01*
X124880710Y-82266342D01*
X124914769Y-82340920D01*
X124917118Y-82346063D01*
X125001951Y-82443967D01*
X125110931Y-82514004D01*
X125235228Y-82550500D01*
X125364770Y-82550500D01*
X125364772Y-82550500D01*
X125489069Y-82514004D01*
X125598049Y-82443967D01*
X125635246Y-82401038D01*
X125660429Y-82382187D01*
X125691170Y-82375500D01*
X127255232Y-82375500D01*
X127283551Y-82381133D01*
X127307558Y-82397174D01*
X127735977Y-82825593D01*
X127757074Y-82868696D01*
X127747293Y-82915677D01*
X127710748Y-82946780D01*
X127675411Y-82948360D01*
X127675411Y-82949500D01*
X127664772Y-82949500D01*
X127535228Y-82949500D01*
X127410931Y-82985995D01*
X127410931Y-82985996D01*
X127301951Y-83056033D01*
X127217117Y-83153937D01*
X127163302Y-83271774D01*
X127148247Y-83376491D01*
X127137511Y-83399999D01*
X127148247Y-83423508D01*
X127163302Y-83528225D01*
X127217118Y-83646064D01*
X127306426Y-83749132D01*
X127319834Y-83771731D01*
X127324500Y-83797591D01*
X127324500Y-86208043D01*
X127323078Y-86222481D01*
X127319368Y-86241133D01*
X127319103Y-86242463D01*
X127324500Y-86269595D01*
X127324500Y-86269596D01*
X127340485Y-86349958D01*
X127346341Y-86358722D01*
X127379604Y-86408504D01*
X127401376Y-86441087D01*
X127415464Y-86450500D01*
X127418316Y-86452406D01*
X127429529Y-86461608D01*
X127717430Y-86749509D01*
X127738527Y-86792613D01*
X127728745Y-86839595D01*
X127692198Y-86870696D01*
X127644257Y-86872838D01*
X127602120Y-86860466D01*
X127564772Y-86849500D01*
X127435228Y-86849500D01*
X127310931Y-86885996D01*
X127201951Y-86956033D01*
X127164753Y-86998961D01*
X127139571Y-87017813D01*
X127108830Y-87024500D01*
X127020110Y-87024500D01*
X126985226Y-87015762D01*
X126958582Y-86991612D01*
X126958504Y-86991496D01*
X126958502Y-86991495D01*
X126958502Y-86991494D01*
X126927174Y-86970562D01*
X126913653Y-86961527D01*
X126884692Y-86923787D01*
X126884692Y-86876213D01*
X126913653Y-86838472D01*
X126958504Y-86808504D01*
X126991767Y-86758722D01*
X127000500Y-86714820D01*
X127000500Y-86285180D01*
X126991767Y-86241278D01*
X126958504Y-86191496D01*
X126908722Y-86158233D01*
X126885062Y-86153526D01*
X126842297Y-86127894D01*
X126825500Y-86080949D01*
X126825500Y-83797591D01*
X126830166Y-83771731D01*
X126843574Y-83749132D01*
X126932881Y-83646064D01*
X126932880Y-83646064D01*
X126932882Y-83646063D01*
X126986697Y-83528226D01*
X127001753Y-83423507D01*
X127012488Y-83399999D01*
X127001753Y-83376491D01*
X126986697Y-83271774D01*
X126932882Y-83153937D01*
X126907269Y-83124378D01*
X126848049Y-83056033D01*
X126739069Y-82985996D01*
X126614772Y-82949500D01*
X126485228Y-82949500D01*
X126360931Y-82985995D01*
X126360931Y-82985996D01*
X126251951Y-83056033D01*
X126167117Y-83153937D01*
X126113302Y-83271774D01*
X126109349Y-83299270D01*
X126093444Y-83335513D01*
X126061135Y-83358375D01*
X126021665Y-83361316D01*
X125964776Y-83350000D01*
X125850000Y-83350000D01*
X125850000Y-83826000D01*
X125840086Y-83863000D01*
X125813000Y-83890086D01*
X125776000Y-83900000D01*
X125200001Y-83900000D01*
X125200001Y-83914777D01*
X125208702Y-83958526D01*
X125241856Y-84008144D01*
X125286794Y-84038170D01*
X125315756Y-84075912D01*
X125315756Y-84123486D01*
X125286794Y-84161229D01*
X125255792Y-84181943D01*
X125207427Y-84194057D01*
X125162355Y-84172739D01*
X124489616Y-83500000D01*
X125200000Y-83500000D01*
X125450000Y-83500000D01*
X125450000Y-83350001D01*
X125335223Y-83350001D01*
X125291473Y-83358702D01*
X125241856Y-83391855D01*
X125208703Y-83441473D01*
X125200000Y-83485226D01*
X125200000Y-83500000D01*
X124489616Y-83500000D01*
X124097174Y-83107558D01*
X124081133Y-83083551D01*
X124075500Y-83055232D01*
X124075500Y-82258285D01*
X124090063Y-82214203D01*
X124128019Y-82187471D01*
X124174430Y-82188611D01*
X124211029Y-82217173D01*
X124219760Y-82230239D01*
X124300000Y-82283854D01*
X124300000Y-81794000D01*
X124309914Y-81757000D01*
X124337000Y-81729914D01*
X124374000Y-81720000D01*
X124626000Y-81720000D01*
X124663000Y-81729914D01*
G37*
%TD.AperFunction*%
%TA.AperFunction,Conductor*%
G36*
X140962500Y-77010414D02*
G01*
X140989586Y-77037500D01*
X140999500Y-77074500D01*
X140999500Y-82226000D01*
X140989586Y-82263000D01*
X140962500Y-82290086D01*
X140925500Y-82300000D01*
X136800000Y-82300000D01*
X136800000Y-83326000D01*
X136790086Y-83363000D01*
X136763000Y-83390086D01*
X136758784Y-83391215D01*
X136750000Y-83400000D01*
X136750000Y-84299999D01*
X136758784Y-84308783D01*
X136763000Y-84309913D01*
X136790086Y-84336999D01*
X136800000Y-84373999D01*
X136800000Y-86126000D01*
X136790086Y-86163000D01*
X136763000Y-86190086D01*
X136726000Y-86200000D01*
X135550000Y-86200000D01*
X135550000Y-87800000D01*
X136726000Y-87800000D01*
X136763000Y-87809914D01*
X136790086Y-87837000D01*
X136800000Y-87874000D01*
X136800000Y-92626000D01*
X136790086Y-92663000D01*
X136763000Y-92690086D01*
X136758784Y-92691215D01*
X136750000Y-92700000D01*
X136750000Y-93599999D01*
X136758784Y-93608783D01*
X136763000Y-93609913D01*
X136790086Y-93636999D01*
X136800000Y-93673999D01*
X136800000Y-94700000D01*
X140925500Y-94700000D01*
X140962500Y-94709914D01*
X140989586Y-94737000D01*
X140999500Y-94774000D01*
X140999500Y-99925500D01*
X140989586Y-99962500D01*
X140962500Y-99989586D01*
X140925500Y-99999500D01*
X90074500Y-99999500D01*
X90037500Y-99989586D01*
X90010414Y-99962500D01*
X90000500Y-99925500D01*
X90000500Y-99364820D01*
X95469500Y-99364820D01*
X95478233Y-99408722D01*
X95511496Y-99458504D01*
X95561278Y-99491767D01*
X95605180Y-99500500D01*
X97334819Y-99500500D01*
X97334820Y-99500500D01*
X97378722Y-99491767D01*
X97428504Y-99458504D01*
X97461767Y-99408722D01*
X97470500Y-99364820D01*
X97470500Y-98750000D01*
X98040839Y-98750000D01*
X98081651Y-98884538D01*
X98174506Y-99058256D01*
X98299472Y-99210527D01*
X98451743Y-99335493D01*
X98625461Y-99428348D01*
X98760000Y-99469160D01*
X98760000Y-98750000D01*
X99260000Y-98750000D01*
X99260000Y-99469160D01*
X99394538Y-99428348D01*
X99568256Y-99335493D01*
X99720527Y-99210527D01*
X99845493Y-99058256D01*
X99938348Y-98884538D01*
X99979161Y-98750000D01*
X99260000Y-98750000D01*
X98760000Y-98750000D01*
X98040839Y-98750000D01*
X97470500Y-98750000D01*
X97470500Y-98499999D01*
X100544659Y-98499999D01*
X100563976Y-98696132D01*
X100621186Y-98884728D01*
X100667638Y-98971632D01*
X100714090Y-99058538D01*
X100839117Y-99210883D01*
X100991462Y-99335910D01*
X101165273Y-99428814D01*
X101353868Y-99486024D01*
X101550000Y-99505341D01*
X101746132Y-99486024D01*
X101934727Y-99428814D01*
X102108538Y-99335910D01*
X102260883Y-99210883D01*
X102385910Y-99058538D01*
X102478814Y-98884727D01*
X102536024Y-98696132D01*
X102555341Y-98500000D01*
X102555341Y-98499999D01*
X103084659Y-98499999D01*
X103103976Y-98696132D01*
X103161186Y-98884728D01*
X103207638Y-98971632D01*
X103254090Y-99058538D01*
X103379117Y-99210883D01*
X103531462Y-99335910D01*
X103705273Y-99428814D01*
X103893868Y-99486024D01*
X104090000Y-99505341D01*
X104286132Y-99486024D01*
X104474727Y-99428814D01*
X104648538Y-99335910D01*
X104800883Y-99210883D01*
X104925910Y-99058538D01*
X105018814Y-98884727D01*
X105076024Y-98696132D01*
X105095341Y-98500000D01*
X105076024Y-98303868D01*
X105018814Y-98115273D01*
X104925910Y-97941462D01*
X104800883Y-97789117D01*
X104648538Y-97664090D01*
X104526988Y-97599120D01*
X104474728Y-97571186D01*
X104286132Y-97513976D01*
X104090000Y-97494659D01*
X103893867Y-97513976D01*
X103705271Y-97571186D01*
X103531462Y-97664090D01*
X103379117Y-97789117D01*
X103254090Y-97941462D01*
X103161186Y-98115271D01*
X103103976Y-98303867D01*
X103084659Y-98499999D01*
X102555341Y-98499999D01*
X102536024Y-98303868D01*
X102478814Y-98115273D01*
X102385910Y-97941462D01*
X102260883Y-97789117D01*
X102108538Y-97664090D01*
X101986988Y-97599120D01*
X101934728Y-97571186D01*
X101746132Y-97513976D01*
X101550000Y-97494659D01*
X101353867Y-97513976D01*
X101165271Y-97571186D01*
X100991462Y-97664090D01*
X100839117Y-97789117D01*
X100714090Y-97941462D01*
X100621186Y-98115271D01*
X100563976Y-98303867D01*
X100544659Y-98499999D01*
X97470500Y-98499999D01*
X97470500Y-98250000D01*
X98040839Y-98250000D01*
X98760000Y-98250000D01*
X98760000Y-97530839D01*
X99260000Y-97530839D01*
X99260000Y-98250000D01*
X99979160Y-98250000D01*
X99938348Y-98115461D01*
X99845493Y-97941743D01*
X99720527Y-97789472D01*
X99568256Y-97664506D01*
X99394538Y-97571651D01*
X99260000Y-97530839D01*
X98760000Y-97530839D01*
X98625461Y-97571651D01*
X98451743Y-97664506D01*
X98299472Y-97789472D01*
X98174506Y-97941743D01*
X98081651Y-98115461D01*
X98040839Y-98250000D01*
X97470500Y-98250000D01*
X97470500Y-97635180D01*
X97461767Y-97591278D01*
X97428504Y-97541496D01*
X97378722Y-97508233D01*
X97334820Y-97499500D01*
X97334819Y-97499500D01*
X96819500Y-97499500D01*
X96782500Y-97489586D01*
X96755414Y-97462500D01*
X96745500Y-97425500D01*
X96745500Y-96174768D01*
X96751133Y-96146449D01*
X96767174Y-96122442D01*
X97867442Y-95022174D01*
X97891449Y-95006133D01*
X97919768Y-95000500D01*
X98364819Y-95000500D01*
X98364820Y-95000500D01*
X98408722Y-94991767D01*
X98458504Y-94958504D01*
X98491767Y-94908722D01*
X98494075Y-94897118D01*
X100006434Y-94897118D01*
X100008703Y-94908527D01*
X100041856Y-94958143D01*
X100091473Y-94991296D01*
X100135225Y-94999999D01*
X100964776Y-94999999D01*
X101008526Y-94991297D01*
X101058143Y-94958143D01*
X101091297Y-94908526D01*
X101093566Y-94897120D01*
X101093565Y-94897118D01*
X104156434Y-94897118D01*
X104158703Y-94908527D01*
X104191856Y-94958143D01*
X104241473Y-94991296D01*
X104285225Y-94999999D01*
X105114776Y-94999999D01*
X105158526Y-94991297D01*
X105208143Y-94958143D01*
X105241297Y-94908526D01*
X105243566Y-94897120D01*
X105243565Y-94897118D01*
X104700000Y-94353553D01*
X104156434Y-94897118D01*
X101093565Y-94897118D01*
X100550000Y-94353553D01*
X100006434Y-94897118D01*
X98494075Y-94897118D01*
X98500500Y-94864820D01*
X98500500Y-93803553D01*
X100000000Y-93803553D01*
X100000000Y-94196445D01*
X100196447Y-94000000D01*
X100903553Y-94000000D01*
X101099999Y-94196446D01*
X101099999Y-93803553D01*
X104150000Y-93803553D01*
X104150000Y-94196445D01*
X104346447Y-94000000D01*
X105053553Y-94000000D01*
X105249999Y-94196446D01*
X105249999Y-93803553D01*
X105249998Y-93803553D01*
X105053553Y-94000000D01*
X104346447Y-94000000D01*
X104150000Y-93803553D01*
X101099999Y-93803553D01*
X101099998Y-93803553D01*
X100903553Y-94000000D01*
X100196447Y-94000000D01*
X100000000Y-93803553D01*
X98500500Y-93803553D01*
X98500500Y-93135180D01*
X98494075Y-93102880D01*
X100006433Y-93102880D01*
X100549999Y-93646446D01*
X101093564Y-93102880D01*
X104156433Y-93102880D01*
X104699999Y-93646446D01*
X105243564Y-93102880D01*
X105241296Y-93091472D01*
X105208144Y-93041856D01*
X105158526Y-93008703D01*
X105114774Y-93000000D01*
X104285223Y-93000000D01*
X104241473Y-93008702D01*
X104191856Y-93041856D01*
X104158702Y-93091472D01*
X104156433Y-93102878D01*
X104156433Y-93102880D01*
X101093564Y-93102880D01*
X101091296Y-93091472D01*
X101058144Y-93041856D01*
X101008526Y-93008703D01*
X100964774Y-93000000D01*
X100135223Y-93000000D01*
X100091473Y-93008702D01*
X100041856Y-93041856D01*
X100008702Y-93091472D01*
X100006433Y-93102878D01*
X100006433Y-93102880D01*
X98494075Y-93102880D01*
X98491767Y-93091278D01*
X98458504Y-93041496D01*
X98408722Y-93008233D01*
X98364820Y-92999500D01*
X97535180Y-92999500D01*
X97491277Y-93008233D01*
X97491278Y-93008233D01*
X97441496Y-93041496D01*
X97408233Y-93091278D01*
X97399500Y-93135181D01*
X97399500Y-94680232D01*
X97393867Y-94708551D01*
X97377826Y-94732558D01*
X96299529Y-95810853D01*
X96288318Y-95820054D01*
X96271376Y-95831375D01*
X96265290Y-95840484D01*
X96256301Y-95853937D01*
X96256006Y-95854378D01*
X96251620Y-95860941D01*
X96251620Y-95860942D01*
X96210484Y-95922505D01*
X96201185Y-95969260D01*
X96200685Y-95971774D01*
X96200167Y-95974378D01*
X96189102Y-96029999D01*
X96193078Y-96049982D01*
X96194500Y-96064420D01*
X96194500Y-97425500D01*
X96184586Y-97462500D01*
X96157500Y-97489586D01*
X96120500Y-97499500D01*
X95605180Y-97499500D01*
X95561278Y-97508233D01*
X95511496Y-97541496D01*
X95478233Y-97591278D01*
X95469500Y-97635180D01*
X95469500Y-99364820D01*
X90000500Y-99364820D01*
X90000500Y-92050000D01*
X90504118Y-92050000D01*
X90525901Y-92102588D01*
X90622075Y-92227924D01*
X90747411Y-92324099D01*
X90893367Y-92384555D01*
X91010678Y-92400000D01*
X91250000Y-92400000D01*
X91250000Y-92050000D01*
X91750000Y-92050000D01*
X91750000Y-92400000D01*
X91989322Y-92400000D01*
X92106632Y-92384555D01*
X92252588Y-92324099D01*
X92377924Y-92227925D01*
X92474098Y-92102590D01*
X92495882Y-92050000D01*
X91750000Y-92050000D01*
X91250000Y-92050000D01*
X90504118Y-92050000D01*
X90000500Y-92050000D01*
X90000500Y-91950000D01*
X93100001Y-91950000D01*
X93100001Y-92514777D01*
X93108702Y-92558526D01*
X93141855Y-92608143D01*
X93191473Y-92641296D01*
X93235226Y-92650000D01*
X93700000Y-92650000D01*
X93700000Y-91950000D01*
X94200000Y-91950000D01*
X94200000Y-92649999D01*
X94664777Y-92649999D01*
X94708526Y-92641297D01*
X94758143Y-92608144D01*
X94791296Y-92558526D01*
X94800000Y-92514774D01*
X94800000Y-91950000D01*
X94200000Y-91950000D01*
X93700000Y-91950000D01*
X93100001Y-91950000D01*
X90000500Y-91950000D01*
X90000500Y-91549999D01*
X90504117Y-91549999D01*
X90504118Y-91550000D01*
X91250000Y-91550000D01*
X91250000Y-91200000D01*
X91750000Y-91200000D01*
X91750000Y-91550000D01*
X92495882Y-91550000D01*
X92495882Y-91549999D01*
X92474098Y-91497411D01*
X92437718Y-91450000D01*
X93100000Y-91450000D01*
X93700000Y-91450000D01*
X93700000Y-90750001D01*
X93235223Y-90750001D01*
X93191473Y-90758702D01*
X93141856Y-90791855D01*
X93108703Y-90841473D01*
X93100000Y-90885226D01*
X93100000Y-91450000D01*
X92437718Y-91450000D01*
X92377924Y-91372075D01*
X92252588Y-91275900D01*
X92106632Y-91215444D01*
X91989322Y-91200000D01*
X91750000Y-91200000D01*
X91250000Y-91200000D01*
X91010678Y-91200000D01*
X90893367Y-91215444D01*
X90747411Y-91275900D01*
X90622075Y-91372074D01*
X90525901Y-91497409D01*
X90504117Y-91549999D01*
X90000500Y-91549999D01*
X90000500Y-89950000D01*
X90400001Y-89950000D01*
X90400001Y-90664777D01*
X90408702Y-90708526D01*
X90441855Y-90758143D01*
X90491473Y-90791296D01*
X90535226Y-90800000D01*
X91250000Y-90800000D01*
X91250000Y-89950000D01*
X91750000Y-89950000D01*
X91750000Y-90799999D01*
X92464777Y-90799999D01*
X92508526Y-90791297D01*
X92558143Y-90758144D01*
X92563585Y-90750000D01*
X94200000Y-90750000D01*
X94200000Y-91450000D01*
X94799999Y-91450000D01*
X94799999Y-90885223D01*
X94791297Y-90841473D01*
X94758144Y-90791856D01*
X94708526Y-90758703D01*
X94664774Y-90750000D01*
X94200000Y-90750000D01*
X92563585Y-90750000D01*
X92591296Y-90708526D01*
X92600000Y-90664774D01*
X92600000Y-90000000D01*
X93350001Y-90000000D01*
X93350001Y-90014777D01*
X93358702Y-90058526D01*
X93391855Y-90108143D01*
X93441473Y-90141296D01*
X93485226Y-90150000D01*
X93975000Y-90150000D01*
X93975000Y-90000000D01*
X94375000Y-90000000D01*
X94375000Y-90149999D01*
X94864777Y-90149999D01*
X94908526Y-90141297D01*
X94958143Y-90108144D01*
X94991296Y-90058526D01*
X95000000Y-90014774D01*
X95000000Y-90000000D01*
X94375000Y-90000000D01*
X93975000Y-90000000D01*
X93350001Y-90000000D01*
X92600000Y-90000000D01*
X92600000Y-89950000D01*
X91750000Y-89950000D01*
X91250000Y-89950000D01*
X90400001Y-89950000D01*
X90000500Y-89950000D01*
X90000500Y-89450000D01*
X90400000Y-89450000D01*
X91250000Y-89450000D01*
X91250000Y-88600001D01*
X90535223Y-88600001D01*
X90491473Y-88608702D01*
X90441856Y-88641855D01*
X90408703Y-88691473D01*
X90400000Y-88735226D01*
X90400000Y-89450000D01*
X90000500Y-89450000D01*
X90000500Y-88600000D01*
X91750000Y-88600000D01*
X91750000Y-89450000D01*
X92599999Y-89450000D01*
X92599999Y-89364820D01*
X93349500Y-89364820D01*
X93358233Y-89408722D01*
X93368776Y-89424501D01*
X93375349Y-89434338D01*
X93387819Y-89475449D01*
X93375349Y-89516559D01*
X93358703Y-89541471D01*
X93350000Y-89585226D01*
X93350000Y-89600000D01*
X94999999Y-89600000D01*
X94999999Y-89585223D01*
X94991297Y-89541473D01*
X94974652Y-89516562D01*
X94962180Y-89475449D01*
X94974651Y-89434338D01*
X94991767Y-89408722D01*
X95000500Y-89364820D01*
X95000500Y-88935180D01*
X94991767Y-88891278D01*
X94991321Y-88890611D01*
X94978939Y-88853131D01*
X94987588Y-88814617D01*
X95014806Y-88786028D01*
X95052850Y-88775500D01*
X95780232Y-88775500D01*
X95808551Y-88781133D01*
X95832558Y-88797174D01*
X96352826Y-89317442D01*
X96368867Y-89341449D01*
X96374500Y-89369768D01*
X96374500Y-89808260D01*
X96384426Y-89876394D01*
X96435801Y-89981482D01*
X96518517Y-90064198D01*
X96623605Y-90115573D01*
X96691740Y-90125500D01*
X97158260Y-90125500D01*
X97226394Y-90115573D01*
X97292055Y-90083473D01*
X97331483Y-90064198D01*
X97414198Y-89981483D01*
X97449809Y-89908640D01*
X97465573Y-89876394D01*
X97475500Y-89808260D01*
X98024500Y-89808260D01*
X98034426Y-89876394D01*
X98085801Y-89981482D01*
X98168517Y-90064198D01*
X98273605Y-90115573D01*
X98341740Y-90125500D01*
X98808260Y-90125500D01*
X98876394Y-90115573D01*
X98942055Y-90083473D01*
X98981483Y-90064198D01*
X99064198Y-89981483D01*
X99099809Y-89908640D01*
X99115573Y-89876394D01*
X99121046Y-89838831D01*
X99134048Y-89806500D01*
X99160405Y-89783705D01*
X99194273Y-89775500D01*
X104655232Y-89775500D01*
X104683551Y-89781133D01*
X104707558Y-89797174D01*
X107785823Y-92875439D01*
X107806696Y-92916907D01*
X107798759Y-92962648D01*
X107765137Y-92994660D01*
X107719062Y-93000343D01*
X107714824Y-92999500D01*
X107714820Y-92999500D01*
X106885180Y-92999500D01*
X106841278Y-93008233D01*
X106791496Y-93041496D01*
X106758233Y-93091278D01*
X106749500Y-93135180D01*
X106749500Y-94864820D01*
X106758233Y-94908722D01*
X106791496Y-94958504D01*
X106841278Y-94991767D01*
X106885180Y-95000500D01*
X107480232Y-95000500D01*
X107508551Y-95006133D01*
X107532558Y-95022174D01*
X108080854Y-95570470D01*
X108090052Y-95581677D01*
X108101376Y-95598624D01*
X108107409Y-95602655D01*
X108121249Y-95611903D01*
X108124376Y-95613992D01*
X108124378Y-95613994D01*
X108124393Y-95614004D01*
X108192506Y-95659516D01*
X108299998Y-95680897D01*
X108299999Y-95680896D01*
X108300000Y-95680897D01*
X108319985Y-95676921D01*
X108334421Y-95675500D01*
X109000604Y-95675500D01*
X109029999Y-95684416D01*
X109059394Y-95675500D01*
X117509697Y-95675500D01*
X117549709Y-95687250D01*
X117577014Y-95718769D01*
X117582942Y-95760047D01*
X117565610Y-95797973D01*
X117564740Y-95798977D01*
X117539561Y-95817817D01*
X117508830Y-95824500D01*
X109064421Y-95824500D01*
X109049986Y-95823078D01*
X109044955Y-95822077D01*
X109029998Y-95814082D01*
X109015040Y-95822078D01*
X108922506Y-95840483D01*
X108858240Y-95883423D01*
X108858239Y-95883426D01*
X108831375Y-95901376D01*
X108820054Y-95918318D01*
X108810853Y-95929529D01*
X107154198Y-97586184D01*
X107112730Y-97607057D01*
X107066989Y-97599120D01*
X107014730Y-97571187D01*
X106924187Y-97543721D01*
X106826132Y-97513976D01*
X106630000Y-97494659D01*
X106433867Y-97513976D01*
X106245271Y-97571186D01*
X106071462Y-97664090D01*
X105919117Y-97789117D01*
X105794090Y-97941462D01*
X105701186Y-98115271D01*
X105643976Y-98303867D01*
X105624659Y-98499999D01*
X105643976Y-98696132D01*
X105701186Y-98884728D01*
X105747638Y-98971632D01*
X105794090Y-99058538D01*
X105919117Y-99210883D01*
X106071462Y-99335910D01*
X106245273Y-99428814D01*
X106433868Y-99486024D01*
X106630000Y-99505341D01*
X106826132Y-99486024D01*
X107014727Y-99428814D01*
X107188538Y-99335910D01*
X107340883Y-99210883D01*
X107465910Y-99058538D01*
X107558814Y-98884727D01*
X107616024Y-98696132D01*
X107635341Y-98500000D01*
X107635341Y-98499999D01*
X108164659Y-98499999D01*
X108183976Y-98696132D01*
X108241186Y-98884728D01*
X108287638Y-98971632D01*
X108334090Y-99058538D01*
X108459117Y-99210883D01*
X108611462Y-99335910D01*
X108785273Y-99428814D01*
X108973868Y-99486024D01*
X109170000Y-99505341D01*
X109366132Y-99486024D01*
X109554727Y-99428814D01*
X109728538Y-99335910D01*
X109880883Y-99210883D01*
X110005910Y-99058538D01*
X110098814Y-98884727D01*
X110156024Y-98696132D01*
X110175341Y-98500000D01*
X110156024Y-98303868D01*
X110098814Y-98115273D01*
X110070877Y-98063008D01*
X110062941Y-98017268D01*
X110083812Y-97975802D01*
X110662441Y-97397174D01*
X110686449Y-97381133D01*
X110714768Y-97375500D01*
X111471495Y-97375500D01*
X111511391Y-97387176D01*
X111538698Y-97418519D01*
X111544797Y-97459639D01*
X111527765Y-97497559D01*
X111492977Y-97520313D01*
X111434501Y-97538052D01*
X111325271Y-97571186D01*
X111151462Y-97664090D01*
X110999117Y-97789117D01*
X110874090Y-97941462D01*
X110781186Y-98115271D01*
X110723976Y-98303867D01*
X110704659Y-98499999D01*
X110723976Y-98696132D01*
X110781186Y-98884728D01*
X110827638Y-98971632D01*
X110874090Y-99058538D01*
X110999117Y-99210883D01*
X111151462Y-99335910D01*
X111325273Y-99428814D01*
X111513868Y-99486024D01*
X111710000Y-99505341D01*
X111906132Y-99486024D01*
X112094727Y-99428814D01*
X112268538Y-99335910D01*
X112420883Y-99210883D01*
X112545910Y-99058538D01*
X112638814Y-98884727D01*
X112696024Y-98696132D01*
X112715341Y-98500000D01*
X112696024Y-98303868D01*
X112638814Y-98115273D01*
X112545910Y-97941462D01*
X112420883Y-97789117D01*
X112268538Y-97664090D01*
X112146988Y-97599120D01*
X112094728Y-97571186D01*
X112026682Y-97550544D01*
X111927022Y-97520313D01*
X111892235Y-97497559D01*
X111875203Y-97459639D01*
X111881302Y-97418519D01*
X111908609Y-97387176D01*
X111948505Y-97375500D01*
X114011495Y-97375500D01*
X114051391Y-97387176D01*
X114078698Y-97418519D01*
X114084797Y-97459639D01*
X114067765Y-97497559D01*
X114032977Y-97520313D01*
X113974501Y-97538052D01*
X113865271Y-97571186D01*
X113691462Y-97664090D01*
X113539117Y-97789117D01*
X113414090Y-97941462D01*
X113321186Y-98115271D01*
X113263976Y-98303867D01*
X113244659Y-98499999D01*
X113263976Y-98696132D01*
X113321186Y-98884728D01*
X113367638Y-98971632D01*
X113414090Y-99058538D01*
X113539117Y-99210883D01*
X113691462Y-99335910D01*
X113865273Y-99428814D01*
X114053868Y-99486024D01*
X114250000Y-99505341D01*
X114446132Y-99486024D01*
X114634727Y-99428814D01*
X114808538Y-99335910D01*
X114960883Y-99210883D01*
X115085910Y-99058538D01*
X115178814Y-98884727D01*
X115236024Y-98696132D01*
X115255341Y-98500000D01*
X115236024Y-98303868D01*
X115178814Y-98115273D01*
X115085910Y-97941462D01*
X114960883Y-97789117D01*
X114808538Y-97664090D01*
X114686988Y-97599120D01*
X114634728Y-97571186D01*
X114566682Y-97550544D01*
X114467022Y-97520313D01*
X114432235Y-97497559D01*
X114415203Y-97459639D01*
X114421302Y-97418519D01*
X114448609Y-97387176D01*
X114488505Y-97375500D01*
X116551495Y-97375500D01*
X116591391Y-97387176D01*
X116618698Y-97418519D01*
X116624797Y-97459639D01*
X116607765Y-97497559D01*
X116572977Y-97520313D01*
X116514501Y-97538052D01*
X116405271Y-97571186D01*
X116231462Y-97664090D01*
X116079117Y-97789117D01*
X115954090Y-97941462D01*
X115861186Y-98115271D01*
X115803976Y-98303867D01*
X115784659Y-98499999D01*
X115803976Y-98696132D01*
X115861186Y-98884728D01*
X115907638Y-98971632D01*
X115954090Y-99058538D01*
X116079117Y-99210883D01*
X116231462Y-99335910D01*
X116405273Y-99428814D01*
X116593868Y-99486024D01*
X116790000Y-99505341D01*
X116986132Y-99486024D01*
X117174727Y-99428814D01*
X117348538Y-99335910D01*
X117500883Y-99210883D01*
X117625910Y-99058538D01*
X117718814Y-98884727D01*
X117776024Y-98696132D01*
X117795341Y-98500000D01*
X117795341Y-98499999D01*
X118324659Y-98499999D01*
X118343976Y-98696132D01*
X118401186Y-98884728D01*
X118447638Y-98971632D01*
X118494090Y-99058538D01*
X118619117Y-99210883D01*
X118771462Y-99335910D01*
X118945273Y-99428814D01*
X119133868Y-99486024D01*
X119330000Y-99505341D01*
X119526132Y-99486024D01*
X119714727Y-99428814D01*
X119888538Y-99335910D01*
X120040883Y-99210883D01*
X120165910Y-99058538D01*
X120258814Y-98884727D01*
X120316024Y-98696132D01*
X120335341Y-98500000D01*
X120335341Y-98499999D01*
X120864659Y-98499999D01*
X120883976Y-98696132D01*
X120941186Y-98884728D01*
X120987637Y-98971632D01*
X121034090Y-99058538D01*
X121159117Y-99210883D01*
X121311462Y-99335910D01*
X121485273Y-99428814D01*
X121673868Y-99486024D01*
X121870000Y-99505341D01*
X122066132Y-99486024D01*
X122254727Y-99428814D01*
X122428538Y-99335910D01*
X122580883Y-99210883D01*
X122705910Y-99058538D01*
X122798814Y-98884727D01*
X122856024Y-98696132D01*
X122875341Y-98500000D01*
X122856024Y-98303868D01*
X122798814Y-98115273D01*
X122705910Y-97941462D01*
X122580883Y-97789117D01*
X122428538Y-97664090D01*
X122306988Y-97599120D01*
X122254728Y-97571186D01*
X122066132Y-97513976D01*
X121870000Y-97494659D01*
X121673867Y-97513976D01*
X121485271Y-97571186D01*
X121311462Y-97664090D01*
X121159117Y-97789117D01*
X121034090Y-97941462D01*
X120941186Y-98115271D01*
X120883976Y-98303867D01*
X120864659Y-98499999D01*
X120335341Y-98499999D01*
X120316024Y-98303868D01*
X120258814Y-98115273D01*
X120165910Y-97941462D01*
X120040883Y-97789117D01*
X119888538Y-97664090D01*
X119766988Y-97599120D01*
X119714728Y-97571186D01*
X119526132Y-97513976D01*
X119330000Y-97494659D01*
X119133867Y-97513976D01*
X118945271Y-97571186D01*
X118771462Y-97664090D01*
X118619117Y-97789117D01*
X118494090Y-97941462D01*
X118401186Y-98115271D01*
X118343976Y-98303867D01*
X118324659Y-98499999D01*
X117795341Y-98499999D01*
X117776024Y-98303868D01*
X117718814Y-98115273D01*
X117625910Y-97941462D01*
X117500883Y-97789117D01*
X117348538Y-97664090D01*
X117226988Y-97599120D01*
X117174728Y-97571186D01*
X117106682Y-97550544D01*
X117007022Y-97520313D01*
X116972235Y-97497559D01*
X116955203Y-97459639D01*
X116961302Y-97418519D01*
X116988609Y-97387176D01*
X117028505Y-97375500D01*
X118565580Y-97375500D01*
X118580015Y-97376921D01*
X118600000Y-97380897D01*
X118627132Y-97375500D01*
X118627133Y-97375500D01*
X118707495Y-97359515D01*
X118752393Y-97329515D01*
X118775622Y-97313994D01*
X118775622Y-97313993D01*
X118783636Y-97308639D01*
X118783639Y-97308636D01*
X118798624Y-97298624D01*
X118808805Y-97283386D01*
X118835450Y-97259238D01*
X118870333Y-97250500D01*
X118964770Y-97250500D01*
X118964772Y-97250500D01*
X119089069Y-97214004D01*
X119198049Y-97143967D01*
X119282882Y-97046063D01*
X119336697Y-96928226D01*
X119355133Y-96800000D01*
X119336697Y-96671774D01*
X119282882Y-96553937D01*
X119198049Y-96456033D01*
X119089069Y-96385996D01*
X118964772Y-96349500D01*
X118835228Y-96349500D01*
X118723904Y-96382187D01*
X118710931Y-96385996D01*
X118601951Y-96456033D01*
X118517117Y-96553937D01*
X118463302Y-96671774D01*
X118450470Y-96761031D01*
X118437502Y-96793424D01*
X118411132Y-96816274D01*
X118377223Y-96824500D01*
X110604420Y-96824500D01*
X110589984Y-96823078D01*
X110570000Y-96819103D01*
X110550017Y-96823078D01*
X110550012Y-96823078D01*
X110462503Y-96840484D01*
X110420534Y-96868527D01*
X110420533Y-96868527D01*
X110420534Y-96868528D01*
X110394378Y-96886006D01*
X110394377Y-96886006D01*
X110371375Y-96901375D01*
X110360054Y-96918318D01*
X110350853Y-96929529D01*
X109694198Y-97586184D01*
X109652730Y-97607057D01*
X109606989Y-97599120D01*
X109554730Y-97571187D01*
X109464187Y-97543721D01*
X109366132Y-97513976D01*
X109170000Y-97494659D01*
X108973867Y-97513976D01*
X108785271Y-97571186D01*
X108611462Y-97664090D01*
X108459117Y-97789117D01*
X108334090Y-97941462D01*
X108241186Y-98115271D01*
X108183976Y-98303867D01*
X108164659Y-98499999D01*
X107635341Y-98499999D01*
X107616024Y-98303868D01*
X107558814Y-98115273D01*
X107530877Y-98063008D01*
X107522941Y-98017268D01*
X107543812Y-97975802D01*
X109122441Y-96397174D01*
X109146449Y-96381133D01*
X109174768Y-96375500D01*
X117508830Y-96375500D01*
X117539571Y-96382187D01*
X117564753Y-96401038D01*
X117601951Y-96443967D01*
X117710931Y-96514004D01*
X117835228Y-96550500D01*
X117964770Y-96550500D01*
X117964772Y-96550500D01*
X118089069Y-96514004D01*
X118198049Y-96443967D01*
X118282882Y-96346063D01*
X118336697Y-96228226D01*
X118355133Y-96100000D01*
X118336697Y-95971774D01*
X118282882Y-95853937D01*
X118282881Y-95853936D01*
X118282881Y-95853935D01*
X118245550Y-95810853D01*
X118234377Y-95797959D01*
X118217056Y-95760031D01*
X118222990Y-95718759D01*
X118250296Y-95687247D01*
X118290303Y-95675500D01*
X123755232Y-95675500D01*
X123783551Y-95681133D01*
X123807558Y-95697174D01*
X124126910Y-96016526D01*
X124144797Y-96045482D01*
X124147831Y-96079382D01*
X124144866Y-96099999D01*
X124163302Y-96228225D01*
X124217117Y-96346062D01*
X124217118Y-96346063D01*
X124301951Y-96443967D01*
X124410931Y-96514004D01*
X124535228Y-96550500D01*
X124664770Y-96550500D01*
X124664772Y-96550500D01*
X124789069Y-96514004D01*
X124898049Y-96443967D01*
X124982882Y-96346063D01*
X125036697Y-96228226D01*
X125055133Y-96100000D01*
X125036697Y-95971774D01*
X124982882Y-95853937D01*
X124898049Y-95756033D01*
X124789069Y-95685996D01*
X124664772Y-95649500D01*
X124664770Y-95649500D01*
X124569767Y-95649500D01*
X124541448Y-95643867D01*
X124517441Y-95627826D01*
X124319978Y-95430363D01*
X124119145Y-95229529D01*
X124109942Y-95218315D01*
X124098742Y-95201553D01*
X124098624Y-95201376D01*
X124081679Y-95190053D01*
X124081674Y-95190049D01*
X124030764Y-95156033D01*
X124007495Y-95140485D01*
X123919985Y-95123078D01*
X123919983Y-95123078D01*
X123914954Y-95122077D01*
X123899999Y-95114083D01*
X123885045Y-95122077D01*
X123880015Y-95123078D01*
X123865580Y-95124500D01*
X110029394Y-95124500D01*
X109999999Y-95115583D01*
X109970604Y-95124500D01*
X108444768Y-95124500D01*
X108416449Y-95118867D01*
X108392442Y-95102826D01*
X107872174Y-94582558D01*
X107856133Y-94558551D01*
X107850500Y-94530232D01*
X107850500Y-93135179D01*
X107849657Y-93130942D01*
X107855338Y-93084865D01*
X107887349Y-93051241D01*
X107933091Y-93043303D01*
X107974560Y-93064176D01*
X109780854Y-94870470D01*
X109790052Y-94881677D01*
X109801376Y-94898624D01*
X109824376Y-94913992D01*
X109824378Y-94913994D01*
X109890451Y-94958143D01*
X109892506Y-94959516D01*
X109985040Y-94977922D01*
X109999998Y-94985917D01*
X110014955Y-94977922D01*
X110019986Y-94976921D01*
X110034421Y-94975500D01*
X123870607Y-94975500D01*
X123900000Y-94984416D01*
X123929393Y-94975500D01*
X126415580Y-94975500D01*
X126430015Y-94976921D01*
X126450000Y-94980897D01*
X126477132Y-94975500D01*
X126477133Y-94975500D01*
X126557495Y-94959515D01*
X126557498Y-94959512D01*
X126559624Y-94959090D01*
X126605700Y-94964772D01*
X126639324Y-94996784D01*
X126647261Y-95042526D01*
X126626388Y-95083994D01*
X124239529Y-97470853D01*
X124228318Y-97480054D01*
X124211375Y-97491375D01*
X124206510Y-97498657D01*
X124166465Y-97528354D01*
X124093294Y-97550551D01*
X124025271Y-97571186D01*
X123851462Y-97664090D01*
X123699117Y-97789117D01*
X123574090Y-97941462D01*
X123481186Y-98115271D01*
X123423976Y-98303867D01*
X123404659Y-98499999D01*
X123423976Y-98696132D01*
X123481186Y-98884728D01*
X123527637Y-98971632D01*
X123574090Y-99058538D01*
X123699117Y-99210883D01*
X123851462Y-99335910D01*
X124025273Y-99428814D01*
X124213868Y-99486024D01*
X124410000Y-99505341D01*
X124606132Y-99486024D01*
X124794727Y-99428814D01*
X124968538Y-99335910D01*
X125120883Y-99210883D01*
X125245910Y-99058538D01*
X125338814Y-98884727D01*
X125396024Y-98696132D01*
X125415341Y-98500000D01*
X125396024Y-98303868D01*
X125338814Y-98115273D01*
X125245910Y-97941462D01*
X125120883Y-97789117D01*
X124968538Y-97664090D01*
X124963332Y-97661307D01*
X124931849Y-97628774D01*
X124925208Y-97583992D01*
X124945891Y-97543723D01*
X128420473Y-94069141D01*
X128431681Y-94059944D01*
X128448624Y-94048624D01*
X128476107Y-94007494D01*
X128493878Y-93980897D01*
X128509515Y-93957495D01*
X128525500Y-93877133D01*
X128525500Y-93877132D01*
X128525648Y-93876387D01*
X128526922Y-93869984D01*
X128526922Y-93869982D01*
X128530897Y-93850000D01*
X128526921Y-93830015D01*
X128525500Y-93815580D01*
X128525500Y-93620110D01*
X128534238Y-93585226D01*
X128558387Y-93558582D01*
X128558504Y-93558504D01*
X128588472Y-93513653D01*
X128626213Y-93484692D01*
X128673787Y-93484692D01*
X128711527Y-93513653D01*
X128712277Y-93514774D01*
X128741494Y-93558502D01*
X128741495Y-93558502D01*
X128741496Y-93558504D01*
X128741612Y-93558582D01*
X128765762Y-93585226D01*
X128774500Y-93620110D01*
X128774500Y-93905232D01*
X128768867Y-93933551D01*
X128752826Y-93957558D01*
X126779529Y-95930853D01*
X126768318Y-95940054D01*
X126751377Y-95951374D01*
X126751375Y-95951376D01*
X126751376Y-95951376D01*
X126736007Y-95974376D01*
X126736006Y-95974378D01*
X126735794Y-95974696D01*
X126709537Y-96013992D01*
X126690484Y-96042506D01*
X126680221Y-96094103D01*
X126680221Y-96094104D01*
X126679048Y-96100000D01*
X126669102Y-96149999D01*
X126673078Y-96169982D01*
X126674500Y-96184420D01*
X126674500Y-97483170D01*
X126659937Y-97527252D01*
X126621981Y-97553983D01*
X126600628Y-97560460D01*
X126565271Y-97571186D01*
X126391462Y-97664090D01*
X126239117Y-97789117D01*
X126114090Y-97941462D01*
X126021186Y-98115271D01*
X125963976Y-98303867D01*
X125944659Y-98499999D01*
X125963976Y-98696132D01*
X126021186Y-98884728D01*
X126067637Y-98971632D01*
X126114090Y-99058538D01*
X126239117Y-99210883D01*
X126391462Y-99335910D01*
X126565273Y-99428814D01*
X126753868Y-99486024D01*
X126950000Y-99505341D01*
X127146132Y-99486024D01*
X127334727Y-99428814D01*
X127508538Y-99335910D01*
X127660883Y-99210883D01*
X127785910Y-99058538D01*
X127878814Y-98884727D01*
X127936024Y-98696132D01*
X127955341Y-98500000D01*
X127936024Y-98303868D01*
X127878814Y-98115273D01*
X127785910Y-97941462D01*
X127660883Y-97789117D01*
X127508538Y-97664090D01*
X127386988Y-97599120D01*
X127334728Y-97571186D01*
X127309041Y-97563394D01*
X127278018Y-97553983D01*
X127240063Y-97527252D01*
X127225500Y-97483170D01*
X127225500Y-96294768D01*
X127231133Y-96266449D01*
X127247174Y-96242442D01*
X127743554Y-95746062D01*
X128279603Y-95210011D01*
X128325333Y-95188633D01*
X128374133Y-95201553D01*
X128403292Y-95242761D01*
X128399242Y-95293079D01*
X128363302Y-95371774D01*
X128344867Y-95500000D01*
X128363302Y-95628225D01*
X128417117Y-95746062D01*
X128417118Y-95746063D01*
X128501951Y-95843967D01*
X128610931Y-95914004D01*
X128735228Y-95950500D01*
X128735230Y-95950500D01*
X128735513Y-95950583D01*
X128766992Y-95969260D01*
X129217021Y-96419289D01*
X129225910Y-96431644D01*
X129263856Y-96466236D01*
X129266329Y-96468597D01*
X129279909Y-96482177D01*
X129281437Y-96483224D01*
X129289464Y-96489582D01*
X129311770Y-96509916D01*
X129322323Y-96514004D01*
X129323637Y-96514513D01*
X129338724Y-96522465D01*
X129349223Y-96529657D01*
X129378597Y-96536566D01*
X129388383Y-96539596D01*
X129416530Y-96550500D01*
X129429429Y-96555497D01*
X129428638Y-96557536D01*
X129437944Y-96560359D01*
X129444635Y-96561690D01*
X129444637Y-96561691D01*
X129514058Y-96575500D01*
X129910942Y-96575500D01*
X129980363Y-96561691D01*
X130059089Y-96509089D01*
X130111691Y-96430363D01*
X130125500Y-96360942D01*
X130125500Y-96149500D01*
X130135414Y-96112500D01*
X130162500Y-96085414D01*
X130199500Y-96075500D01*
X130265580Y-96075500D01*
X130280015Y-96076921D01*
X130300000Y-96080897D01*
X130327132Y-96075500D01*
X130327133Y-96075500D01*
X130407495Y-96059515D01*
X130458402Y-96025500D01*
X130458403Y-96025500D01*
X130483634Y-96008641D01*
X130483638Y-96008636D01*
X130498624Y-95998624D01*
X130509947Y-95981676D01*
X130519141Y-95970473D01*
X130898174Y-95591441D01*
X130936063Y-95571189D01*
X130978819Y-95575400D01*
X131012029Y-95602655D01*
X131024500Y-95643767D01*
X131024500Y-95865580D01*
X131023078Y-95880015D01*
X131019103Y-95899999D01*
X131019103Y-95900000D01*
X131023078Y-95919982D01*
X131023078Y-95919984D01*
X131040485Y-96007496D01*
X131056121Y-96030897D01*
X131056121Y-96030896D01*
X131085924Y-96075500D01*
X131092549Y-96085414D01*
X131098355Y-96094104D01*
X131101376Y-96098624D01*
X131118315Y-96109942D01*
X131129529Y-96119145D01*
X131430854Y-96420470D01*
X131440052Y-96431677D01*
X131451376Y-96448624D01*
X131468315Y-96459942D01*
X131468321Y-96459947D01*
X131474378Y-96463994D01*
X131492225Y-96475919D01*
X131542505Y-96509515D01*
X131622867Y-96525500D01*
X131622868Y-96525500D01*
X131650000Y-96530897D01*
X131669985Y-96526921D01*
X131684420Y-96525500D01*
X131943026Y-96525500D01*
X131984135Y-96537970D01*
X132019637Y-96561691D01*
X132089058Y-96575500D01*
X132485942Y-96575500D01*
X132555363Y-96561691D01*
X132634089Y-96509089D01*
X132686691Y-96430363D01*
X132700500Y-96360942D01*
X132700500Y-96139058D01*
X132686691Y-96069637D01*
X132667630Y-96041111D01*
X132655160Y-96000000D01*
X132667631Y-95958888D01*
X132686691Y-95930363D01*
X132700500Y-95860942D01*
X132700500Y-95678555D01*
X132710859Y-95640794D01*
X132739037Y-95613606D01*
X132777144Y-95604602D01*
X132800458Y-95611903D01*
X132800722Y-95611006D01*
X132810929Y-95614003D01*
X132810931Y-95614004D01*
X132935228Y-95650500D01*
X133064770Y-95650500D01*
X133064772Y-95650500D01*
X133189069Y-95614004D01*
X133298049Y-95543967D01*
X133319574Y-95519124D01*
X133357199Y-95495883D01*
X133401360Y-95498250D01*
X133436285Y-95525380D01*
X133449500Y-95567584D01*
X133449500Y-96230232D01*
X133443867Y-96258551D01*
X133427826Y-96282558D01*
X133007558Y-96702826D01*
X132983551Y-96718867D01*
X132955232Y-96724500D01*
X131024420Y-96724500D01*
X131009984Y-96723078D01*
X131005195Y-96722125D01*
X130989999Y-96719102D01*
X130882503Y-96740485D01*
X130818240Y-96783423D01*
X130818239Y-96783426D01*
X130791375Y-96801376D01*
X130780054Y-96818318D01*
X130770853Y-96829529D01*
X130014198Y-97586184D01*
X129972730Y-97607057D01*
X129926989Y-97599120D01*
X129874730Y-97571187D01*
X129784187Y-97543721D01*
X129686132Y-97513976D01*
X129490000Y-97494659D01*
X129293867Y-97513976D01*
X129105271Y-97571186D01*
X128931462Y-97664090D01*
X128779117Y-97789117D01*
X128654090Y-97941462D01*
X128561186Y-98115271D01*
X128503976Y-98303867D01*
X128484659Y-98499999D01*
X128503976Y-98696132D01*
X128561186Y-98884728D01*
X128607637Y-98971632D01*
X128654090Y-99058538D01*
X128779117Y-99210883D01*
X128931462Y-99335910D01*
X129105273Y-99428814D01*
X129293868Y-99486024D01*
X129490000Y-99505341D01*
X129686132Y-99486024D01*
X129874727Y-99428814D01*
X130048538Y-99335910D01*
X130200883Y-99210883D01*
X130325910Y-99058538D01*
X130418814Y-98884727D01*
X130476024Y-98696132D01*
X130495341Y-98500000D01*
X130476024Y-98303868D01*
X130418814Y-98115273D01*
X130390877Y-98063008D01*
X130382941Y-98017268D01*
X130403812Y-97975802D01*
X131082441Y-97297174D01*
X131106449Y-97281133D01*
X131134768Y-97275500D01*
X133065580Y-97275500D01*
X133080015Y-97276921D01*
X133100000Y-97280897D01*
X133127132Y-97275500D01*
X133127133Y-97275500D01*
X133147210Y-97271506D01*
X133193285Y-97277188D01*
X133226909Y-97309200D01*
X133234846Y-97354942D01*
X133213973Y-97396410D01*
X132832458Y-97777924D01*
X132801613Y-97796412D01*
X132765695Y-97798176D01*
X132733187Y-97782801D01*
X132727244Y-97777924D01*
X132588538Y-97664090D01*
X132466988Y-97599120D01*
X132414728Y-97571186D01*
X132226132Y-97513976D01*
X132030000Y-97494659D01*
X131833867Y-97513976D01*
X131645271Y-97571186D01*
X131471462Y-97664090D01*
X131319117Y-97789117D01*
X131194090Y-97941462D01*
X131101186Y-98115271D01*
X131043976Y-98303867D01*
X131024659Y-98499999D01*
X131043976Y-98696132D01*
X131101186Y-98884728D01*
X131147637Y-98971632D01*
X131194090Y-99058538D01*
X131319117Y-99210883D01*
X131471462Y-99335910D01*
X131645273Y-99428814D01*
X131833868Y-99486024D01*
X132030000Y-99505341D01*
X132226132Y-99486024D01*
X132414727Y-99428814D01*
X132588538Y-99335910D01*
X132740883Y-99210883D01*
X132865910Y-99058538D01*
X132958814Y-98884727D01*
X133016024Y-98696132D01*
X133035341Y-98500000D01*
X133025705Y-98402167D01*
X133029675Y-98369987D01*
X133047021Y-98342593D01*
X134370473Y-97019141D01*
X134381681Y-97009944D01*
X134398624Y-96998624D01*
X134422758Y-96962506D01*
X134448234Y-96924378D01*
X134459515Y-96907495D01*
X134475500Y-96827133D01*
X134475500Y-96827132D01*
X134476048Y-96824376D01*
X134476922Y-96819984D01*
X134476922Y-96819982D01*
X134477253Y-96818318D01*
X134480897Y-96800000D01*
X134476921Y-96780015D01*
X134475500Y-96765580D01*
X134475500Y-94943768D01*
X134487971Y-94902656D01*
X134521181Y-94875401D01*
X134563937Y-94871190D01*
X134601826Y-94891442D01*
X134726910Y-95016526D01*
X134744797Y-95045482D01*
X134747831Y-95079382D01*
X134744866Y-95099999D01*
X134763302Y-95228225D01*
X134817117Y-95346062D01*
X134817118Y-95346063D01*
X134901951Y-95443967D01*
X135010931Y-95514004D01*
X135135228Y-95550500D01*
X135264770Y-95550500D01*
X135264772Y-95550500D01*
X135389069Y-95514004D01*
X135498049Y-95443967D01*
X135582882Y-95346063D01*
X135582884Y-95346059D01*
X135583188Y-95345395D01*
X135585857Y-95342628D01*
X135589849Y-95338022D01*
X135590095Y-95338235D01*
X135617377Y-95309963D01*
X135666230Y-95303827D01*
X135708120Y-95329703D01*
X135724500Y-95376136D01*
X135724500Y-96925232D01*
X135718867Y-96953551D01*
X135702826Y-96977558D01*
X135094198Y-97586184D01*
X135052730Y-97607057D01*
X135006989Y-97599120D01*
X134954730Y-97571187D01*
X134864187Y-97543721D01*
X134766132Y-97513976D01*
X134570000Y-97494659D01*
X134373867Y-97513976D01*
X134185271Y-97571186D01*
X134011462Y-97664090D01*
X133859117Y-97789117D01*
X133734090Y-97941462D01*
X133641186Y-98115271D01*
X133583976Y-98303867D01*
X133564659Y-98499999D01*
X133583976Y-98696132D01*
X133641186Y-98884728D01*
X133687637Y-98971632D01*
X133734090Y-99058538D01*
X133859117Y-99210883D01*
X134011462Y-99335910D01*
X134185273Y-99428814D01*
X134373868Y-99486024D01*
X134570000Y-99505341D01*
X134766132Y-99486024D01*
X134954727Y-99428814D01*
X135128538Y-99335910D01*
X135280883Y-99210883D01*
X135405910Y-99058538D01*
X135498814Y-98884727D01*
X135556024Y-98696132D01*
X135575341Y-98500000D01*
X135556024Y-98303868D01*
X135498814Y-98115273D01*
X135470877Y-98063008D01*
X135462941Y-98017268D01*
X135483812Y-97975802D01*
X136170473Y-97289141D01*
X136181681Y-97279944D01*
X136198624Y-97268624D01*
X136239470Y-97207495D01*
X136259515Y-97177495D01*
X136269350Y-97128050D01*
X136275500Y-97097133D01*
X136275500Y-97097129D01*
X136280896Y-97070000D01*
X136276921Y-97050019D01*
X136275500Y-97035584D01*
X136275500Y-93674000D01*
X136285414Y-93637000D01*
X136312500Y-93609914D01*
X136349500Y-93600000D01*
X136350000Y-93600000D01*
X136350000Y-92700001D01*
X136349500Y-92700001D01*
X136312500Y-92690087D01*
X136285414Y-92663001D01*
X136275500Y-92626001D01*
X136275500Y-92434420D01*
X136276922Y-92419982D01*
X136280897Y-92399999D01*
X136275500Y-92372868D01*
X136275500Y-92372867D01*
X136265799Y-92324099D01*
X136259515Y-92292505D01*
X136228372Y-92245897D01*
X136213994Y-92224378D01*
X136212970Y-92222845D01*
X136200500Y-92181735D01*
X136200500Y-91935181D01*
X136199585Y-91930580D01*
X136191767Y-91891278D01*
X136158504Y-91841496D01*
X136108722Y-91808233D01*
X136064820Y-91799500D01*
X135635180Y-91799500D01*
X135591278Y-91808233D01*
X135541496Y-91841496D01*
X135511527Y-91886346D01*
X135473787Y-91915307D01*
X135426213Y-91915307D01*
X135388472Y-91886346D01*
X135358504Y-91841496D01*
X135308722Y-91808233D01*
X135264820Y-91799500D01*
X134835180Y-91799500D01*
X134791278Y-91808233D01*
X134741496Y-91841496D01*
X134711527Y-91886346D01*
X134673787Y-91915307D01*
X134626213Y-91915307D01*
X134588472Y-91886346D01*
X134558504Y-91841496D01*
X134558387Y-91841417D01*
X134534238Y-91814774D01*
X134525500Y-91779890D01*
X134525500Y-90994768D01*
X134531133Y-90966449D01*
X134547174Y-90942442D01*
X135017442Y-90472174D01*
X135041449Y-90456133D01*
X135069768Y-90450500D01*
X135164770Y-90450500D01*
X135164772Y-90450500D01*
X135289069Y-90414004D01*
X135398049Y-90343967D01*
X135482882Y-90246063D01*
X135536697Y-90128226D01*
X135555133Y-90000000D01*
X135536697Y-89871774D01*
X135482882Y-89753937D01*
X135398049Y-89656033D01*
X135289069Y-89585996D01*
X135164772Y-89549500D01*
X135035228Y-89549500D01*
X134944226Y-89576220D01*
X134910931Y-89585996D01*
X134801951Y-89656033D01*
X134717117Y-89753937D01*
X134663302Y-89871774D01*
X134644866Y-90000002D01*
X134647830Y-90020619D01*
X134644796Y-90054518D01*
X134626909Y-90083473D01*
X134079529Y-90630853D01*
X134068318Y-90640054D01*
X134051375Y-90651375D01*
X134036004Y-90674380D01*
X134036006Y-90674378D01*
X134019806Y-90698624D01*
X133990485Y-90742504D01*
X133979148Y-90799500D01*
X133969102Y-90849999D01*
X133973078Y-90869982D01*
X133974500Y-90884420D01*
X133974500Y-91779890D01*
X133965762Y-91814774D01*
X133941612Y-91841417D01*
X133941496Y-91841496D01*
X133911527Y-91886346D01*
X133873787Y-91915307D01*
X133826213Y-91915307D01*
X133788472Y-91886346D01*
X133758504Y-91841496D01*
X133708722Y-91808233D01*
X133664820Y-91799500D01*
X133235180Y-91799500D01*
X133191278Y-91808233D01*
X133141496Y-91841496D01*
X133111527Y-91886346D01*
X133073787Y-91915307D01*
X133026213Y-91915307D01*
X132988472Y-91886346D01*
X132958504Y-91841496D01*
X132958387Y-91841417D01*
X132934238Y-91814774D01*
X132925500Y-91779890D01*
X132925500Y-91639886D01*
X132930166Y-91614026D01*
X132943575Y-91591426D01*
X132970806Y-91560000D01*
X132982882Y-91546063D01*
X133036697Y-91428226D01*
X133055133Y-91300000D01*
X133036697Y-91171774D01*
X132982882Y-91053937D01*
X132898049Y-90956033D01*
X132789069Y-90885996D01*
X132789067Y-90885995D01*
X132789065Y-90885994D01*
X132733266Y-90869610D01*
X132695675Y-90844004D01*
X132680161Y-90801248D01*
X132690665Y-90764257D01*
X132691765Y-90758723D01*
X132691767Y-90758722D01*
X132700500Y-90714820D01*
X132700500Y-90285180D01*
X132691767Y-90241278D01*
X132658504Y-90191496D01*
X132658501Y-90191494D01*
X132641993Y-90180464D01*
X132613653Y-90161527D01*
X132584692Y-90123787D01*
X132584692Y-90076213D01*
X132613653Y-90038472D01*
X132658504Y-90008504D01*
X132691767Y-89958722D01*
X132700500Y-89914820D01*
X132700500Y-89485180D01*
X132691767Y-89441278D01*
X132658504Y-89391496D01*
X132658501Y-89391494D01*
X132618580Y-89364820D01*
X132613653Y-89361527D01*
X132584692Y-89323787D01*
X132584692Y-89276213D01*
X132613653Y-89238472D01*
X132658504Y-89208504D01*
X132691767Y-89158722D01*
X132700500Y-89114820D01*
X132700500Y-88685180D01*
X132691767Y-88641278D01*
X132658504Y-88591496D01*
X132658501Y-88591494D01*
X132641993Y-88580464D01*
X132613653Y-88561527D01*
X132584692Y-88523787D01*
X132584692Y-88476213D01*
X132613653Y-88438472D01*
X132658504Y-88408504D01*
X132691767Y-88358722D01*
X132700500Y-88314820D01*
X132700500Y-87885180D01*
X132691767Y-87841278D01*
X132658504Y-87791496D01*
X132658501Y-87791494D01*
X132628350Y-87771348D01*
X132613653Y-87761527D01*
X132584692Y-87723787D01*
X132584692Y-87676213D01*
X132613653Y-87638472D01*
X132658504Y-87608504D01*
X132691767Y-87558722D01*
X132700500Y-87514820D01*
X132700500Y-87085180D01*
X132691767Y-87041278D01*
X132658504Y-86991496D01*
X132658501Y-86991494D01*
X132627175Y-86970563D01*
X132613653Y-86961527D01*
X132584692Y-86923787D01*
X132584692Y-86876213D01*
X132613653Y-86838472D01*
X132658504Y-86808504D01*
X132691767Y-86758722D01*
X132700500Y-86714820D01*
X132700500Y-86285180D01*
X132691767Y-86241278D01*
X132658504Y-86191496D01*
X132608722Y-86158233D01*
X132564820Y-86149500D01*
X131935180Y-86149500D01*
X131891278Y-86158233D01*
X131841496Y-86191496D01*
X131808233Y-86241278D01*
X131799500Y-86285180D01*
X131799500Y-86714820D01*
X131808233Y-86758722D01*
X131841496Y-86808504D01*
X131886346Y-86838472D01*
X131915307Y-86876213D01*
X131915307Y-86923787D01*
X131886346Y-86961527D01*
X131841499Y-86991494D01*
X131841496Y-86991496D01*
X131808233Y-87041278D01*
X131799500Y-87085181D01*
X131799500Y-87369438D01*
X131790050Y-87400000D01*
X131799500Y-87430562D01*
X131799500Y-87514820D01*
X131808233Y-87558722D01*
X131841496Y-87608504D01*
X131886346Y-87638472D01*
X131915307Y-87676213D01*
X131915307Y-87723787D01*
X131886346Y-87761527D01*
X131841496Y-87791496D01*
X131808233Y-87841278D01*
X131799500Y-87885180D01*
X131799500Y-88314820D01*
X131808233Y-88358722D01*
X131841496Y-88408504D01*
X131886346Y-88438472D01*
X131915307Y-88476213D01*
X131915307Y-88523787D01*
X131886346Y-88561527D01*
X131841496Y-88591496D01*
X131808233Y-88641278D01*
X131799500Y-88685180D01*
X131799500Y-89114820D01*
X131808233Y-89158722D01*
X131841496Y-89208504D01*
X131886346Y-89238472D01*
X131915307Y-89276213D01*
X131915307Y-89323787D01*
X131886346Y-89361527D01*
X131841496Y-89391496D01*
X131808233Y-89441278D01*
X131799500Y-89485180D01*
X131799500Y-89914820D01*
X131808233Y-89958722D01*
X131841496Y-90008504D01*
X131886346Y-90038472D01*
X131915307Y-90076213D01*
X131915307Y-90123787D01*
X131886346Y-90161527D01*
X131841496Y-90191496D01*
X131808233Y-90241278D01*
X131799500Y-90285180D01*
X131799500Y-90714820D01*
X131808229Y-90758703D01*
X131811105Y-90773157D01*
X131810856Y-90773206D01*
X131817858Y-90797258D01*
X131803509Y-90839421D01*
X131767558Y-90865711D01*
X131723030Y-90866605D01*
X131664772Y-90849500D01*
X131535228Y-90849500D01*
X131413564Y-90885223D01*
X131410931Y-90885996D01*
X131301951Y-90956033D01*
X131217117Y-91053937D01*
X131163302Y-91171774D01*
X131144867Y-91300000D01*
X131163302Y-91428225D01*
X131217117Y-91546062D01*
X131227109Y-91557593D01*
X131301951Y-91643967D01*
X131340845Y-91668962D01*
X131371356Y-91708786D01*
X131369454Y-91758921D01*
X131336012Y-91796319D01*
X131286401Y-91803792D01*
X131264822Y-91799500D01*
X131264820Y-91799500D01*
X130835180Y-91799500D01*
X130791278Y-91808233D01*
X130741496Y-91841496D01*
X130711527Y-91886346D01*
X130673787Y-91915307D01*
X130626213Y-91915307D01*
X130588472Y-91886346D01*
X130558504Y-91841496D01*
X130508722Y-91808233D01*
X130464820Y-91799500D01*
X130035180Y-91799500D01*
X129991278Y-91808233D01*
X129941496Y-91841496D01*
X129911527Y-91886346D01*
X129873787Y-91915307D01*
X129826213Y-91915307D01*
X129788472Y-91886346D01*
X129758504Y-91841496D01*
X129758387Y-91841417D01*
X129734238Y-91814774D01*
X129725500Y-91779890D01*
X129725500Y-91739886D01*
X129730166Y-91714026D01*
X129743575Y-91691426D01*
X129782881Y-91646064D01*
X129782880Y-91646064D01*
X129782882Y-91646063D01*
X129836697Y-91528226D01*
X129855133Y-91400000D01*
X129836697Y-91271774D01*
X129806311Y-91205240D01*
X129801711Y-91157054D01*
X129827881Y-91116332D01*
X129873625Y-91100500D01*
X130030492Y-91100500D01*
X130061232Y-91107187D01*
X130086417Y-91126040D01*
X130101951Y-91143967D01*
X130210931Y-91214004D01*
X130335228Y-91250500D01*
X130464770Y-91250500D01*
X130464772Y-91250500D01*
X130589069Y-91214004D01*
X130698049Y-91143967D01*
X130782882Y-91046063D01*
X130836697Y-90928226D01*
X130855133Y-90800000D01*
X130836697Y-90671774D01*
X130782882Y-90553937D01*
X130698049Y-90456033D01*
X130589069Y-90385996D01*
X130464772Y-90349500D01*
X130335228Y-90349500D01*
X130210931Y-90385996D01*
X130101951Y-90456033D01*
X130101949Y-90456034D01*
X130101949Y-90456035D01*
X130086417Y-90473960D01*
X130061232Y-90492813D01*
X130030492Y-90499500D01*
X129061088Y-90499500D01*
X129046067Y-90497049D01*
X128997539Y-90499293D01*
X128994772Y-90499421D01*
X128991357Y-90499500D01*
X128972155Y-90499500D01*
X128970336Y-90499840D01*
X128960158Y-90501021D01*
X128930007Y-90502415D01*
X128918358Y-90507558D01*
X128902072Y-90512600D01*
X128889569Y-90514937D01*
X128863910Y-90530824D01*
X128854849Y-90535599D01*
X128827235Y-90547793D01*
X128818232Y-90556795D01*
X128804871Y-90567378D01*
X128794048Y-90574080D01*
X128775858Y-90598166D01*
X128769133Y-90605894D01*
X128597203Y-90777826D01*
X128573196Y-90793867D01*
X128544877Y-90799500D01*
X128369665Y-90799500D01*
X128331626Y-90788975D01*
X128304408Y-90760392D01*
X128295753Y-90721884D01*
X128308125Y-90684405D01*
X128309932Y-90681699D01*
X128319141Y-90670473D01*
X131117441Y-87872174D01*
X131141449Y-87856133D01*
X131169768Y-87850500D01*
X131264770Y-87850500D01*
X131264772Y-87850500D01*
X131389069Y-87814004D01*
X131498049Y-87743967D01*
X131582882Y-87646063D01*
X131636697Y-87528226D01*
X131652252Y-87420031D01*
X131661748Y-87400000D01*
X131652253Y-87379969D01*
X131636697Y-87271774D01*
X131582882Y-87153937D01*
X131569509Y-87138504D01*
X131498049Y-87056033D01*
X131389069Y-86985996D01*
X131264772Y-86949500D01*
X131135228Y-86949500D01*
X131031352Y-86980000D01*
X131010931Y-86985996D01*
X130901951Y-87056033D01*
X130817117Y-87153937D01*
X130767313Y-87262993D01*
X130740007Y-87294505D01*
X130700000Y-87306252D01*
X130659993Y-87294505D01*
X130632687Y-87262993D01*
X130582882Y-87153937D01*
X130569509Y-87138504D01*
X130498049Y-87056033D01*
X130389069Y-86985996D01*
X130264772Y-86949500D01*
X130135228Y-86949500D01*
X130031352Y-86980000D01*
X130010931Y-86985996D01*
X129901951Y-87056033D01*
X129817117Y-87153937D01*
X129782641Y-87229430D01*
X129750792Y-87263637D01*
X129704796Y-87271936D01*
X129663002Y-87251015D01*
X129642081Y-87209220D01*
X129636697Y-87171774D01*
X129582882Y-87053937D01*
X129552191Y-87018517D01*
X129498049Y-86956033D01*
X129389069Y-86885996D01*
X129264772Y-86849500D01*
X129135228Y-86849500D01*
X129029649Y-86880500D01*
X129010931Y-86885996D01*
X128901951Y-86956033D01*
X128817117Y-87053937D01*
X128763302Y-87171774D01*
X128744866Y-87300002D01*
X128747830Y-87320619D01*
X128744796Y-87354517D01*
X128726909Y-87383473D01*
X128601826Y-87508557D01*
X128563937Y-87528809D01*
X128521182Y-87524598D01*
X128487971Y-87497343D01*
X128475500Y-87456231D01*
X128475500Y-86876883D01*
X128476922Y-86862445D01*
X128478856Y-86852726D01*
X128480897Y-86842463D01*
X128464240Y-86758722D01*
X128459515Y-86734968D01*
X128452746Y-86724837D01*
X128440322Y-86681081D01*
X128455840Y-86638324D01*
X128481027Y-86621170D01*
X128480118Y-86619756D01*
X128489067Y-86614004D01*
X128489069Y-86614004D01*
X128598049Y-86543967D01*
X128635246Y-86501038D01*
X128660429Y-86482187D01*
X128691170Y-86475500D01*
X129665580Y-86475500D01*
X129680015Y-86476921D01*
X129700000Y-86480897D01*
X129727132Y-86475500D01*
X129727133Y-86475500D01*
X129807495Y-86459515D01*
X129869499Y-86418085D01*
X129875622Y-86413994D01*
X129875622Y-86413993D01*
X129883630Y-86408643D01*
X129883634Y-86408639D01*
X129898624Y-86398624D01*
X129909947Y-86381676D01*
X129919141Y-86370473D01*
X131067441Y-85222174D01*
X131091449Y-85206133D01*
X131119768Y-85200500D01*
X131264819Y-85200500D01*
X131264820Y-85200500D01*
X131308722Y-85191767D01*
X131358504Y-85158504D01*
X131388472Y-85113653D01*
X131426213Y-85084692D01*
X131473787Y-85084692D01*
X131511527Y-85113653D01*
X131541496Y-85158504D01*
X131591278Y-85191767D01*
X131635180Y-85200500D01*
X132064819Y-85200500D01*
X132064820Y-85200500D01*
X132108722Y-85191767D01*
X132158504Y-85158504D01*
X132188472Y-85113653D01*
X132226213Y-85084692D01*
X132273787Y-85084692D01*
X132311527Y-85113653D01*
X132341496Y-85158504D01*
X132391278Y-85191767D01*
X132435180Y-85200500D01*
X132864819Y-85200500D01*
X132864820Y-85200500D01*
X132908722Y-85191767D01*
X132958504Y-85158504D01*
X132991767Y-85108722D01*
X133000500Y-85064820D01*
X133000500Y-84435180D01*
X132991767Y-84391278D01*
X132991766Y-84391276D01*
X132991301Y-84388938D01*
X132995512Y-84346182D01*
X133022766Y-84312971D01*
X133063879Y-84300500D01*
X133264819Y-84300500D01*
X133264820Y-84300500D01*
X133308722Y-84291767D01*
X133358504Y-84258504D01*
X133391767Y-84208722D01*
X133400500Y-84164820D01*
X133400500Y-83535180D01*
X133391767Y-83491278D01*
X133358504Y-83441496D01*
X133308722Y-83408233D01*
X133264820Y-83399500D01*
X132835180Y-83399500D01*
X132791278Y-83408233D01*
X132741496Y-83441496D01*
X132711527Y-83486346D01*
X132673787Y-83515307D01*
X132626213Y-83515307D01*
X132588472Y-83486346D01*
X132558504Y-83441496D01*
X132508722Y-83408233D01*
X132464820Y-83399500D01*
X132035180Y-83399500D01*
X131991278Y-83408233D01*
X131941496Y-83441496D01*
X131911527Y-83486346D01*
X131873787Y-83515307D01*
X131826213Y-83515307D01*
X131788472Y-83486346D01*
X131758504Y-83441496D01*
X131758387Y-83441417D01*
X131734238Y-83414774D01*
X131725500Y-83379890D01*
X131725500Y-83184420D01*
X131726922Y-83169982D01*
X131727494Y-83167109D01*
X131730897Y-83150000D01*
X131721225Y-83101376D01*
X131709515Y-83042505D01*
X131677444Y-82994508D01*
X131663994Y-82974378D01*
X131659949Y-82968323D01*
X131659942Y-82968315D01*
X131648624Y-82951376D01*
X131631677Y-82940052D01*
X131620470Y-82930854D01*
X130480910Y-81791294D01*
X134024500Y-81791294D01*
X134034957Y-81863067D01*
X134089080Y-81973779D01*
X134176220Y-82060919D01*
X134286931Y-82115043D01*
X134311168Y-82118574D01*
X134343499Y-82131576D01*
X134366295Y-82157933D01*
X134374500Y-82191801D01*
X134374500Y-83379890D01*
X134365762Y-83414774D01*
X134341612Y-83441417D01*
X134341496Y-83441496D01*
X134308233Y-83491278D01*
X134299500Y-83535180D01*
X134299500Y-84164820D01*
X134308233Y-84208722D01*
X134341496Y-84258504D01*
X134391278Y-84291767D01*
X134435180Y-84300500D01*
X134864819Y-84300500D01*
X134864820Y-84300500D01*
X134908722Y-84291767D01*
X134958504Y-84258504D01*
X134988772Y-84213202D01*
X135026511Y-84184245D01*
X135074085Y-84184244D01*
X135111827Y-84213204D01*
X135141855Y-84258143D01*
X135191473Y-84291296D01*
X135235226Y-84300000D01*
X135250000Y-84300000D01*
X135250000Y-84050000D01*
X135650000Y-84050000D01*
X135650000Y-84299999D01*
X135664777Y-84299999D01*
X135708526Y-84291297D01*
X135758143Y-84258144D01*
X135791296Y-84208526D01*
X135800000Y-84164774D01*
X135800000Y-84050000D01*
X136200001Y-84050000D01*
X136200001Y-84164777D01*
X136208702Y-84208526D01*
X136241855Y-84258143D01*
X136291473Y-84291296D01*
X136335226Y-84300000D01*
X136350000Y-84300000D01*
X136350000Y-84050000D01*
X136200001Y-84050000D01*
X135800000Y-84050000D01*
X135650000Y-84050000D01*
X135250000Y-84050000D01*
X135250000Y-83400001D01*
X135235223Y-83400001D01*
X135191473Y-83408702D01*
X135141856Y-83441855D01*
X135111829Y-83486795D01*
X135074086Y-83515756D01*
X135026513Y-83515756D01*
X134988772Y-83486795D01*
X134958504Y-83441496D01*
X134958387Y-83441417D01*
X134934238Y-83414774D01*
X134930537Y-83400000D01*
X135650000Y-83400000D01*
X135650000Y-83650000D01*
X135799999Y-83650000D01*
X136200000Y-83650000D01*
X136350000Y-83650000D01*
X136350000Y-83400001D01*
X136335223Y-83400001D01*
X136291473Y-83408702D01*
X136241856Y-83441855D01*
X136208703Y-83491473D01*
X136200000Y-83535226D01*
X136200000Y-83650000D01*
X135799999Y-83650000D01*
X135799999Y-83535223D01*
X135791297Y-83491473D01*
X135758144Y-83441856D01*
X135708526Y-83408703D01*
X135664774Y-83400000D01*
X135650000Y-83400000D01*
X134930537Y-83400000D01*
X134925500Y-83379890D01*
X134925500Y-82167380D01*
X134936726Y-82128195D01*
X134967000Y-82100899D01*
X135004134Y-82082744D01*
X135048780Y-82060919D01*
X135135919Y-81973780D01*
X135190043Y-81863067D01*
X135200500Y-81791295D01*
X135200500Y-81791294D01*
X135599500Y-81791294D01*
X135609957Y-81863067D01*
X135664080Y-81973779D01*
X135664081Y-81973779D01*
X135664081Y-81973780D01*
X135751220Y-82060919D01*
X135861933Y-82115043D01*
X135933705Y-82125500D01*
X136441294Y-82125499D01*
X136513067Y-82115043D01*
X136623780Y-82060919D01*
X136710919Y-81973780D01*
X136739634Y-81915042D01*
X136765043Y-81863068D01*
X136768574Y-81838832D01*
X136781576Y-81806501D01*
X136807933Y-81783705D01*
X136841801Y-81775500D01*
X137155727Y-81775500D01*
X137189595Y-81783705D01*
X137215952Y-81806500D01*
X137228954Y-81838831D01*
X137234426Y-81876394D01*
X137285801Y-81981482D01*
X137368517Y-82064198D01*
X137473605Y-82115573D01*
X137541740Y-82125500D01*
X138008260Y-82125500D01*
X138076394Y-82115573D01*
X138136894Y-82085996D01*
X138181483Y-82064198D01*
X138264198Y-81981483D01*
X138315573Y-81876393D01*
X138317515Y-81863068D01*
X138325500Y-81808260D01*
X138325500Y-81750000D01*
X138875001Y-81750000D01*
X138875001Y-81808218D01*
X138884911Y-81876249D01*
X138936213Y-81981188D01*
X139018811Y-82063786D01*
X139123751Y-82115088D01*
X139175000Y-82122554D01*
X139175000Y-81750000D01*
X139675000Y-81750000D01*
X139675000Y-82122554D01*
X139726249Y-82115087D01*
X139831188Y-82063786D01*
X139913786Y-81981188D01*
X139965088Y-81876248D01*
X139975000Y-81808219D01*
X139975000Y-81750000D01*
X139675000Y-81750000D01*
X139175000Y-81750000D01*
X138875001Y-81750000D01*
X138325500Y-81750000D01*
X138325500Y-81250000D01*
X138875000Y-81250000D01*
X139175000Y-81250000D01*
X139175000Y-80877446D01*
X139174999Y-80877445D01*
X139675000Y-80877445D01*
X139675000Y-81250000D01*
X139974999Y-81250000D01*
X139974999Y-81191782D01*
X139965088Y-81123750D01*
X139913786Y-81018811D01*
X139831188Y-80936213D01*
X139726248Y-80884911D01*
X139675000Y-80877445D01*
X139174999Y-80877445D01*
X139123750Y-80884912D01*
X139018811Y-80936213D01*
X138936213Y-81018811D01*
X138884911Y-81123751D01*
X138875000Y-81191781D01*
X138875000Y-81250000D01*
X138325500Y-81250000D01*
X138325500Y-81191740D01*
X138315573Y-81123605D01*
X138264198Y-81018517D01*
X138181482Y-80935801D01*
X138076394Y-80884426D01*
X138008260Y-80874500D01*
X137541740Y-80874500D01*
X137473605Y-80884426D01*
X137368517Y-80935801D01*
X137285801Y-81018517D01*
X137234426Y-81123605D01*
X137228954Y-81161169D01*
X137215952Y-81193500D01*
X137189595Y-81216295D01*
X137155727Y-81224500D01*
X136841801Y-81224500D01*
X136807933Y-81216295D01*
X136781576Y-81193500D01*
X136768574Y-81161169D01*
X136767743Y-81155470D01*
X136765043Y-81136933D01*
X136710919Y-81026220D01*
X136623780Y-80939081D01*
X136623779Y-80939080D01*
X136513068Y-80884957D01*
X136489142Y-80881471D01*
X136441295Y-80874500D01*
X136441293Y-80874500D01*
X135933705Y-80874500D01*
X135861932Y-80884957D01*
X135751220Y-80939080D01*
X135664080Y-81026220D01*
X135609957Y-81136931D01*
X135599500Y-81208706D01*
X135599500Y-81791294D01*
X135200500Y-81791294D01*
X135200499Y-81208706D01*
X135190043Y-81136933D01*
X135135919Y-81026220D01*
X135048780Y-80939081D01*
X135048779Y-80939080D01*
X134938068Y-80884957D01*
X134914142Y-80881471D01*
X134866295Y-80874500D01*
X134866293Y-80874500D01*
X134358705Y-80874500D01*
X134286932Y-80884957D01*
X134176220Y-80939080D01*
X134089080Y-81026220D01*
X134034957Y-81136931D01*
X134024500Y-81208706D01*
X134024500Y-81791294D01*
X130480910Y-81791294D01*
X128519145Y-79829529D01*
X128509942Y-79818315D01*
X128509437Y-79817559D01*
X128498624Y-79801376D01*
X128481679Y-79790053D01*
X128481674Y-79790049D01*
X128444467Y-79765189D01*
X128427627Y-79753937D01*
X128407495Y-79740485D01*
X128360818Y-79731200D01*
X128319985Y-79723078D01*
X128319983Y-79723078D01*
X128300000Y-79719103D01*
X128299999Y-79719103D01*
X128291190Y-79720855D01*
X128280015Y-79723078D01*
X128265580Y-79724500D01*
X124891170Y-79724500D01*
X124860429Y-79717813D01*
X124835246Y-79698961D01*
X124798049Y-79656033D01*
X124798046Y-79656031D01*
X124685103Y-79583446D01*
X124657867Y-79552084D01*
X124651818Y-79510989D01*
X124668863Y-79473109D01*
X124703628Y-79450381D01*
X124774727Y-79428814D01*
X124948538Y-79335910D01*
X125100883Y-79210883D01*
X125225910Y-79058538D01*
X125318814Y-78884727D01*
X125376024Y-78696132D01*
X125395341Y-78500000D01*
X125924659Y-78500000D01*
X125943976Y-78696132D01*
X126001186Y-78884728D01*
X126041255Y-78959691D01*
X126094090Y-79058538D01*
X126219117Y-79210883D01*
X126371462Y-79335910D01*
X126545273Y-79428814D01*
X126733868Y-79486024D01*
X126930000Y-79505341D01*
X127126132Y-79486024D01*
X127314727Y-79428814D01*
X127488538Y-79335910D01*
X127640883Y-79210883D01*
X127765910Y-79058538D01*
X127858814Y-78884727D01*
X127916024Y-78696132D01*
X127935341Y-78500000D01*
X127935341Y-78499999D01*
X128464659Y-78499999D01*
X128483976Y-78696132D01*
X128541186Y-78884728D01*
X128581255Y-78959691D01*
X128634090Y-79058538D01*
X128759117Y-79210883D01*
X128911462Y-79335910D01*
X129085273Y-79428814D01*
X129273868Y-79486024D01*
X129470000Y-79505341D01*
X129666132Y-79486024D01*
X129854727Y-79428814D01*
X130028538Y-79335910D01*
X130180883Y-79210883D01*
X130305910Y-79058538D01*
X130398814Y-78884727D01*
X130456024Y-78696132D01*
X130475341Y-78500000D01*
X130475341Y-78499999D01*
X131004659Y-78499999D01*
X131023976Y-78696132D01*
X131081186Y-78884728D01*
X131121255Y-78959691D01*
X131174090Y-79058538D01*
X131299117Y-79210883D01*
X131451462Y-79335910D01*
X131625273Y-79428814D01*
X131813868Y-79486024D01*
X132010000Y-79505341D01*
X132206132Y-79486024D01*
X132394727Y-79428814D01*
X132514451Y-79364820D01*
X133549500Y-79364820D01*
X133558233Y-79408722D01*
X133591496Y-79458504D01*
X133641278Y-79491767D01*
X133685180Y-79500500D01*
X135414819Y-79500500D01*
X135414820Y-79500500D01*
X135458722Y-79491767D01*
X135508504Y-79458504D01*
X135541767Y-79408722D01*
X135550500Y-79364820D01*
X135550500Y-77635180D01*
X135541767Y-77591278D01*
X135508504Y-77541496D01*
X135458722Y-77508233D01*
X135414820Y-77499500D01*
X133685180Y-77499500D01*
X133641278Y-77508233D01*
X133591496Y-77541496D01*
X133558233Y-77591278D01*
X133549500Y-77635180D01*
X133549500Y-79364820D01*
X132514451Y-79364820D01*
X132568538Y-79335910D01*
X132720883Y-79210883D01*
X132845910Y-79058538D01*
X132938814Y-78884727D01*
X132996024Y-78696132D01*
X133015341Y-78500000D01*
X132996024Y-78303868D01*
X132938814Y-78115273D01*
X132845910Y-77941462D01*
X132720883Y-77789117D01*
X132568538Y-77664090D01*
X132481632Y-77617637D01*
X132394728Y-77571186D01*
X132206132Y-77513976D01*
X132010000Y-77494659D01*
X131813867Y-77513976D01*
X131625271Y-77571186D01*
X131451462Y-77664090D01*
X131299117Y-77789117D01*
X131174090Y-77941462D01*
X131081186Y-78115271D01*
X131023976Y-78303867D01*
X131004659Y-78499999D01*
X130475341Y-78499999D01*
X130456024Y-78303868D01*
X130398814Y-78115273D01*
X130305910Y-77941462D01*
X130180883Y-77789117D01*
X130028538Y-77664090D01*
X129941632Y-77617637D01*
X129854728Y-77571186D01*
X129666132Y-77513976D01*
X129470000Y-77494659D01*
X129273867Y-77513976D01*
X129085271Y-77571186D01*
X128911462Y-77664090D01*
X128759117Y-77789117D01*
X128634090Y-77941462D01*
X128541186Y-78115271D01*
X128483976Y-78303867D01*
X128464659Y-78499999D01*
X127935341Y-78499999D01*
X127916024Y-78303868D01*
X127858814Y-78115273D01*
X127765910Y-77941462D01*
X127640883Y-77789117D01*
X127488538Y-77664090D01*
X127401632Y-77617637D01*
X127314728Y-77571186D01*
X127126132Y-77513976D01*
X126930000Y-77494659D01*
X126733867Y-77513976D01*
X126545271Y-77571186D01*
X126371462Y-77664090D01*
X126219117Y-77789117D01*
X126094090Y-77941462D01*
X126001186Y-78115271D01*
X125943976Y-78303867D01*
X125924659Y-78500000D01*
X125395341Y-78500000D01*
X125376024Y-78303868D01*
X125318814Y-78115273D01*
X125225910Y-77941462D01*
X125100883Y-77789117D01*
X124948538Y-77664090D01*
X124861632Y-77617637D01*
X124774728Y-77571186D01*
X124586132Y-77513976D01*
X124390000Y-77494659D01*
X124193867Y-77513976D01*
X124005271Y-77571186D01*
X123831462Y-77664090D01*
X123679117Y-77789117D01*
X123554090Y-77941462D01*
X123461186Y-78115271D01*
X123403976Y-78303867D01*
X123384659Y-78500000D01*
X123403976Y-78696132D01*
X123461186Y-78884728D01*
X123501255Y-78959691D01*
X123554090Y-79058538D01*
X123679117Y-79210883D01*
X123831462Y-79335910D01*
X124005273Y-79428814D01*
X124193868Y-79486024D01*
X124218504Y-79488450D01*
X124259832Y-79506275D01*
X124283189Y-79544753D01*
X124279928Y-79589646D01*
X124251257Y-79624345D01*
X124201954Y-79656031D01*
X124201951Y-79656033D01*
X124164755Y-79698960D01*
X124117117Y-79753937D01*
X124063302Y-79871774D01*
X124044867Y-80000000D01*
X124064483Y-80136437D01*
X124056807Y-80181268D01*
X124024359Y-80213141D01*
X123979399Y-80220015D01*
X123938910Y-80199294D01*
X122763814Y-79024198D01*
X122742941Y-78982729D01*
X122750878Y-78936989D01*
X122778814Y-78884727D01*
X122836024Y-78696132D01*
X122855341Y-78500000D01*
X122836024Y-78303868D01*
X122778814Y-78115273D01*
X122685910Y-77941462D01*
X122560883Y-77789117D01*
X122408538Y-77664090D01*
X122321632Y-77617637D01*
X122234728Y-77571186D01*
X122046132Y-77513976D01*
X121850000Y-77494659D01*
X121653867Y-77513976D01*
X121465271Y-77571186D01*
X121291462Y-77664090D01*
X121139117Y-77789117D01*
X121014090Y-77941462D01*
X120921186Y-78115271D01*
X120863976Y-78303867D01*
X120844659Y-78500000D01*
X120863976Y-78696132D01*
X120921186Y-78884728D01*
X120961255Y-78959691D01*
X121014090Y-79058538D01*
X121139117Y-79210883D01*
X121291462Y-79335910D01*
X121465273Y-79428814D01*
X121653868Y-79486024D01*
X121850000Y-79505341D01*
X122046132Y-79486024D01*
X122234727Y-79428814D01*
X122286989Y-79400878D01*
X122332729Y-79392941D01*
X122374198Y-79413814D01*
X123502826Y-80542442D01*
X123518867Y-80566449D01*
X123524500Y-80594768D01*
X123524500Y-80858695D01*
X123513972Y-80896738D01*
X123500000Y-80910041D01*
X123500000Y-81406000D01*
X123490086Y-81443000D01*
X123463000Y-81470086D01*
X123426000Y-81480000D01*
X122959025Y-81480000D01*
X122964504Y-81507543D01*
X122979100Y-81529388D01*
X122991482Y-81566869D01*
X122982833Y-81605383D01*
X122955615Y-81633972D01*
X122917571Y-81644500D01*
X122599500Y-81644500D01*
X122562500Y-81634586D01*
X122535414Y-81607500D01*
X122525500Y-81570500D01*
X122525500Y-81185181D01*
X122525500Y-81185180D01*
X122516767Y-81141278D01*
X122483504Y-81091496D01*
X122466297Y-81079999D01*
X122959025Y-81079999D01*
X122959026Y-81080000D01*
X123100000Y-81080000D01*
X123100000Y-80916146D01*
X123019760Y-80969760D01*
X122964504Y-81052455D01*
X122959025Y-81079999D01*
X122466297Y-81079999D01*
X122433722Y-81058233D01*
X122389820Y-81049500D01*
X121360180Y-81049500D01*
X121316278Y-81058233D01*
X121266496Y-81091496D01*
X121233233Y-81141278D01*
X121224500Y-81185180D01*
X121224500Y-83014820D01*
X121233233Y-83058722D01*
X121266496Y-83108504D01*
X121316278Y-83141767D01*
X121360180Y-83150500D01*
X122030232Y-83150500D01*
X122058551Y-83156133D01*
X122082558Y-83172174D01*
X124380854Y-85470470D01*
X124390052Y-85481677D01*
X124401376Y-85498624D01*
X124407309Y-85502588D01*
X124418315Y-85509942D01*
X124418325Y-85509950D01*
X124441304Y-85525304D01*
X124441305Y-85525304D01*
X124492505Y-85559515D01*
X124572867Y-85575500D01*
X124572868Y-85575500D01*
X124600000Y-85580897D01*
X124619984Y-85576921D01*
X124634420Y-85575500D01*
X125179890Y-85575500D01*
X125214774Y-85584238D01*
X125241417Y-85608387D01*
X125241496Y-85608504D01*
X125286346Y-85638472D01*
X125315307Y-85676213D01*
X125315307Y-85723787D01*
X125286346Y-85761527D01*
X125261223Y-85778315D01*
X125244440Y-85789529D01*
X125241496Y-85791496D01*
X125241417Y-85791612D01*
X125214774Y-85815762D01*
X125179890Y-85824500D01*
X123144768Y-85824500D01*
X123116449Y-85818867D01*
X123092442Y-85802826D01*
X119997174Y-82707558D01*
X119981133Y-82683551D01*
X119975500Y-82655232D01*
X119975500Y-81185181D01*
X119975500Y-81185180D01*
X119966767Y-81141278D01*
X119933504Y-81091496D01*
X119883722Y-81058233D01*
X119839820Y-81049500D01*
X118810180Y-81049500D01*
X118795325Y-81052455D01*
X118766278Y-81058233D01*
X118716496Y-81091496D01*
X118683233Y-81141278D01*
X118674500Y-81185181D01*
X118674500Y-81750500D01*
X118664586Y-81787500D01*
X118637500Y-81814586D01*
X118600500Y-81824500D01*
X118323001Y-81824500D01*
X118276056Y-81807703D01*
X118250423Y-81764938D01*
X118241484Y-81720000D01*
X118235966Y-81692260D01*
X118235965Y-81692258D01*
X118201489Y-81640660D01*
X118189018Y-81599548D01*
X118201490Y-81558436D01*
X118235495Y-81507544D01*
X118240974Y-81480000D01*
X117774000Y-81480000D01*
X117737000Y-81470086D01*
X117709914Y-81443000D01*
X117700000Y-81406000D01*
X117700000Y-80916147D01*
X117690613Y-80922419D01*
X117653131Y-80934801D01*
X117614617Y-80926152D01*
X117604107Y-80916146D01*
X118100000Y-80916146D01*
X118100000Y-81080000D01*
X118240974Y-81080000D01*
X118240974Y-81079999D01*
X118235495Y-81052455D01*
X118180239Y-80969760D01*
X118100000Y-80916146D01*
X117604107Y-80916146D01*
X117586028Y-80898934D01*
X117575500Y-80860890D01*
X117575500Y-80654768D01*
X117581133Y-80626449D01*
X117597174Y-80602442D01*
X117888240Y-80311376D01*
X118785802Y-79413812D01*
X118827268Y-79392941D01*
X118873008Y-79400877D01*
X118925273Y-79428814D01*
X119113868Y-79486024D01*
X119310000Y-79505341D01*
X119506132Y-79486024D01*
X119694727Y-79428814D01*
X119868538Y-79335910D01*
X120020883Y-79210883D01*
X120145910Y-79058538D01*
X120238814Y-78884727D01*
X120296024Y-78696132D01*
X120315341Y-78500000D01*
X120296024Y-78303868D01*
X120238814Y-78115273D01*
X120145910Y-77941462D01*
X120020883Y-77789117D01*
X119868538Y-77664090D01*
X119781632Y-77617637D01*
X119694728Y-77571186D01*
X119506132Y-77513976D01*
X119310000Y-77494659D01*
X119113867Y-77513976D01*
X118925271Y-77571186D01*
X118751462Y-77664090D01*
X118599117Y-77789117D01*
X118474090Y-77941462D01*
X118381186Y-78115271D01*
X118323976Y-78303867D01*
X118304659Y-78500000D01*
X118323976Y-78696132D01*
X118381187Y-78884730D01*
X118409120Y-78936989D01*
X118417057Y-78982730D01*
X118396184Y-79024198D01*
X117171826Y-80248557D01*
X117133937Y-80268809D01*
X117091181Y-80264598D01*
X117057971Y-80237343D01*
X117045500Y-80196231D01*
X117045500Y-79516830D01*
X117060063Y-79472748D01*
X117098018Y-79446016D01*
X117154727Y-79428814D01*
X117328538Y-79335910D01*
X117480883Y-79210883D01*
X117605910Y-79058538D01*
X117698814Y-78884727D01*
X117756024Y-78696132D01*
X117775341Y-78500000D01*
X117756024Y-78303868D01*
X117698814Y-78115273D01*
X117605910Y-77941462D01*
X117480883Y-77789117D01*
X117328538Y-77664090D01*
X117241632Y-77617637D01*
X117154728Y-77571186D01*
X116966132Y-77513976D01*
X116770000Y-77494659D01*
X116573867Y-77513976D01*
X116385271Y-77571186D01*
X116211462Y-77664090D01*
X116059117Y-77789117D01*
X115934090Y-77941462D01*
X115841186Y-78115271D01*
X115783976Y-78303867D01*
X115764659Y-78500000D01*
X115783976Y-78696132D01*
X115841186Y-78884728D01*
X115881255Y-78959691D01*
X115934090Y-79058538D01*
X116059117Y-79210883D01*
X116211462Y-79335910D01*
X116385273Y-79428814D01*
X116441981Y-79446016D01*
X116479937Y-79472748D01*
X116494500Y-79516830D01*
X116494500Y-82426232D01*
X116482029Y-82467344D01*
X116448819Y-82494599D01*
X116406063Y-82498810D01*
X116368174Y-82478558D01*
X114527174Y-80637558D01*
X114511133Y-80613551D01*
X114505500Y-80585232D01*
X114505500Y-79516830D01*
X114520063Y-79472748D01*
X114558018Y-79446016D01*
X114614727Y-79428814D01*
X114788538Y-79335910D01*
X114940883Y-79210883D01*
X115065910Y-79058538D01*
X115158814Y-78884727D01*
X115216024Y-78696132D01*
X115235341Y-78500000D01*
X115216024Y-78303868D01*
X115158814Y-78115273D01*
X115065910Y-77941462D01*
X114940883Y-77789117D01*
X114788538Y-77664090D01*
X114701632Y-77617637D01*
X114614728Y-77571186D01*
X114426132Y-77513976D01*
X114230000Y-77494659D01*
X114033867Y-77513976D01*
X113845271Y-77571186D01*
X113671462Y-77664090D01*
X113519117Y-77789117D01*
X113394090Y-77941462D01*
X113301186Y-78115271D01*
X113243976Y-78303867D01*
X113224659Y-78500000D01*
X113243976Y-78696132D01*
X113301186Y-78884728D01*
X113341255Y-78959691D01*
X113394090Y-79058538D01*
X113519117Y-79210883D01*
X113671462Y-79335910D01*
X113845273Y-79428814D01*
X113901981Y-79446016D01*
X113939937Y-79472748D01*
X113954500Y-79516830D01*
X113954500Y-80695580D01*
X113953078Y-80710018D01*
X113949103Y-80730000D01*
X113949715Y-80733079D01*
X113944030Y-80779154D01*
X113912018Y-80812776D01*
X113866277Y-80820712D01*
X113824810Y-80799839D01*
X112367974Y-79343003D01*
X112348233Y-79307480D01*
X112350227Y-79266890D01*
X112373355Y-79233474D01*
X112400883Y-79210883D01*
X112525910Y-79058538D01*
X112618814Y-78884727D01*
X112676024Y-78696132D01*
X112695341Y-78500000D01*
X112676024Y-78303868D01*
X112618814Y-78115273D01*
X112525910Y-77941462D01*
X112400883Y-77789117D01*
X112248538Y-77664090D01*
X112161632Y-77617637D01*
X112074728Y-77571186D01*
X111886132Y-77513976D01*
X111690000Y-77494659D01*
X111493867Y-77513976D01*
X111305271Y-77571186D01*
X111131462Y-77664090D01*
X110979117Y-77789117D01*
X110854090Y-77941462D01*
X110761186Y-78115271D01*
X110703976Y-78303867D01*
X110684659Y-78500000D01*
X110703976Y-78696132D01*
X110761186Y-78884728D01*
X110801255Y-78959691D01*
X110854090Y-79058538D01*
X110979117Y-79210883D01*
X111131462Y-79335910D01*
X111305273Y-79428814D01*
X111493868Y-79486024D01*
X111652968Y-79501693D01*
X111698038Y-79523009D01*
X117051241Y-84876213D01*
X122356819Y-90181791D01*
X122365705Y-90194142D01*
X122368542Y-90196728D01*
X122398975Y-90224472D01*
X122403642Y-90228726D01*
X122406115Y-90231087D01*
X122419702Y-90244674D01*
X122421233Y-90245723D01*
X122429268Y-90252088D01*
X122451567Y-90272416D01*
X122463431Y-90277012D01*
X122478524Y-90284967D01*
X122489019Y-90292157D01*
X122518394Y-90299066D01*
X122528180Y-90302096D01*
X122556327Y-90313000D01*
X122569052Y-90313000D01*
X122585995Y-90314965D01*
X122598381Y-90317879D01*
X122628266Y-90313709D01*
X122638491Y-90313000D01*
X122726509Y-90313000D01*
X122765694Y-90324226D01*
X122792990Y-90354500D01*
X122839080Y-90448779D01*
X122839081Y-90448780D01*
X122926220Y-90535919D01*
X123036933Y-90590043D01*
X123108705Y-90600500D01*
X123691294Y-90600499D01*
X123763067Y-90590043D01*
X123873780Y-90535919D01*
X123960919Y-90448780D01*
X123964234Y-90441998D01*
X123991529Y-90411726D01*
X124030714Y-90400500D01*
X125207070Y-90400500D01*
X125248180Y-90412970D01*
X125286346Y-90438472D01*
X125315307Y-90476213D01*
X125315307Y-90523787D01*
X125286346Y-90561527D01*
X125241496Y-90591496D01*
X125208233Y-90641278D01*
X125199500Y-90685180D01*
X125199500Y-91114820D01*
X125208233Y-91158722D01*
X125241496Y-91208504D01*
X125242087Y-91209388D01*
X125254469Y-91246869D01*
X125245820Y-91285384D01*
X125218601Y-91313972D01*
X125180558Y-91324500D01*
X124088159Y-91324500D01*
X124054292Y-91316295D01*
X124027935Y-91293501D01*
X124016144Y-91264186D01*
X124010760Y-91253173D01*
X123960919Y-91151220D01*
X123873780Y-91064081D01*
X123873779Y-91064080D01*
X123763068Y-91009957D01*
X123739142Y-91006471D01*
X123691295Y-90999500D01*
X123691293Y-90999500D01*
X123108705Y-90999500D01*
X123036932Y-91009957D01*
X122926220Y-91064080D01*
X122839080Y-91151220D01*
X122784957Y-91261931D01*
X122783523Y-91271774D01*
X122776628Y-91319103D01*
X122774500Y-91333706D01*
X122774500Y-91841294D01*
X122784957Y-91913067D01*
X122839080Y-92023779D01*
X122888475Y-92073174D01*
X122908727Y-92111063D01*
X122904516Y-92153819D01*
X122877261Y-92187029D01*
X122836149Y-92199500D01*
X122755123Y-92199500D01*
X122726804Y-92193867D01*
X122702797Y-92177826D01*
X121822174Y-91297203D01*
X121806133Y-91273196D01*
X121800500Y-91244877D01*
X121800500Y-90161092D01*
X121802951Y-90146066D01*
X121802730Y-90141296D01*
X121800578Y-90094762D01*
X121800500Y-90091345D01*
X121800500Y-90072155D01*
X121800160Y-90070337D01*
X121798978Y-90060161D01*
X121797585Y-90030009D01*
X121792444Y-90018366D01*
X121787398Y-90002072D01*
X121787011Y-90000000D01*
X121785061Y-89989567D01*
X121769168Y-89963899D01*
X121764402Y-89954857D01*
X121752206Y-89927235D01*
X121743207Y-89918236D01*
X121732617Y-89904865D01*
X121725919Y-89894048D01*
X121701837Y-89875862D01*
X121694106Y-89869135D01*
X112055681Y-80230710D01*
X112046793Y-80218357D01*
X112043958Y-80215772D01*
X112008844Y-80183761D01*
X112006372Y-80181401D01*
X111992794Y-80167823D01*
X111991267Y-80166777D01*
X111983239Y-80160418D01*
X111960933Y-80140083D01*
X111949065Y-80135486D01*
X111933979Y-80127535D01*
X111923480Y-80120343D01*
X111894108Y-80113435D01*
X111884321Y-80110404D01*
X111856174Y-80099500D01*
X111856173Y-80099500D01*
X111843447Y-80099500D01*
X111826505Y-80097534D01*
X111821397Y-80096332D01*
X111814117Y-80094620D01*
X111784234Y-80098790D01*
X111774009Y-80099500D01*
X111205123Y-80099500D01*
X111176804Y-80093867D01*
X111152797Y-80077826D01*
X110076130Y-79001159D01*
X110055257Y-78959691D01*
X110063194Y-78913949D01*
X110078814Y-78884727D01*
X110136024Y-78696132D01*
X110155341Y-78500000D01*
X110136024Y-78303868D01*
X110078814Y-78115273D01*
X109985910Y-77941462D01*
X109860883Y-77789117D01*
X109708538Y-77664090D01*
X109621632Y-77617637D01*
X109534728Y-77571186D01*
X109346132Y-77513976D01*
X109150000Y-77494659D01*
X108953867Y-77513976D01*
X108765271Y-77571186D01*
X108591462Y-77664090D01*
X108439117Y-77789117D01*
X108314090Y-77941462D01*
X108221186Y-78115271D01*
X108163976Y-78303867D01*
X108144659Y-78500000D01*
X108163976Y-78696132D01*
X108221186Y-78884728D01*
X108261255Y-78959691D01*
X108314090Y-79058538D01*
X108439117Y-79210883D01*
X108591462Y-79335910D01*
X108765273Y-79428814D01*
X108953868Y-79486024D01*
X109150000Y-79505341D01*
X109346132Y-79486024D01*
X109534727Y-79428814D01*
X109563949Y-79413193D01*
X109609691Y-79405257D01*
X109651159Y-79426130D01*
X110794318Y-80569289D01*
X110803207Y-80581644D01*
X110841153Y-80616236D01*
X110843626Y-80618597D01*
X110857206Y-80632177D01*
X110858734Y-80633224D01*
X110866761Y-80639582D01*
X110889067Y-80659916D01*
X110900934Y-80664513D01*
X110916021Y-80672465D01*
X110926520Y-80679657D01*
X110955894Y-80686566D01*
X110965680Y-80689596D01*
X110993827Y-80700500D01*
X111006552Y-80700500D01*
X111023495Y-80702465D01*
X111035881Y-80705379D01*
X111065766Y-80701209D01*
X111075991Y-80700500D01*
X111644877Y-80700500D01*
X111673196Y-80706133D01*
X111697203Y-80722174D01*
X121177826Y-90202798D01*
X121193867Y-90226805D01*
X121199500Y-90255124D01*
X121199500Y-91338912D01*
X121197049Y-91353932D01*
X121199421Y-91405225D01*
X121199500Y-91408643D01*
X121199500Y-91427846D01*
X121199840Y-91429665D01*
X121201021Y-91439843D01*
X121202415Y-91469992D01*
X121207555Y-91481635D01*
X121212598Y-91497919D01*
X121214938Y-91510432D01*
X121230825Y-91536093D01*
X121235602Y-91545155D01*
X121247793Y-91572764D01*
X121256791Y-91581762D01*
X121267380Y-91595129D01*
X121268848Y-91597500D01*
X121274081Y-91605953D01*
X121298165Y-91624140D01*
X121305896Y-91630867D01*
X122344318Y-92669289D01*
X122353207Y-92681644D01*
X122372794Y-92699500D01*
X122389598Y-92714819D01*
X122391153Y-92716236D01*
X122393626Y-92718597D01*
X122407206Y-92732177D01*
X122408734Y-92733224D01*
X122416761Y-92739582D01*
X122423871Y-92746063D01*
X122439067Y-92759916D01*
X122450937Y-92764514D01*
X122466021Y-92772465D01*
X122476519Y-92779657D01*
X122505905Y-92786568D01*
X122515679Y-92789595D01*
X122543827Y-92800500D01*
X122556552Y-92800500D01*
X122573495Y-92802465D01*
X122585881Y-92805379D01*
X122615766Y-92801209D01*
X122625991Y-92800500D01*
X125207070Y-92800500D01*
X125248181Y-92812971D01*
X125251677Y-92815307D01*
X125281421Y-92835181D01*
X125286793Y-92838770D01*
X125315754Y-92876511D01*
X125315755Y-92924084D01*
X125286795Y-92961827D01*
X125241857Y-92991854D01*
X125208703Y-93041473D01*
X125200000Y-93085226D01*
X125200000Y-93100000D01*
X126099999Y-93100000D01*
X126099999Y-93085223D01*
X126091297Y-93041473D01*
X126058144Y-92991856D01*
X126013204Y-92961829D01*
X125984243Y-92924087D01*
X125984243Y-92876513D01*
X126013204Y-92838772D01*
X126058504Y-92808504D01*
X126091767Y-92758722D01*
X126100500Y-92714820D01*
X126100500Y-92609881D01*
X126113715Y-92567677D01*
X126148640Y-92540547D01*
X126192801Y-92538180D01*
X126230426Y-92561422D01*
X126301949Y-92643966D01*
X126311832Y-92650317D01*
X126337798Y-92679053D01*
X126345693Y-92716969D01*
X126333354Y-92753681D01*
X126320803Y-92772466D01*
X126308233Y-92791278D01*
X126299500Y-92835180D01*
X126299500Y-93464820D01*
X126308233Y-93508722D01*
X126311916Y-93514234D01*
X126324030Y-93562598D01*
X126302712Y-93607669D01*
X126207558Y-93702825D01*
X126183551Y-93718867D01*
X126155232Y-93724500D01*
X126118842Y-93724500D01*
X126080799Y-93713972D01*
X126053580Y-93685384D01*
X126044931Y-93646870D01*
X126057313Y-93609389D01*
X126091296Y-93558528D01*
X126100000Y-93514774D01*
X126100000Y-93500000D01*
X125200001Y-93500000D01*
X125200001Y-93514777D01*
X125208702Y-93558526D01*
X125242687Y-93609388D01*
X125255069Y-93646869D01*
X125246420Y-93685383D01*
X125219202Y-93713972D01*
X125181158Y-93724500D01*
X110544768Y-93724500D01*
X110516449Y-93718867D01*
X110492442Y-93702826D01*
X109289615Y-92499999D01*
X111044867Y-92499999D01*
X111063302Y-92628225D01*
X111117117Y-92746062D01*
X111117118Y-92746063D01*
X111201951Y-92843967D01*
X111310931Y-92914004D01*
X111435228Y-92950500D01*
X111564770Y-92950500D01*
X111564772Y-92950500D01*
X111689069Y-92914004D01*
X111798049Y-92843967D01*
X111835246Y-92801038D01*
X111860429Y-92782187D01*
X111891170Y-92775500D01*
X113465580Y-92775500D01*
X113480015Y-92776921D01*
X113500000Y-92780897D01*
X113527132Y-92775500D01*
X113527133Y-92775500D01*
X113607495Y-92759515D01*
X113657775Y-92725919D01*
X113657776Y-92725919D01*
X113683634Y-92708641D01*
X113683638Y-92708636D01*
X113698624Y-92698624D01*
X113709947Y-92681676D01*
X113719141Y-92670473D01*
X114205473Y-92184141D01*
X114216681Y-92174944D01*
X114233624Y-92163624D01*
X114249086Y-92140485D01*
X114294515Y-92072495D01*
X114315897Y-91965000D01*
X114311921Y-91945015D01*
X114310500Y-91930580D01*
X114310500Y-91634500D01*
X114320414Y-91597500D01*
X114347500Y-91570414D01*
X114384500Y-91560500D01*
X115444819Y-91560500D01*
X115444820Y-91560500D01*
X115488722Y-91551767D01*
X115538504Y-91518504D01*
X115571767Y-91468722D01*
X115580500Y-91424820D01*
X115580500Y-91389500D01*
X115590414Y-91352500D01*
X115617500Y-91325414D01*
X115654500Y-91315500D01*
X116571616Y-91315500D01*
X116611624Y-91327247D01*
X116638929Y-91358760D01*
X116643344Y-91389471D01*
X116643353Y-91389470D01*
X116663302Y-91528225D01*
X116717117Y-91646062D01*
X116717118Y-91646063D01*
X116801951Y-91743967D01*
X116910931Y-91814004D01*
X117035228Y-91850500D01*
X117164770Y-91850500D01*
X117164772Y-91850500D01*
X117289069Y-91814004D01*
X117398049Y-91743967D01*
X117482882Y-91646063D01*
X117536697Y-91528226D01*
X117555133Y-91400000D01*
X117536697Y-91271774D01*
X117482882Y-91153937D01*
X117398049Y-91056033D01*
X117289069Y-90985996D01*
X117164772Y-90949500D01*
X117164770Y-90949500D01*
X117069768Y-90949500D01*
X117041449Y-90943867D01*
X117017442Y-90927826D01*
X116959145Y-90869529D01*
X116949942Y-90858315D01*
X116944386Y-90850000D01*
X116938624Y-90841376D01*
X116921679Y-90830053D01*
X116921674Y-90830049D01*
X116876701Y-90800000D01*
X116847495Y-90780485D01*
X116759985Y-90763078D01*
X116759983Y-90763078D01*
X116740000Y-90759103D01*
X116720015Y-90763078D01*
X116705580Y-90764500D01*
X115654500Y-90764500D01*
X115617500Y-90754586D01*
X115590414Y-90727500D01*
X115580500Y-90690500D01*
X115580500Y-90655181D01*
X115579743Y-90651375D01*
X115571767Y-90611278D01*
X115538504Y-90561496D01*
X115488722Y-90528233D01*
X115444820Y-90519500D01*
X112625180Y-90519500D01*
X112581278Y-90528233D01*
X112531496Y-90561496D01*
X112498233Y-90611278D01*
X112489500Y-90655180D01*
X112489500Y-91424820D01*
X112498233Y-91468722D01*
X112531496Y-91518504D01*
X112581278Y-91551767D01*
X112625180Y-91560500D01*
X113685500Y-91560500D01*
X113722500Y-91570414D01*
X113749586Y-91597500D01*
X113759500Y-91634500D01*
X113759500Y-91820232D01*
X113753867Y-91848551D01*
X113737826Y-91872558D01*
X113407558Y-92202826D01*
X113383551Y-92218867D01*
X113355232Y-92224500D01*
X111891170Y-92224500D01*
X111860429Y-92217813D01*
X111835246Y-92198961D01*
X111798049Y-92156033D01*
X111689069Y-92085996D01*
X111564772Y-92049500D01*
X111435228Y-92049500D01*
X111310930Y-92085996D01*
X111310931Y-92085996D01*
X111201951Y-92156033D01*
X111117117Y-92253937D01*
X111063302Y-92371774D01*
X111044867Y-92499999D01*
X109289615Y-92499999D01*
X108471057Y-91681441D01*
X108450184Y-91639972D01*
X108458122Y-91594230D01*
X108491746Y-91562219D01*
X108537823Y-91556538D01*
X108555224Y-91560000D01*
X109715000Y-91560000D01*
X109715000Y-91290000D01*
X110215000Y-91290000D01*
X110215000Y-91559999D01*
X111374777Y-91559999D01*
X111418526Y-91551297D01*
X111468143Y-91518144D01*
X111501296Y-91468526D01*
X111510000Y-91424774D01*
X111510000Y-91290000D01*
X110215000Y-91290000D01*
X109715000Y-91290000D01*
X108420001Y-91290000D01*
X108420001Y-91424773D01*
X108423463Y-91442182D01*
X108417778Y-91488257D01*
X108385766Y-91521879D01*
X108340025Y-91529815D01*
X108298558Y-91508942D01*
X107579616Y-90790000D01*
X108420000Y-90790000D01*
X109715000Y-90790000D01*
X109715000Y-90520001D01*
X108555223Y-90520001D01*
X108511473Y-90528702D01*
X108461856Y-90561855D01*
X108428703Y-90611473D01*
X108420000Y-90655226D01*
X108420000Y-90790000D01*
X107579616Y-90790000D01*
X107309616Y-90520000D01*
X110215000Y-90520000D01*
X110215000Y-90790000D01*
X111509999Y-90790000D01*
X111509999Y-90655223D01*
X111501297Y-90611473D01*
X111468144Y-90561856D01*
X111418526Y-90528703D01*
X111374774Y-90520000D01*
X110215000Y-90520000D01*
X107309616Y-90520000D01*
X106809616Y-90020000D01*
X108420001Y-90020000D01*
X108420001Y-90154777D01*
X108428702Y-90198526D01*
X108461855Y-90248143D01*
X108511473Y-90281296D01*
X108555226Y-90290000D01*
X109715000Y-90290000D01*
X109715000Y-90020000D01*
X110215000Y-90020000D01*
X110215000Y-90289999D01*
X111374777Y-90289999D01*
X111418526Y-90281297D01*
X111468143Y-90248144D01*
X111501296Y-90198526D01*
X111509991Y-90154820D01*
X112489500Y-90154820D01*
X112498233Y-90198722D01*
X112531496Y-90248504D01*
X112581278Y-90281767D01*
X112625180Y-90290500D01*
X115444819Y-90290500D01*
X115444820Y-90290500D01*
X115488722Y-90281767D01*
X115538504Y-90248504D01*
X115571767Y-90198722D01*
X115580500Y-90154820D01*
X115580500Y-89385180D01*
X115571767Y-89341278D01*
X115538504Y-89291496D01*
X115488722Y-89258233D01*
X115444820Y-89249500D01*
X112625180Y-89249500D01*
X112581278Y-89258233D01*
X112531496Y-89291496D01*
X112498233Y-89341278D01*
X112489500Y-89385180D01*
X112489500Y-90154820D01*
X111509991Y-90154820D01*
X111510000Y-90154774D01*
X111510000Y-90020000D01*
X110215000Y-90020000D01*
X109715000Y-90020000D01*
X108420001Y-90020000D01*
X106809616Y-90020000D01*
X106309616Y-89520000D01*
X108420000Y-89520000D01*
X109715000Y-89520000D01*
X109715000Y-89250001D01*
X108555223Y-89250001D01*
X108511473Y-89258702D01*
X108461856Y-89291855D01*
X108428703Y-89341473D01*
X108420000Y-89385226D01*
X108420000Y-89520000D01*
X106309616Y-89520000D01*
X106039616Y-89250000D01*
X110215000Y-89250000D01*
X110215000Y-89520000D01*
X111509999Y-89520000D01*
X111509999Y-89385223D01*
X111501297Y-89341473D01*
X111468144Y-89291856D01*
X111418526Y-89258703D01*
X111374774Y-89250000D01*
X110215000Y-89250000D01*
X106039616Y-89250000D01*
X105539616Y-88750000D01*
X108420001Y-88750000D01*
X108420001Y-88884777D01*
X108428702Y-88928526D01*
X108461855Y-88978143D01*
X108511473Y-89011296D01*
X108555226Y-89020000D01*
X109715000Y-89020000D01*
X109715000Y-88750000D01*
X110215000Y-88750000D01*
X110215000Y-89019999D01*
X111374777Y-89019999D01*
X111418526Y-89011297D01*
X111468143Y-88978144D01*
X111501296Y-88928526D01*
X111509991Y-88884820D01*
X112489500Y-88884820D01*
X112498233Y-88928722D01*
X112531496Y-88978504D01*
X112581278Y-89011767D01*
X112625180Y-89020500D01*
X115444819Y-89020500D01*
X115444820Y-89020500D01*
X115488722Y-89011767D01*
X115538504Y-88978504D01*
X115571767Y-88928722D01*
X115572521Y-88924927D01*
X115590269Y-88889671D01*
X115623618Y-88868553D01*
X115663080Y-88867585D01*
X115697425Y-88887041D01*
X116726910Y-89916526D01*
X116744797Y-89945482D01*
X116747831Y-89979382D01*
X116744866Y-89999999D01*
X116763302Y-90128225D01*
X116817117Y-90246062D01*
X116817118Y-90246063D01*
X116901951Y-90343967D01*
X117010931Y-90414004D01*
X117135228Y-90450500D01*
X117264770Y-90450500D01*
X117264772Y-90450500D01*
X117389069Y-90414004D01*
X117498049Y-90343967D01*
X117582882Y-90246063D01*
X117636697Y-90128226D01*
X117655133Y-90000000D01*
X117636697Y-89871774D01*
X117622770Y-89841278D01*
X117583478Y-89755241D01*
X117578876Y-89707054D01*
X117605046Y-89666332D01*
X117650790Y-89650500D01*
X117764770Y-89650500D01*
X117764772Y-89650500D01*
X117889069Y-89614004D01*
X117998049Y-89543967D01*
X118082882Y-89446063D01*
X118136697Y-89328226D01*
X118155133Y-89200000D01*
X118136697Y-89071774D01*
X118082882Y-88953937D01*
X118082881Y-88953936D01*
X118082881Y-88953935D01*
X118075718Y-88945669D01*
X118057832Y-88902489D01*
X118069390Y-88857202D01*
X118105782Y-88827875D01*
X118152488Y-88826206D01*
X118235228Y-88850500D01*
X118364770Y-88850500D01*
X118364772Y-88850500D01*
X118489069Y-88814004D01*
X118598049Y-88743967D01*
X118682882Y-88646063D01*
X118736697Y-88528226D01*
X118755133Y-88400000D01*
X118752386Y-88380897D01*
X118736697Y-88271774D01*
X118682882Y-88153937D01*
X118662917Y-88130896D01*
X118598049Y-88056033D01*
X118489069Y-87985996D01*
X118364772Y-87949500D01*
X118364770Y-87949500D01*
X118354563Y-87946503D01*
X118354570Y-87946477D01*
X118341449Y-87943867D01*
X118317442Y-87927826D01*
X116179145Y-85789529D01*
X116169942Y-85778315D01*
X116158726Y-85761529D01*
X116158624Y-85761376D01*
X116141679Y-85750053D01*
X116141674Y-85750049D01*
X116108749Y-85728050D01*
X116108750Y-85728050D01*
X116067495Y-85700485D01*
X115979985Y-85683078D01*
X115979983Y-85683078D01*
X115960000Y-85679103D01*
X115959999Y-85679103D01*
X115951190Y-85680855D01*
X115940015Y-85683078D01*
X115925580Y-85684500D01*
X115654500Y-85684500D01*
X115617500Y-85674586D01*
X115590414Y-85647500D01*
X115580500Y-85610500D01*
X115580500Y-85575181D01*
X115580500Y-85575180D01*
X115571767Y-85531278D01*
X115538504Y-85481496D01*
X115488722Y-85448233D01*
X115444820Y-85439500D01*
X112625180Y-85439500D01*
X112581278Y-85448233D01*
X112531496Y-85481496D01*
X112498233Y-85531278D01*
X112489500Y-85575180D01*
X112489500Y-86344820D01*
X112498233Y-86388722D01*
X112531496Y-86438504D01*
X112581278Y-86471767D01*
X112625180Y-86480500D01*
X115444819Y-86480500D01*
X115444820Y-86480500D01*
X115488722Y-86471767D01*
X115538504Y-86438504D01*
X115571767Y-86388722D01*
X115580500Y-86344820D01*
X115580500Y-86309500D01*
X115590414Y-86272500D01*
X115617500Y-86245414D01*
X115654500Y-86235500D01*
X115815232Y-86235500D01*
X115843551Y-86241133D01*
X115867558Y-86257174D01*
X117839480Y-88229096D01*
X117857367Y-88258053D01*
X117860401Y-88291953D01*
X117844867Y-88399999D01*
X117863302Y-88528225D01*
X117917118Y-88646064D01*
X117924281Y-88654330D01*
X117942167Y-88697511D01*
X117930609Y-88742797D01*
X117894217Y-88772124D01*
X117847509Y-88773793D01*
X117796180Y-88758722D01*
X117764772Y-88749500D01*
X117764771Y-88749500D01*
X117669768Y-88749500D01*
X117641449Y-88743867D01*
X117617442Y-88727826D01*
X115949145Y-87059529D01*
X115939942Y-87048315D01*
X115935240Y-87041278D01*
X115928624Y-87031376D01*
X115911679Y-87020053D01*
X115911674Y-87020049D01*
X115879465Y-86998528D01*
X115837494Y-86970484D01*
X115749987Y-86953078D01*
X115749983Y-86953078D01*
X115730000Y-86949103D01*
X115710015Y-86953078D01*
X115695580Y-86954500D01*
X115654500Y-86954500D01*
X115617500Y-86944586D01*
X115590414Y-86917500D01*
X115580500Y-86880500D01*
X115580500Y-86845181D01*
X115580500Y-86845180D01*
X115571767Y-86801278D01*
X115538504Y-86751496D01*
X115488722Y-86718233D01*
X115444820Y-86709500D01*
X112625180Y-86709500D01*
X112581278Y-86718233D01*
X112531496Y-86751496D01*
X112498233Y-86801278D01*
X112489500Y-86845180D01*
X112489500Y-87614820D01*
X112498233Y-87658722D01*
X112531496Y-87708504D01*
X112581278Y-87741767D01*
X112625180Y-87750500D01*
X115444819Y-87750500D01*
X115444820Y-87750500D01*
X115488722Y-87741767D01*
X115538504Y-87708504D01*
X115571767Y-87658722D01*
X115577499Y-87629905D01*
X115595245Y-87594649D01*
X115628595Y-87573530D01*
X115668056Y-87572562D01*
X115702402Y-87592018D01*
X117226910Y-89116526D01*
X117244797Y-89145482D01*
X117247831Y-89179382D01*
X117244866Y-89199999D01*
X117263303Y-89328228D01*
X117316522Y-89444759D01*
X117321124Y-89492946D01*
X117294954Y-89533668D01*
X117249210Y-89549500D01*
X117169768Y-89549500D01*
X117141449Y-89543867D01*
X117117442Y-89527826D01*
X115919145Y-88329529D01*
X115909942Y-88318315D01*
X115903401Y-88308526D01*
X115898624Y-88301376D01*
X115881679Y-88290053D01*
X115881674Y-88290049D01*
X115849465Y-88268528D01*
X115807494Y-88240484D01*
X115719987Y-88223078D01*
X115719983Y-88223078D01*
X115700000Y-88219103D01*
X115680015Y-88223078D01*
X115665580Y-88224500D01*
X115654500Y-88224500D01*
X115617500Y-88214586D01*
X115590414Y-88187500D01*
X115580500Y-88150500D01*
X115580500Y-88115181D01*
X115579215Y-88108721D01*
X115571767Y-88071278D01*
X115538504Y-88021496D01*
X115488722Y-87988233D01*
X115444820Y-87979500D01*
X112625180Y-87979500D01*
X112581278Y-87988233D01*
X112531496Y-88021496D01*
X112498233Y-88071278D01*
X112489500Y-88115180D01*
X112489500Y-88884820D01*
X111509991Y-88884820D01*
X111510000Y-88884774D01*
X111510000Y-88750000D01*
X110215000Y-88750000D01*
X109715000Y-88750000D01*
X108420001Y-88750000D01*
X105539616Y-88750000D01*
X105039616Y-88250000D01*
X108420000Y-88250000D01*
X109715000Y-88250000D01*
X109715000Y-87980001D01*
X108555223Y-87980001D01*
X108511473Y-87988702D01*
X108461856Y-88021855D01*
X108428703Y-88071473D01*
X108420000Y-88115226D01*
X108420000Y-88250000D01*
X105039616Y-88250000D01*
X104769616Y-87980000D01*
X110215000Y-87980000D01*
X110215000Y-88250000D01*
X111509999Y-88250000D01*
X111509999Y-88115223D01*
X111501297Y-88071473D01*
X111468144Y-88021856D01*
X111418526Y-87988703D01*
X111374774Y-87980000D01*
X110215000Y-87980000D01*
X104769616Y-87980000D01*
X104269616Y-87480000D01*
X108420001Y-87480000D01*
X108420001Y-87614777D01*
X108428702Y-87658526D01*
X108461855Y-87708143D01*
X108511473Y-87741296D01*
X108555226Y-87750000D01*
X109715000Y-87750000D01*
X109715000Y-87480000D01*
X110215000Y-87480000D01*
X110215000Y-87749999D01*
X111374777Y-87749999D01*
X111418526Y-87741297D01*
X111468143Y-87708144D01*
X111501296Y-87658526D01*
X111510000Y-87614774D01*
X111510000Y-87480000D01*
X110215000Y-87480000D01*
X109715000Y-87480000D01*
X108420001Y-87480000D01*
X104269616Y-87480000D01*
X104119145Y-87329529D01*
X104109942Y-87318315D01*
X104098624Y-87301376D01*
X104081679Y-87290053D01*
X104081674Y-87290049D01*
X104040183Y-87262326D01*
X104022483Y-87250500D01*
X104007495Y-87240485D01*
X103951918Y-87229430D01*
X103919985Y-87223078D01*
X103919983Y-87223078D01*
X103900000Y-87219103D01*
X103880015Y-87223078D01*
X103865580Y-87224500D01*
X99194273Y-87224500D01*
X99160405Y-87216295D01*
X99134048Y-87193500D01*
X99121046Y-87161169D01*
X99115573Y-87123605D01*
X99064198Y-87018517D01*
X99025681Y-86980000D01*
X108420000Y-86980000D01*
X109715000Y-86980000D01*
X109715000Y-86710001D01*
X108555223Y-86710001D01*
X108511473Y-86718702D01*
X108461856Y-86751855D01*
X108428703Y-86801473D01*
X108420000Y-86845226D01*
X108420000Y-86980000D01*
X99025681Y-86980000D01*
X98981482Y-86935801D01*
X98876394Y-86884426D01*
X98808260Y-86874500D01*
X98341740Y-86874500D01*
X98273605Y-86884426D01*
X98168517Y-86935801D01*
X98085801Y-87018517D01*
X98034426Y-87123605D01*
X98024500Y-87191740D01*
X98024500Y-87808260D01*
X98034426Y-87876394D01*
X98085801Y-87981482D01*
X98168517Y-88064198D01*
X98273605Y-88115573D01*
X98341740Y-88125500D01*
X98808260Y-88125500D01*
X98876394Y-88115573D01*
X98928937Y-88089885D01*
X98981483Y-88064198D01*
X99064198Y-87981483D01*
X99094330Y-87919847D01*
X99115573Y-87876394D01*
X99121046Y-87838831D01*
X99134048Y-87806500D01*
X99160405Y-87783705D01*
X99194273Y-87775500D01*
X103755232Y-87775500D01*
X103783551Y-87781133D01*
X103807558Y-87797174D01*
X110180854Y-94170470D01*
X110190052Y-94181677D01*
X110201376Y-94198624D01*
X110218315Y-94209942D01*
X110218323Y-94209949D01*
X110234328Y-94220642D01*
X110241781Y-94225622D01*
X110292505Y-94259515D01*
X110372867Y-94275500D01*
X110372868Y-94275500D01*
X110385045Y-94277922D01*
X110399999Y-94285916D01*
X110414954Y-94277922D01*
X110419984Y-94276921D01*
X110434420Y-94275500D01*
X126265580Y-94275500D01*
X126280015Y-94276921D01*
X126285045Y-94277922D01*
X126322933Y-94298175D01*
X126343185Y-94336064D01*
X126338974Y-94378819D01*
X126311719Y-94412029D01*
X126270607Y-94424500D01*
X110429393Y-94424500D01*
X110400000Y-94415583D01*
X110370607Y-94424500D01*
X110144768Y-94424500D01*
X110116449Y-94418867D01*
X110092442Y-94402826D01*
X105019145Y-89329529D01*
X105009942Y-89318315D01*
X105007055Y-89313994D01*
X104998624Y-89301376D01*
X104981679Y-89290053D01*
X104981674Y-89290049D01*
X104949465Y-89268528D01*
X104907494Y-89240484D01*
X104819987Y-89223078D01*
X104819983Y-89223078D01*
X104800000Y-89219103D01*
X104780015Y-89223078D01*
X104765580Y-89224500D01*
X99194273Y-89224500D01*
X99160405Y-89216295D01*
X99134048Y-89193500D01*
X99121046Y-89161169D01*
X99115573Y-89123605D01*
X99064198Y-89018517D01*
X98981482Y-88935801D01*
X98876394Y-88884426D01*
X98808260Y-88874500D01*
X98341740Y-88874500D01*
X98273605Y-88884426D01*
X98168517Y-88935801D01*
X98085801Y-89018517D01*
X98034426Y-89123605D01*
X98024500Y-89191740D01*
X98024500Y-89808260D01*
X97475500Y-89808260D01*
X97475500Y-89191740D01*
X97465573Y-89123605D01*
X97414198Y-89018517D01*
X97331482Y-88935801D01*
X97226394Y-88884426D01*
X97158260Y-88874500D01*
X96719768Y-88874500D01*
X96691449Y-88868867D01*
X96667442Y-88852826D01*
X96144145Y-88329529D01*
X96134942Y-88318315D01*
X96128401Y-88308526D01*
X96123624Y-88301376D01*
X96106679Y-88290053D01*
X96106674Y-88290049D01*
X96074465Y-88268528D01*
X96063242Y-88261029D01*
X96034680Y-88224430D01*
X96033540Y-88178019D01*
X96060272Y-88140063D01*
X96104354Y-88125500D01*
X96540580Y-88125500D01*
X96555015Y-88126921D01*
X96575000Y-88130897D01*
X96602132Y-88125500D01*
X96602133Y-88125500D01*
X96627520Y-88120449D01*
X96652626Y-88119801D01*
X96691740Y-88125500D01*
X97158260Y-88125500D01*
X97226394Y-88115573D01*
X97278937Y-88089885D01*
X97331483Y-88064198D01*
X97414198Y-87981483D01*
X97444330Y-87919847D01*
X97465573Y-87876394D01*
X97475500Y-87808260D01*
X97475500Y-87191740D01*
X97465573Y-87123605D01*
X97414198Y-87018517D01*
X97331482Y-86935801D01*
X97226394Y-86884426D01*
X97158260Y-86874500D01*
X96691740Y-86874500D01*
X96623605Y-86884426D01*
X96518517Y-86935801D01*
X96435801Y-87018517D01*
X96384426Y-87123605D01*
X96374500Y-87191740D01*
X96374500Y-87500500D01*
X96364586Y-87537500D01*
X96337500Y-87564586D01*
X96300500Y-87574500D01*
X95629122Y-87574500D01*
X95588011Y-87562030D01*
X95560756Y-87528822D01*
X95556543Y-87486069D01*
X95576790Y-87448180D01*
X95581764Y-87443205D01*
X95595131Y-87432618D01*
X95605952Y-87425919D01*
X95624144Y-87401827D01*
X95630857Y-87394112D01*
X96314969Y-86710000D01*
X110215000Y-86710000D01*
X110215000Y-86980000D01*
X111509999Y-86980000D01*
X111509999Y-86845223D01*
X111501297Y-86801473D01*
X111468144Y-86751856D01*
X111418526Y-86718703D01*
X111374774Y-86710000D01*
X110215000Y-86710000D01*
X96314969Y-86710000D01*
X99373694Y-83651276D01*
X99409492Y-83631473D01*
X99450344Y-83633717D01*
X99483760Y-83657323D01*
X99499525Y-83695077D01*
X99502414Y-83719989D01*
X99502415Y-83719991D01*
X99547794Y-83822765D01*
X99588029Y-83863000D01*
X99627826Y-83902797D01*
X99643867Y-83926805D01*
X99649500Y-83955123D01*
X99649500Y-84308911D01*
X99647049Y-84323931D01*
X99649421Y-84375224D01*
X99649500Y-84378642D01*
X99649500Y-84397845D01*
X99649840Y-84399664D01*
X99651021Y-84409842D01*
X99652415Y-84439991D01*
X99657555Y-84451634D01*
X99662598Y-84467918D01*
X99664938Y-84480431D01*
X99680825Y-84506092D01*
X99685601Y-84515152D01*
X99693194Y-84532346D01*
X99699501Y-84562240D01*
X99699501Y-84624674D01*
X99714035Y-84697740D01*
X99769400Y-84780601D01*
X99852261Y-84835966D01*
X99925327Y-84850500D01*
X100234675Y-84850500D01*
X100307741Y-84835966D01*
X100359341Y-84801488D01*
X100400451Y-84789018D01*
X100441564Y-84801489D01*
X100492458Y-84835496D01*
X100520000Y-84840974D01*
X100520001Y-84840974D01*
X100520001Y-84700000D01*
X100920001Y-84700000D01*
X100920001Y-84840974D01*
X100947545Y-84835495D01*
X101030240Y-84780239D01*
X101083855Y-84700000D01*
X100920001Y-84700000D01*
X100520001Y-84700000D01*
X100520001Y-84159027D01*
X100520000Y-84159025D01*
X100920001Y-84159025D01*
X100920001Y-84300000D01*
X101083855Y-84300000D01*
X101030240Y-84219760D01*
X100947545Y-84164504D01*
X100920001Y-84159025D01*
X100520000Y-84159025D01*
X100492456Y-84164504D01*
X100441563Y-84198510D01*
X100400451Y-84210981D01*
X100359339Y-84198510D01*
X100295502Y-84155856D01*
X100295544Y-84155793D01*
X100267297Y-84138861D01*
X100250500Y-84091917D01*
X100250500Y-83955123D01*
X100256133Y-83926805D01*
X100272174Y-83902797D01*
X100289693Y-83885278D01*
X100352206Y-83822765D01*
X100357579Y-83810594D01*
X100384871Y-83778489D01*
X100425270Y-83766487D01*
X100465669Y-83778486D01*
X100492966Y-83810595D01*
X100498212Y-83822476D01*
X100577522Y-83901786D01*
X100650000Y-83933789D01*
X100650000Y-82961500D01*
X100659914Y-82924500D01*
X100687000Y-82897414D01*
X100724000Y-82887500D01*
X101076000Y-82887500D01*
X101113000Y-82897414D01*
X101140086Y-82924500D01*
X101150000Y-82961500D01*
X101150000Y-83933789D01*
X101222477Y-83901786D01*
X101301786Y-83822477D01*
X101307032Y-83810597D01*
X101334328Y-83778488D01*
X101374727Y-83766487D01*
X101415126Y-83778487D01*
X101442420Y-83810595D01*
X101447794Y-83822765D01*
X101527235Y-83902206D01*
X101630009Y-83947585D01*
X101655135Y-83950500D01*
X102044864Y-83950499D01*
X102044865Y-83950499D01*
X102053239Y-83949527D01*
X102069991Y-83947585D01*
X102172765Y-83902206D01*
X102252206Y-83822765D01*
X102297585Y-83719991D01*
X102300449Y-83695306D01*
X102300500Y-83694866D01*
X102300500Y-83574500D01*
X102310414Y-83537500D01*
X102337500Y-83510414D01*
X102374500Y-83500500D01*
X102930492Y-83500500D01*
X102961232Y-83507187D01*
X102986417Y-83526040D01*
X102988311Y-83528226D01*
X103001951Y-83543967D01*
X103110931Y-83614004D01*
X103235228Y-83650500D01*
X103364770Y-83650500D01*
X103364772Y-83650500D01*
X103489069Y-83614004D01*
X103598049Y-83543967D01*
X103682882Y-83446063D01*
X103736697Y-83328226D01*
X103755133Y-83200000D01*
X103736697Y-83071774D01*
X103682882Y-82953937D01*
X103598049Y-82856033D01*
X103489069Y-82785996D01*
X103364772Y-82749500D01*
X103235228Y-82749500D01*
X103110931Y-82785996D01*
X103001951Y-82856033D01*
X103001949Y-82856034D01*
X103001949Y-82856035D01*
X102986417Y-82873960D01*
X102961232Y-82892813D01*
X102930492Y-82899500D01*
X102374499Y-82899500D01*
X102337499Y-82889586D01*
X102310413Y-82862500D01*
X102300499Y-82825500D01*
X102300499Y-82580134D01*
X102297585Y-82555010D01*
X102295594Y-82550500D01*
X102252206Y-82452235D01*
X102172765Y-82372794D01*
X102172764Y-82372793D01*
X102172174Y-82372203D01*
X102156133Y-82348195D01*
X102152276Y-82328806D01*
X102151762Y-82328903D01*
X102150160Y-82320340D01*
X102148977Y-82310153D01*
X102147585Y-82280009D01*
X102142443Y-82268363D01*
X102137398Y-82252072D01*
X102135061Y-82239567D01*
X102119168Y-82213899D01*
X102114402Y-82204857D01*
X102102206Y-82177235D01*
X102093207Y-82168236D01*
X102082617Y-82154865D01*
X102075919Y-82144048D01*
X102051837Y-82125862D01*
X102044106Y-82119135D01*
X101755681Y-81830710D01*
X101746795Y-81818360D01*
X101743959Y-81815774D01*
X101743958Y-81815772D01*
X101731246Y-81804183D01*
X101709067Y-81766440D01*
X101712099Y-81722766D01*
X101739282Y-81688449D01*
X101781099Y-81675499D01*
X102044864Y-81675499D01*
X102044866Y-81675499D01*
X102057427Y-81674041D01*
X102069991Y-81672585D01*
X102172765Y-81627206D01*
X102252206Y-81547765D01*
X102297585Y-81444991D01*
X102300500Y-81419865D01*
X102300499Y-80305136D01*
X102297585Y-80280009D01*
X102252206Y-80177235D01*
X102172765Y-80097794D01*
X102127385Y-80077756D01*
X102069990Y-80052414D01*
X102044865Y-80049500D01*
X101655134Y-80049500D01*
X101630010Y-80052414D01*
X101527235Y-80097794D01*
X101447794Y-80177235D01*
X101402414Y-80280009D01*
X101399500Y-80305134D01*
X101399500Y-81419865D01*
X101402414Y-81444989D01*
X101402415Y-81444991D01*
X101447794Y-81547765D01*
X101473205Y-81573176D01*
X101493456Y-81611063D01*
X101489245Y-81653819D01*
X101461990Y-81687029D01*
X101420878Y-81699500D01*
X100379122Y-81699500D01*
X100338010Y-81687029D01*
X100310755Y-81653819D01*
X100306544Y-81611063D01*
X100326794Y-81573176D01*
X100352206Y-81547765D01*
X100397585Y-81444991D01*
X100400500Y-81419865D01*
X100400499Y-80305136D01*
X100397585Y-80280009D01*
X100352206Y-80177235D01*
X100272765Y-80097794D01*
X100272764Y-80097793D01*
X100272174Y-80097203D01*
X100256133Y-80073195D01*
X100250500Y-80044877D01*
X100250500Y-79874500D01*
X100260414Y-79837500D01*
X100287500Y-79810414D01*
X100324500Y-79800500D01*
X105744877Y-79800500D01*
X105773196Y-79806133D01*
X105797203Y-79822174D01*
X109487466Y-83512437D01*
X109505343Y-83541362D01*
X109506548Y-83554729D01*
X109508353Y-83554470D01*
X109528302Y-83693225D01*
X109564155Y-83771731D01*
X109582118Y-83811063D01*
X109646428Y-83885281D01*
X109659834Y-83907878D01*
X109664500Y-83933738D01*
X109664500Y-85365500D01*
X109654586Y-85402500D01*
X109627500Y-85429586D01*
X109590500Y-85439500D01*
X108555180Y-85439500D01*
X108511278Y-85448233D01*
X108461496Y-85481496D01*
X108428233Y-85531278D01*
X108419500Y-85575180D01*
X108419500Y-86344820D01*
X108428233Y-86388722D01*
X108461496Y-86438504D01*
X108511278Y-86471767D01*
X108555180Y-86480500D01*
X111374819Y-86480500D01*
X111374820Y-86480500D01*
X111418722Y-86471767D01*
X111468504Y-86438504D01*
X111501767Y-86388722D01*
X111510500Y-86344820D01*
X111510500Y-85575180D01*
X111501767Y-85531278D01*
X111468504Y-85481496D01*
X111418722Y-85448233D01*
X111374820Y-85439500D01*
X111374819Y-85439500D01*
X110339500Y-85439500D01*
X110302500Y-85429586D01*
X110275414Y-85402500D01*
X110265500Y-85365500D01*
X110265500Y-83933738D01*
X110270166Y-83907878D01*
X110283571Y-83885281D01*
X110347882Y-83811063D01*
X110401697Y-83693226D01*
X110420133Y-83565000D01*
X110401697Y-83436774D01*
X110347882Y-83318937D01*
X110263049Y-83221033D01*
X110154069Y-83150996D01*
X110029772Y-83114500D01*
X110029770Y-83114500D01*
X109970123Y-83114500D01*
X109941804Y-83108867D01*
X109917797Y-83092826D01*
X106155681Y-79330710D01*
X106146793Y-79318357D01*
X106143958Y-79315772D01*
X106108844Y-79283761D01*
X106106372Y-79281401D01*
X106092794Y-79267823D01*
X106091267Y-79266777D01*
X106083239Y-79260418D01*
X106060933Y-79240083D01*
X106049065Y-79235486D01*
X106033979Y-79227535D01*
X106023480Y-79220343D01*
X105994108Y-79213435D01*
X105984321Y-79210404D01*
X105956174Y-79199500D01*
X105956173Y-79199500D01*
X105943447Y-79199500D01*
X105926505Y-79197534D01*
X105921397Y-79196332D01*
X105914117Y-79194620D01*
X105884234Y-79198790D01*
X105874009Y-79199500D01*
X100223266Y-79199500D01*
X100182156Y-79187029D01*
X100147740Y-79164034D01*
X100074674Y-79149500D01*
X99765326Y-79149500D01*
X99692260Y-79164034D01*
X99640660Y-79198511D01*
X99599548Y-79210981D01*
X99558437Y-79198510D01*
X99507544Y-79164504D01*
X99480000Y-79159025D01*
X99480000Y-79840974D01*
X99507543Y-79835495D01*
X99534388Y-79817559D01*
X99571869Y-79805177D01*
X99610383Y-79813826D01*
X99638972Y-79841044D01*
X99649500Y-79879088D01*
X99649500Y-80044877D01*
X99643867Y-80073195D01*
X99627826Y-80097203D01*
X99547794Y-80177235D01*
X99502414Y-80280009D01*
X99499500Y-80305134D01*
X99499500Y-80695500D01*
X99489586Y-80732500D01*
X99462500Y-80759586D01*
X99425500Y-80769500D01*
X99049134Y-80769500D01*
X99011091Y-80758972D01*
X98983872Y-80730384D01*
X98975223Y-80691871D01*
X98983881Y-80665657D01*
X98990974Y-80630000D01*
X98309025Y-80630000D01*
X98314504Y-80657544D01*
X98348510Y-80708437D01*
X98360981Y-80749548D01*
X98348511Y-80790660D01*
X98324751Y-80826220D01*
X98314034Y-80842260D01*
X98299500Y-80915326D01*
X98299500Y-81224674D01*
X98314034Y-81297740D01*
X98369399Y-81380601D01*
X98452260Y-81435966D01*
X98525326Y-81450500D01*
X98774674Y-81450500D01*
X98847740Y-81435966D01*
X98927054Y-81382970D01*
X98968165Y-81370500D01*
X99427862Y-81370500D01*
X99462368Y-81379038D01*
X99488912Y-81402681D01*
X99501369Y-81435973D01*
X99502414Y-81444989D01*
X99502415Y-81444991D01*
X99547794Y-81547765D01*
X99627235Y-81627206D01*
X99730009Y-81672585D01*
X99755135Y-81675500D01*
X100019881Y-81675499D01*
X100058836Y-81686583D01*
X100086123Y-81716515D01*
X100093564Y-81756329D01*
X100078932Y-81794096D01*
X100075859Y-81798165D01*
X100069133Y-81805894D01*
X99780707Y-82094320D01*
X99768357Y-82103206D01*
X99733749Y-82141167D01*
X99731394Y-82143633D01*
X99717825Y-82157203D01*
X99716774Y-82158738D01*
X99710421Y-82166757D01*
X99690083Y-82189067D01*
X99685483Y-82200940D01*
X99677536Y-82216017D01*
X99670344Y-82226517D01*
X99663434Y-82255894D01*
X99660403Y-82265680D01*
X99649500Y-82293826D01*
X99649500Y-82306554D01*
X99647534Y-82323492D01*
X99644621Y-82335881D01*
X99643436Y-82340920D01*
X99623729Y-82376299D01*
X99547794Y-82452235D01*
X99502414Y-82555009D01*
X99499500Y-82580134D01*
X99499500Y-82763430D01*
X99482427Y-82810709D01*
X99439086Y-82836172D01*
X99432827Y-82837341D01*
X99422661Y-82838520D01*
X99392507Y-82839914D01*
X99380862Y-82845056D01*
X99364577Y-82850099D01*
X99352067Y-82852438D01*
X99326407Y-82868325D01*
X99317345Y-82873102D01*
X99289733Y-82885294D01*
X99280732Y-82894295D01*
X99267371Y-82904878D01*
X99256548Y-82911580D01*
X99238358Y-82935666D01*
X99231633Y-82943394D01*
X95297203Y-86877826D01*
X95273196Y-86893867D01*
X95244877Y-86899500D01*
X94992930Y-86899500D01*
X94951819Y-86887029D01*
X94908722Y-86858233D01*
X94864820Y-86849500D01*
X93485180Y-86849500D01*
X93441278Y-86858233D01*
X93391496Y-86891496D01*
X93358233Y-86941278D01*
X93349500Y-86985180D01*
X93349500Y-87414820D01*
X93358233Y-87458722D01*
X93372553Y-87480153D01*
X93375049Y-87483889D01*
X93387519Y-87525000D01*
X93375049Y-87566110D01*
X93358233Y-87591278D01*
X93349500Y-87635180D01*
X93349500Y-88064820D01*
X93358233Y-88108722D01*
X93373050Y-88130897D01*
X93375048Y-88133887D01*
X93387519Y-88174998D01*
X93375049Y-88216109D01*
X93358233Y-88241276D01*
X93352812Y-88268528D01*
X93349500Y-88285180D01*
X93349500Y-88714820D01*
X93358233Y-88758722D01*
X93375049Y-88783889D01*
X93387519Y-88825000D01*
X93375049Y-88866110D01*
X93358233Y-88891278D01*
X93349500Y-88935180D01*
X93349500Y-89364820D01*
X92599999Y-89364820D01*
X92599999Y-88735223D01*
X92591297Y-88691473D01*
X92558144Y-88641856D01*
X92508526Y-88608703D01*
X92464774Y-88600000D01*
X91750000Y-88600000D01*
X90000500Y-88600000D01*
X90000500Y-87550000D01*
X90400001Y-87550000D01*
X90400001Y-88264777D01*
X90408702Y-88308526D01*
X90441855Y-88358143D01*
X90491473Y-88391296D01*
X90535226Y-88400000D01*
X91250000Y-88400000D01*
X91250000Y-87550000D01*
X91750000Y-87550000D01*
X91750000Y-88399999D01*
X92464777Y-88399999D01*
X92508526Y-88391297D01*
X92558143Y-88358144D01*
X92591296Y-88308526D01*
X92600000Y-88264774D01*
X92600000Y-87550000D01*
X91750000Y-87550000D01*
X91250000Y-87550000D01*
X90400001Y-87550000D01*
X90000500Y-87550000D01*
X90000500Y-87050000D01*
X90400000Y-87050000D01*
X91250000Y-87050000D01*
X91250000Y-86200001D01*
X90535223Y-86200001D01*
X90491473Y-86208702D01*
X90441856Y-86241855D01*
X90408703Y-86291473D01*
X90400000Y-86335226D01*
X90400000Y-87050000D01*
X90000500Y-87050000D01*
X90000500Y-86200000D01*
X91750000Y-86200000D01*
X91750000Y-87050000D01*
X92599999Y-87050000D01*
X92599999Y-86335223D01*
X92591297Y-86291473D01*
X92558144Y-86241856D01*
X92508526Y-86208703D01*
X92464774Y-86200000D01*
X91750000Y-86200000D01*
X90000500Y-86200000D01*
X90000500Y-85450000D01*
X90504118Y-85450000D01*
X90525901Y-85502588D01*
X90622075Y-85627924D01*
X90747411Y-85724099D01*
X90893367Y-85784555D01*
X91010678Y-85800000D01*
X91250000Y-85800000D01*
X91250000Y-85450000D01*
X91750000Y-85450000D01*
X91750000Y-85800000D01*
X91989322Y-85800000D01*
X92106632Y-85784555D01*
X92252588Y-85724099D01*
X92377924Y-85627925D01*
X92437719Y-85550000D01*
X93100001Y-85550000D01*
X93100001Y-86114777D01*
X93108702Y-86158526D01*
X93141855Y-86208143D01*
X93191473Y-86241296D01*
X93235226Y-86250000D01*
X93700000Y-86250000D01*
X93700000Y-85550000D01*
X94200000Y-85550000D01*
X94200000Y-86249999D01*
X94664777Y-86249999D01*
X94708526Y-86241297D01*
X94758143Y-86208144D01*
X94791296Y-86158526D01*
X94800000Y-86114774D01*
X94800000Y-85550000D01*
X94200000Y-85550000D01*
X93700000Y-85550000D01*
X93100001Y-85550000D01*
X92437719Y-85550000D01*
X92474098Y-85502590D01*
X92495882Y-85450000D01*
X91750000Y-85450000D01*
X91250000Y-85450000D01*
X90504118Y-85450000D01*
X90000500Y-85450000D01*
X90000500Y-85050000D01*
X93100000Y-85050000D01*
X93700000Y-85050000D01*
X93700000Y-84350001D01*
X93235223Y-84350001D01*
X93191473Y-84358702D01*
X93141856Y-84391855D01*
X93108703Y-84441473D01*
X93100000Y-84485226D01*
X93100000Y-85050000D01*
X90000500Y-85050000D01*
X90000500Y-84949999D01*
X90504117Y-84949999D01*
X90504118Y-84950000D01*
X91250000Y-84950000D01*
X91250000Y-84600000D01*
X91750000Y-84600000D01*
X91750000Y-84950000D01*
X92495882Y-84950000D01*
X92495882Y-84949999D01*
X92474098Y-84897411D01*
X92377924Y-84772075D01*
X92252588Y-84675900D01*
X92106632Y-84615444D01*
X91989322Y-84600000D01*
X91750000Y-84600000D01*
X91250000Y-84600000D01*
X91010678Y-84600000D01*
X90893367Y-84615444D01*
X90747411Y-84675900D01*
X90622075Y-84772074D01*
X90525901Y-84897409D01*
X90504117Y-84949999D01*
X90000500Y-84949999D01*
X90000500Y-84350000D01*
X94200000Y-84350000D01*
X94200000Y-85050000D01*
X94799999Y-85050000D01*
X94799999Y-84485223D01*
X94791297Y-84441473D01*
X94758144Y-84391856D01*
X94708526Y-84358703D01*
X94664774Y-84350000D01*
X94200000Y-84350000D01*
X90000500Y-84350000D01*
X90000500Y-81591294D01*
X91524500Y-81591294D01*
X91534957Y-81663067D01*
X91589080Y-81773779D01*
X91589081Y-81773780D01*
X91676220Y-81860919D01*
X91786933Y-81915043D01*
X91858705Y-81925500D01*
X92366294Y-81925499D01*
X92438067Y-81915043D01*
X92548780Y-81860919D01*
X92635919Y-81773780D01*
X92690043Y-81663067D01*
X92700500Y-81591295D01*
X92700500Y-81591294D01*
X93099500Y-81591294D01*
X93109957Y-81663067D01*
X93164080Y-81773779D01*
X93164081Y-81773780D01*
X93251220Y-81860919D01*
X93361933Y-81915043D01*
X93433705Y-81925500D01*
X93892731Y-81925499D01*
X93921050Y-81931132D01*
X93945057Y-81947173D01*
X94337909Y-82340025D01*
X94355796Y-82368982D01*
X94358830Y-82402882D01*
X94344867Y-82499999D01*
X94363302Y-82628225D01*
X94417117Y-82746062D01*
X94417118Y-82746063D01*
X94501951Y-82843967D01*
X94610931Y-82914004D01*
X94735228Y-82950500D01*
X94864770Y-82950500D01*
X94864772Y-82950500D01*
X94989069Y-82914004D01*
X95098049Y-82843967D01*
X95182882Y-82746063D01*
X95236697Y-82628226D01*
X95255133Y-82500000D01*
X95236697Y-82371774D01*
X95182882Y-82253937D01*
X95098049Y-82156033D01*
X94989069Y-82085996D01*
X94864772Y-82049500D01*
X94864770Y-82049500D01*
X94857268Y-82049500D01*
X94828949Y-82043867D01*
X94804942Y-82027826D01*
X94297173Y-81520057D01*
X94281132Y-81496050D01*
X94275499Y-81467731D01*
X94275499Y-81008706D01*
X94272373Y-80987250D01*
X94265043Y-80936933D01*
X94210919Y-80826220D01*
X94123780Y-80739081D01*
X94123779Y-80739080D01*
X94013068Y-80684957D01*
X93989143Y-80681471D01*
X93941295Y-80674500D01*
X93941293Y-80674500D01*
X93433705Y-80674500D01*
X93361932Y-80684957D01*
X93251220Y-80739080D01*
X93164080Y-80826220D01*
X93109957Y-80936931D01*
X93099500Y-81008706D01*
X93099500Y-81591294D01*
X92700500Y-81591294D01*
X92700499Y-81008706D01*
X92690043Y-80936933D01*
X92635919Y-80826220D01*
X92548780Y-80739081D01*
X92548779Y-80739080D01*
X92429499Y-80680768D01*
X92399226Y-80653472D01*
X92388000Y-80614287D01*
X92388000Y-80256092D01*
X92395476Y-80229999D01*
X98309025Y-80229999D01*
X98309026Y-80230000D01*
X98450000Y-80230000D01*
X98450000Y-80066146D01*
X98850000Y-80066146D01*
X98850000Y-80230000D01*
X98990974Y-80230000D01*
X98990974Y-80229999D01*
X98985495Y-80202455D01*
X98930239Y-80119760D01*
X98850000Y-80066146D01*
X98450000Y-80066146D01*
X98369760Y-80119760D01*
X98314504Y-80202455D01*
X98309025Y-80229999D01*
X92395476Y-80229999D01*
X92399227Y-80216907D01*
X92429500Y-80189611D01*
X92443829Y-80182606D01*
X92481483Y-80164198D01*
X92564198Y-80081483D01*
X92589885Y-80028938D01*
X92615573Y-79976394D01*
X92625500Y-79908260D01*
X92625500Y-79850000D01*
X93175001Y-79850000D01*
X93175001Y-79908218D01*
X93184911Y-79976249D01*
X93236213Y-80081188D01*
X93318811Y-80163786D01*
X93423751Y-80215088D01*
X93475000Y-80222554D01*
X93475000Y-79850000D01*
X93975000Y-79850000D01*
X93975000Y-80222554D01*
X94026249Y-80215087D01*
X94131188Y-80163786D01*
X94213786Y-80081188D01*
X94265088Y-79976248D01*
X94275000Y-79908219D01*
X94275000Y-79850000D01*
X93975000Y-79850000D01*
X93475000Y-79850000D01*
X93175001Y-79850000D01*
X92625500Y-79850000D01*
X92625500Y-79700000D01*
X98916146Y-79700000D01*
X98969760Y-79780239D01*
X99052455Y-79835495D01*
X99079999Y-79840974D01*
X99080000Y-79840974D01*
X99080000Y-79700000D01*
X98916146Y-79700000D01*
X92625500Y-79700000D01*
X92625500Y-79350000D01*
X93175000Y-79350000D01*
X93475000Y-79350000D01*
X93475000Y-78977446D01*
X93474999Y-78977445D01*
X93975000Y-78977445D01*
X93975000Y-79350000D01*
X94274999Y-79350000D01*
X94274999Y-79300000D01*
X98916146Y-79300000D01*
X99080000Y-79300000D01*
X99080000Y-79159027D01*
X99079999Y-79159025D01*
X99052455Y-79164504D01*
X98969760Y-79219760D01*
X98916146Y-79300000D01*
X94274999Y-79300000D01*
X94274999Y-79291782D01*
X94265088Y-79223750D01*
X94213786Y-79118811D01*
X94131188Y-79036213D01*
X94026248Y-78984911D01*
X93975000Y-78977445D01*
X93474999Y-78977445D01*
X93423750Y-78984912D01*
X93318811Y-79036213D01*
X93236213Y-79118811D01*
X93184911Y-79223751D01*
X93175000Y-79291781D01*
X93175000Y-79350000D01*
X92625500Y-79350000D01*
X92625500Y-79291740D01*
X92615573Y-79223605D01*
X92564198Y-79118517D01*
X92481482Y-79035801D01*
X92376394Y-78984426D01*
X92308260Y-78974500D01*
X91841740Y-78974500D01*
X91773605Y-78984426D01*
X91668517Y-79035801D01*
X91585801Y-79118517D01*
X91534426Y-79223605D01*
X91524500Y-79291740D01*
X91524500Y-79908260D01*
X91534426Y-79976394D01*
X91585801Y-80081482D01*
X91668517Y-80164198D01*
X91773605Y-80215573D01*
X91773667Y-80215582D01*
X91805999Y-80228584D01*
X91828795Y-80254941D01*
X91837000Y-80288809D01*
X91837000Y-80614288D01*
X91825773Y-80653473D01*
X91795500Y-80680769D01*
X91676220Y-80739080D01*
X91589080Y-80826220D01*
X91534957Y-80936931D01*
X91524500Y-81008706D01*
X91524500Y-81591294D01*
X90000500Y-81591294D01*
X90000500Y-77074500D01*
X90010414Y-77037500D01*
X90037500Y-77010414D01*
X90074500Y-77000500D01*
X140925500Y-77000500D01*
X140962500Y-77010414D01*
G37*
%TD.AperFunction*%
%TD*%
M02*
